<?xml version="1.0" encoding="UTF-8"?>
<svg width="512px" height="498px" viewBox="0 0 512 498" version="1.1" xmlns="http://www.w3.org/2000/svg" xmlns:xlink="http://www.w3.org/1999/xlink">
    <!-- Generator: Sketch 52.5 (67469) - http://www.bohemiancoding.com/sketch -->
    <title>discounts</title>
    <desc>Created with Sketch.</desc>
    <defs>
        <rect id="path-1" x="0" y="0" width="512" height="498"></rect>
    </defs>
    <g id="Page-1" stroke="none" stroke-width="1" fill="none" fill-rule="evenodd">
        <g id="discounts">
            <g id="Rectangle" opacity="0.0141136533" fill="#FFFFFF">
                <rect id="path-1" x="0" y="0" width="512" height="498"></rect>
            </g>
            <g id="Discounts-Clipped">
                <mask id="mask-2" fill="white">
                    <use xlink:href="#path-1"></use>
                </mask>
                <g id="path-1"></g>
                <g id="Discounts" mask="url(#mask-2)">
                    <g transform="translate(49.000000, 41.000000)" id="Group">
                        <g>
                            <path d="M136.8,288.2 C158.3,291 179.9,291.4 201.5,292.2 C211.4,292.6 221.1,292.1 230.3,295.7 C238.9,299 245.7,305.7 254.5,308.6 C261.4,310.8 268.8,310.7 275.9,309.9 C306.2,306.5 334.7,289.6 352.3,264.7 C368.4,241.9 375.2,212.7 370.9,185.2 C368.3,168.5 360.6,152.9 358.8,136 C356.8,118.2 363.7,102.7 368,85.7 C371,73.9 372.3,61.6 371.9,49.5 C371.7,42.5 370.8,35.3 367.5,29.1 C358.5,12.3 335.7,9.1 316.8,11 C293.3,13.3 269.9,20.6 249.2,32 C232.9,41 216.7,54.1 198,57.7 C176.9,61.7 160.5,47.2 141.5,40.6 C98.7,25.7 47.1,54.9 28.3,93.7 C5,141.6 7.6,219.9 51.2,255.5 C74.9,274.9 105.5,284 135.9,288 C136.2,288.1 136.5,288.1 136.8,288.2 Z" id="Path" fill="#EDF0F2"></path>
                            <path d="M18.8,123.9 L379.2,110.3 C388.6,109.9 396,118.1 394.8,127.4 L382.3,221.4 C380.5,235.2 368.3,245.1 354.4,244.2 L27.8,222 C15.4,221.2 5.5,211.4 4.5,199 L0.1,145 C-0.8,133.9 7.7,124.3 18.8,123.9 Z" id="Path" fill="#2168F3"></path>
                            <g transform="translate(31.000000, 152.000000)" fill="#1A59B5">
                                <path d="M0.7,1.5 L18.7,1.5 C32.2,1.5 41.9,9.6 41.9,22.9 C41.9,36.2 32.2,44.4 18.8,44.4 L0.7,44.4 L0.7,1.5 Z M18.7,34.7 C26.2,34.7 30.6,29.2 30.6,22.9 C30.6,16.3 26.6,11.1 18.8,11.1 L11.8,11.1 L11.8,34.7 L18.7,34.7 Z" id="Shape" fill-rule="nonzero"></path>
                                <polygon id="Path" points="47.5 1.5 58.6 1.5 58.6 44.4 47.5 44.4"></polygon>
                                <path d="M69,30 C72.1,33.1 76.8,35.7 82.7,35.7 C86.5,35.7 88.8,34.1 88.8,32 C88.8,29.6 86,28.6 81.5,27.6 C74.4,26.2 64.5,24.4 64.5,14.2 C64.5,7 70.6,0.8 81.6,0.8 C88.5,0.8 94.5,2.9 99,6.8 L93,14.7 C89.4,11.7 84.7,10.3 80.9,10.3 C77.2,10.3 75.8,11.8 75.8,13.6 C75.8,15.8 78.4,16.6 83.2,17.5 C90.3,19 100,21 100,30.7 C100,39.3 93.6,45 82.1,45 C73.4,45 67.4,42.3 63.1,38.2 L69,30 Z" id="Path"></path>
                                <path d="M103,22.9 C103,9.7 113,0.7 125.9,0.7 C136.6,0.7 142.1,6.6 144.9,12.2 L135.4,16.7 C134,13.3 130.3,10.5 125.9,10.5 C119.2,10.5 114.3,15.9 114.3,22.9 C114.3,29.9 119.3,35.3 125.9,35.3 C130.3,35.3 134,32.5 135.4,29.1 L144.9,33.6 C142.1,39.1 136.5,45.1 125.9,45.1 C113.1,45.1 103,36.1 103,22.9 Z" id="Path"></path>
                                <path d="M170.5,0.8 C183.6,0.8 193.4,9.9 193.4,23 C193.4,36.1 183.6,45.2 170.5,45.2 C157.4,45.2 147.5,36.1 147.5,23 C147.5,9.9 157.3,0.8 170.5,0.8 Z M170.5,10.5 C163.4,10.5 158.8,15.9 158.8,22.9 C158.8,29.8 163.4,35.3 170.5,35.3 C177.6,35.3 182.1,29.8 182.1,22.9 C182.1,15.9 177.5,10.5 170.5,10.5 Z" id="Shape" fill-rule="nonzero"></path>
                                <path d="M198.9,1.5 L210.2,1.5 L210.2,26.6 C210.2,31.7 212.9,35.3 218.9,35.3 C224.8,35.3 227.5,31.6 227.5,26.6 L227.5,1.5 L238.8,1.5 L238.8,27 C238.8,37.7 232.7,45.2 218.9,45.2 C205.1,45.2 199,37.6 199,27.1 L199,1.5 L198.9,1.5 Z" id="Path"></path>
                                <polygon id="Path" points="257.5 18.4 257.5 44.3 246.4 44.3 246.4 1.4 257.8 1.4 275.2 26.1 275.2 1.4 286.3 1.4 286.3 44.3 275.6 44.3"></polygon>
                                <polygon id="Path" points="303.6 11.1 291.6 11.1 291.6 1.5 326.6 1.5 326.6 11.1 314.6 11.1 314.6 44.3 303.5 44.3 303.5 11.1"></polygon>
                            </g>
                            <g transform="translate(35.000000, 151.000000)" fill="#FFFFFF">
                                <path d="M0.5,1.2 L18.5,1.2 C32,1.2 41.7,9.3 41.7,22.6 C41.7,35.9 32,44.1 18.6,44.1 L0.5,44.1 L0.5,1.2 Z M18.5,34.5 C26,34.5 30.4,29 30.4,22.7 C30.4,16.1 26.4,10.9 18.6,10.9 L11.6,10.9 L11.6,34.5 L18.5,34.5 Z" id="Shape" fill-rule="nonzero"></path>
                                <polygon id="Path" points="47.2 1.2 58.3 1.2 58.3 44.1 47.2 44.1"></polygon>
                                <path d="M68.7,29.8 C71.8,32.9 76.5,35.5 82.4,35.5 C86.2,35.5 88.5,33.9 88.5,31.8 C88.5,29.4 85.7,28.4 81.2,27.4 C74.1,26 64.2,24.2 64.2,14 C64.2,6.8 70.3,0.6 81.3,0.6 C88.2,0.6 94.2,2.7 98.7,6.6 L92.7,14.5 C89.1,11.5 84.4,10.1 80.6,10.1 C76.9,10.1 75.5,11.6 75.5,13.4 C75.5,15.6 78.1,16.4 82.9,17.3 C90,18.8 99.7,20.8 99.7,30.5 C99.7,39.1 93.3,44.8 81.8,44.8 C73.1,44.8 67.1,42.1 62.8,38 L68.7,29.8 Z" id="Path"></path>
                                <path d="M102.7,22.7 C102.7,9.5 112.7,0.5 125.6,0.5 C136.3,0.5 141.8,6.4 144.6,12 L135.1,16.5 C133.7,13.1 130,10.3 125.6,10.3 C118.9,10.3 114,15.7 114,22.7 C114,29.7 119,35.1 125.6,35.1 C130,35.1 133.7,32.3 135.1,28.9 L144.6,33.4 C141.8,38.9 136.2,44.9 125.6,44.9 C112.8,44.9 102.7,35.9 102.7,22.7 Z" id="Path"></path>
                                <path d="M170.2,0.5 C183.3,0.5 193.1,9.6 193.1,22.7 C193.1,35.8 183.3,44.9 170.2,44.9 C157.1,44.9 147.2,35.8 147.2,22.7 C147.2,9.7 157.1,0.5 170.2,0.5 Z M170.2,10.3 C163.1,10.3 158.5,15.7 158.5,22.7 C158.5,29.6 163.1,35.1 170.2,35.1 C177.3,35.1 181.8,29.6 181.8,22.7 C181.8,15.7 177.2,10.3 170.2,10.3 Z" id="Shape" fill-rule="nonzero"></path>
                                <path d="M198.7,1.2 L210,1.2 L210,26.3 C210,31.4 212.7,35 218.7,35 C224.6,35 227.3,31.3 227.3,26.3 L227.3,1.2 L238.6,1.2 L238.6,26.7 C238.6,37.4 232.5,44.9 218.7,44.9 C204.9,44.9 198.8,37.3 198.8,26.8 L198.8,1.2 L198.7,1.2 Z" id="Path"></path>
                                <polygon id="Path" points="257.2 18.2 257.2 44.1 246.1 44.1 246.1 1.2 257.5 1.2 274.9 25.9 274.9 1.2 286 1.2 286 44.1 275.3 44.1"></polygon>
                                <polygon id="Path" points="303.3 10.9 291.3 10.9 291.3 1.3 326.3 1.3 326.3 10.9 314.3 10.9 314.3 44.1 303.2 44.1 303.2 10.9"></polygon>
                            </g>
                            <g transform="translate(199.000000, 206.000000)">
                                <circle id="Oval" fill="#FFCB08" cx="53.4" cy="54.2" r="53.3"></circle>
                                <g transform="translate(25.000000, 25.000000)" fill="#FFFFFF">
                                    <path d="M43.9,57.4 C43.4,57.4 42.8,57.4 42.3,57.3 C35.5,56.4 30.8,49.6 31.8,42.2 C32.3,38.7 34,35.6 36.6,33.4 C39.3,31.1 42.7,30.1 46.1,30.6 C49.5,31.1 52.4,33 54.4,35.9 C56.3,38.7 57.1,42.2 56.6,45.7 C56.1,49.2 54.4,52.3 51.8,54.5 C49.4,56.4 46.7,57.4 43.9,57.4 Z M44.4,38.4 C43.5,38.4 42.5,38.8 41.7,39.5 C40.6,40.4 39.9,41.8 39.7,43.3 C39.3,46.3 40.9,49 43.4,49.4 C44.5,49.5 45.6,49.2 46.6,48.4 C47.7,47.5 48.4,46.1 48.6,44.6 C48.8,43.1 48.5,41.6 47.7,40.4 C47,39.4 46,38.7 44.9,38.6 C44.7,38.4 44.5,38.4 44.4,38.4 Z" id="Shape" fill-rule="nonzero"></path>
                                    <path d="M10.7,52.9 C9.7,52.9 8.8,52.6 8,51.9 C6.4,50.4 6.2,47.9 7.7,46.3 L43.2,6.9 C44.7,5.3 47.2,5.1 48.8,6.6 C50.4,8.1 50.6,10.6 49.1,12.2 L13.6,51.6 C12.9,52.4 11.8,52.9 10.7,52.9 Z" id="Path"></path>
                                    <path d="M12.5,28 C12,28 11.4,28 10.9,27.9 C4.1,27 -0.6,20.2 0.4,12.8 C1.4,5.4 7.8,0.2 14.6,1.1 C21.4,2 26.1,8.8 25.1,16.2 C24.2,23 18.7,28 12.5,28 Z M13,9 C10.7,9 8.7,11.1 8.3,13.9 C7.9,16.9 9.5,19.6 12,20 C14.5,20.3 16.8,18.2 17.2,15.2 C17.6,12.2 16,9.5 13.5,9.1 C13.3,9 13.2,9 13,9 Z" id="Shape" fill-rule="nonzero"></path>
                                </g>
                            </g>
                            <g transform="translate(102.000000, 47.000000)">
                                <circle id="Oval" fill="#FFCB08" cx="30.9" cy="30.6" r="30.3"></circle>
                                <g transform="translate(24.000000, 14.000000)" fill="#FFFFFF">
                                    <path d="M5.3,21.9 L0.6,1.9 C0.5,1.4 0.9,0.9 1.4,0.8 L6.8,0.5 C7.6,0.5 8.3,1 8.4,1.8 L10.7,20.3 C10.8,21 10.3,21.7 9.7,21.8 L6.7,22.6 C6.1,22.9 5.5,22.5 5.3,21.9 Z" id="Path"></path>
                                    <circle id="Oval" cx="9.9" cy="29.4" r="3.2"></circle>
                                </g>
                            </g>
                            <circle id="Oval" fill="#FFCB08" cx="283.9" cy="83.5" r="6.3"></circle>
                            <g transform="translate(2.000000, 0.000000)" id="Path">
                                <polygon fill="#00D6BB" points="377.8 72.7 357.8 69.7 366.9 61.7"></polygon>
                                <polygon fill="#00D6BB" points="72.5 75.4 57.6 85.1 58.2 74.4"></polygon>
                                <polygon fill="#00D6BB" points="119.9 297.6 108.7 307 112 282.6"></polygon>
                                <polygon fill="#6C63FF" points="264.8 307 275.9 320.9 265.2 321.4"></polygon>
                                <polygon fill="#A9CAFF" points="21.6 235.6 0.6 247.1 14.4 247.1"></polygon>
                                <polygon fill="#6C63FF" points="188 20 180.1 0.6 172.4 13"></polygon>
                                <polygon fill="#A9CAFF" points="399.6 161.1 388.3 161.9 397.3 171"></polygon>
                                <polygon fill="#FDBE02" points="27.8 144.1 16.9 141.1 22.4 152.7"></polygon>
                            </g>
                        </g>
                    </g>
                </g>
            </g>
        </g>
    </g>
</svg>