<?xml version="1.0" encoding="UTF-8"?>
<svg width="512px" height="498px" viewBox="0 0 512 498" version="1.1" xmlns="http://www.w3.org/2000/svg" xmlns:xlink="http://www.w3.org/1999/xlink">
    <!-- Generator: Sketch 52.5 (67469) - http://www.bohemiancoding.com/sketch -->
    <title>new/doctor_consult</title>
    <desc>Created with Sketch.</desc>
    <defs>
        <rect id="path-1" x="0" y="0" width="512" height="498"></rect>
    </defs>
    <g id="Page-1" stroke="none" stroke-width="1" fill="none" fill-rule="evenodd">
        <g id="Unlimited-Doctor-Consult" transform="translate(-153.000000, -417.000000)">
            <g id="doctor_consult" transform="translate(153.000000, 417.000000)">
                <mask id="mask-2" fill="white">
                    <use xlink:href="#path-1"></use>
                </mask>
                <use id="Rectangle" fill="#FFFFFF" opacity="0.0111142113" xlink:href="#path-1"></use>
                <g id="Doc-Chat" mask="url(#mask-2)">
                    <g transform="translate(9.000000, -23.000000)" id="Group">
                        <g>
                            <g transform="translate(141.000000, 21.000000)">
                                <path d="M302.6,226.3 L302.6,245 L325.6,245 L325.6,226.4 L302.6,226.4 L302.6,226.3 Z M302.6,226.3 L302.6,245 L325.6,245 L325.6,226.4 L302.6,226.4 L302.6,226.3 Z M302.6,226.3 L302.6,245 L325.6,245 L325.6,226.4 L302.6,226.4 L302.6,226.3 Z M302.6,226.3 L302.6,245 L325.6,245 L325.6,226.4 L302.6,226.4 L302.6,226.3 Z M302.6,226.3 L302.6,245 L325.6,245 L325.6,226.4 L302.6,226.4 L302.6,226.3 Z M302.6,226.3 L302.6,245 L325.6,245 L325.6,226.4 L302.6,226.4 L302.6,226.3 Z M302.6,226.3 L302.6,245 L325.6,245 L325.6,226.4 L302.6,226.4 L302.6,226.3 Z M302.6,226.3 L302.6,245 L325.6,245 L325.6,226.4 L302.6,226.4 L302.6,226.3 Z M302.6,226.3 L302.6,245 L325.6,245 L325.6,226.4 L302.6,226.4 L302.6,226.3 Z M302.6,226.3 L302.6,245 L325.6,245 L325.6,226.4 L302.6,226.4 L302.6,226.3 Z M302.6,226.3 L302.6,245 L325.6,245 L325.6,226.4 L302.6,226.4 L302.6,226.3 Z M302.6,226.3 L302.6,245 L325.6,245 L325.6,226.4 L302.6,226.4 L302.6,226.3 Z M302.6,226.3 L302.6,245 L325.6,245 L325.6,226.4 L302.6,226.4 L302.6,226.3 Z M94.6,195.7 L94.6,214.3 L111.6,214.3 L111.6,195.7 L94.6,195.7 Z M94.6,195.7 L94.6,214.3 L111.6,214.3 L111.6,195.7 L94.6,195.7 Z M94.6,195.7 L94.6,214.3 L111.6,214.3 L111.6,195.7 L94.6,195.7 Z M94.6,195.7 L94.6,214.3 L111.6,214.3 L111.6,195.7 L94.6,195.7 Z M94.6,195.7 L94.6,214.3 L111.6,214.3 L111.6,195.7 L94.6,195.7 Z M94.6,195.7 L94.6,214.3 L111.6,214.3 L111.6,195.7 L94.6,195.7 Z M302.6,226.3 L302.6,245 L325.6,245 L325.6,226.4 L302.6,226.4 L302.6,226.3 Z M94.6,195.7 L94.6,214.3 L111.6,214.3 L111.6,195.7 L94.6,195.7 Z M94.6,195.7 L94.6,214.3 L111.6,214.3 L111.6,195.7 L94.6,195.7 Z M302.6,226.3 L302.6,245 L325.6,245 L325.6,226.4 L302.6,226.4 L302.6,226.3 Z M302.6,226.3 L302.6,245 L325.6,245 L325.6,226.4 L302.6,226.4 L302.6,226.3 Z M302,247.5 L302,250 L302.5,250 L302.5,247.5 L302,247.5 Z M94.6,195.7 L94.6,214.3 L111.6,214.3 L111.6,195.7 L94.6,195.7 Z M94.6,195.7 L94.6,214.3 L111.6,214.3 L111.6,195.7 L94.6,195.7 Z M302,247.5 L302,250 L302.5,250 L302.5,247.5 L302,247.5 Z M302.6,226.3 L302.6,245 L325.6,245 L325.6,226.4 L302.6,226.4 L302.6,226.3 Z M302.6,226.3 L302.6,245 L325.6,245 L325.6,226.4 L302.6,226.4 L302.6,226.3 Z M302,247.5 L302,250 L302.5,250 L302.5,247.5 L302,247.5 Z M94.6,195.7 L94.6,214.3 L111.6,214.3 L111.6,195.7 L94.6,195.7 Z M94.6,195.7 L94.6,214.3 L111.6,214.3 L111.6,195.7 L94.6,195.7 Z M302,247.5 L302,250 L302.5,250 L302.5,247.5 L302,247.5 Z M302.6,226.3 L302.6,245 L325.6,245 L325.6,226.4 L302.6,226.4 L302.6,226.3 Z M302.6,226.3 L302.6,245 L325.6,245 L325.6,226.4 L302.6,226.4 L302.6,226.3 Z M302,247.5 L302,250 L302.5,250 L302.5,247.5 L302,247.5 Z M94.6,195.7 L94.6,214.3 L111.6,214.3 L111.6,195.7 L94.6,195.7 Z M94.6,195.7 L94.6,214.3 L111.6,214.3 L111.6,195.7 L94.6,195.7 Z M302,247.5 L302,250 L302.5,250 L302.5,247.5 L302,247.5 Z M302.6,226.3 L302.6,245 L325.6,245 L325.6,226.4 L302.6,226.4 L302.6,226.3 Z M302.6,226.3 L302.6,245 L325.6,245 L325.6,226.4 L302.6,226.4 L302.6,226.3 Z M302,247.5 L302,250 L302.5,250 L302.5,247.5 L302,247.5 Z M94.6,195.7 L94.6,214.3 L111.6,214.3 L111.6,195.7 L94.6,195.7 Z M94.6,195.7 L94.6,214.3 L111.6,214.3 L111.6,195.7 L94.6,195.7 Z M302,247.5 L302,250 L302.5,250 L302.5,247.5 L302,247.5 Z M302.6,226.3 L302.6,245 L325.6,245 L325.6,226.4 L302.6,226.4 L302.6,226.3 Z M302.6,226.3 L302.6,245 L325.6,245 L325.6,226.4 L302.6,226.4 L302.6,226.3 Z M302,247.5 L302,250 L302.5,250 L302.5,247.5 L302,247.5 Z M94.6,195.7 L94.6,214.3 L111.6,214.3 L111.6,195.7 L94.6,195.7 Z M94.6,195.7 L94.6,214.3 L111.6,214.3 L111.6,195.7 L94.6,195.7 Z M302,247.5 L302,250 L302.5,250 L302.5,247.5 L302,247.5 Z M302.6,226.3 L302.6,245 L325.6,245 L325.6,226.4 L302.6,226.4 L302.6,226.3 Z M302.6,226.3 L302.6,245 L325.6,245 L325.6,226.4 L302.6,226.4 L302.6,226.3 Z M302,247.5 L302,250 L302.5,250 L302.5,247.5 L302,247.5 Z M94.6,195.7 L94.6,214.3 L111.6,214.3 L111.6,195.7 L94.6,195.7 Z M94.6,195.7 L94.6,214.3 L111.6,214.3 L111.6,195.7 L94.6,195.7 Z M302,247.5 L302,250 L302.5,250 L302.5,247.5 L302,247.5 Z M302.6,226.3 L302.6,245 L325.6,245 L325.6,226.4 L302.6,226.4 L302.6,226.3 Z M302.6,226.3 L302.6,245 L325.6,245 L325.6,226.4 L302.6,226.4 L302.6,226.3 Z M302,247.5 L302,250 L302.5,250 L302.5,247.5 L302,247.5 Z M94.6,195.7 L94.6,214.3 L111.6,214.3 L111.6,195.7 L94.6,195.7 Z M94.6,195.7 L94.6,214.3 L111.6,214.3 L111.6,195.7 L94.6,195.7 Z M302,247.5 L302,250 L302.5,250 L302.5,247.5 L302,247.5 Z M302.6,245 L325.6,245 L325.6,226.4 L302.6,226.4 L302.6,245 Z M200.8,170 L111.5,170 L111.5,35.2 L200.8,35.2 L200.8,170 Z M302.6,170 L213.3,170 L213.3,35.2 L302.6,35.2 L302.6,170 Z M302,263.8 L213.2,263.8 L213.2,179 L302.5,179 L302.5,221.4 L388.4,221.4 L388.4,226.4 L329.5,226.4 L329.5,245 L347.4,245 L347.4,250 L306,250 L306,271.1 L302,271.1 L302,263.8 Z M113.9,327.4 L203.5,327.4 L203.5,308.8 L154.9,308.8 L154.9,303.8 L266.4,303.8 L266.4,308.8 L207.5,308.8 L207.5,327.4 L225.4,327.4 L225.4,332.4 L184,332.4 L184,353.5 L180,353.5 L180,332.4 L113.9,332.4 L113.9,327.4 Z M29.1,303.8 L118.8,303.8 L118.8,285.2 L70.2,285.2 L70.2,280.2 L181.7,280.2 L181.7,285.2 L122.8,285.2 L122.8,303.8 L140.7,303.8 L140.7,308.8 L99.3,308.8 L99.3,329.9 L95.2,329.9 L95.2,308.8 L29.1,308.8 L29.1,303.8 Z M111.5,190.7 L111.5,178.9 L200.8,178.9 L200.8,263.7 L111.5,263.7 L111.5,219.3 L71,219.3 L71,240.4 L67,240.4 L67,219.3 L0.8,219.3 L0.8,214.3 L90.5,214.3 L90.5,195.7 L41.9,195.7 L41.9,190.7 L111.5,190.7 Z M111.5,195.7 L94.5,195.7 L94.5,214.3 L111.5,214.3 L111.5,195.7 Z M302.6,247.5 L302,247.5 L302,250 L302.5,250 L302.5,247.5 L302.6,247.5 Z M302.6,245 L325.6,245 L325.6,226.4 L302.6,226.4 L302.6,245 Z M302.6,226.3 L302.6,245 L325.6,245 L325.6,226.4 L302.6,226.4 L302.6,226.3 Z M302,247.5 L302,250 L302.5,250 L302.5,247.5 L302,247.5 Z M94.6,195.7 L94.6,214.3 L111.6,214.3 L111.6,195.7 L94.6,195.7 Z M94.6,195.7 L94.6,214.3 L111.6,214.3 L111.6,195.7 L94.6,195.7 Z M302,247.5 L302,250 L302.5,250 L302.5,247.5 L302,247.5 Z M302.6,226.3 L302.6,245 L325.6,245 L325.6,226.4 L302.6,226.4 L302.6,226.3 Z M302.6,226.3 L302.6,245 L325.6,245 L325.6,226.4 L302.6,226.4 L302.6,226.3 Z M302,247.5 L302,250 L302.5,250 L302.5,247.5 L302,247.5 Z M94.6,195.7 L94.6,214.3 L111.6,214.3 L111.6,195.7 L94.6,195.7 Z M94.6,195.7 L94.6,214.3 L111.6,214.3 L111.6,195.7 L94.6,195.7 Z M302,247.5 L302,250 L302.5,250 L302.5,247.5 L302,247.5 Z M302.6,226.3 L302.6,245 L325.6,245 L325.6,226.4 L302.6,226.4 L302.6,226.3 Z M302.6,226.3 L302.6,245 L325.6,245 L325.6,226.4 L302.6,226.4 L302.6,226.3 Z M302,247.5 L302,250 L302.5,250 L302.5,247.5 L302,247.5 Z M94.6,195.7 L94.6,214.3 L111.6,214.3 L111.6,195.7 L94.6,195.7 Z M94.6,195.7 L94.6,214.3 L111.6,214.3 L111.6,195.7 L94.6,195.7 Z M302,247.5 L302,250 L302.5,250 L302.5,247.5 L302,247.5 Z M302.6,226.3 L302.6,245 L325.6,245 L325.6,226.4 L302.6,226.4 L302.6,226.3 Z M302.6,226.3 L302.6,245 L325.6,245 L325.6,226.4 L302.6,226.4 L302.6,226.3 Z M302,247.5 L302,250 L302.5,250 L302.5,247.5 L302,247.5 Z M94.6,195.7 L94.6,214.3 L111.6,214.3 L111.6,195.7 L94.6,195.7 Z M94.6,195.7 L94.6,214.3 L111.6,214.3 L111.6,195.7 L94.6,195.7 Z M302,247.5 L302,250 L302.5,250 L302.5,247.5 L302,247.5 Z M302.6,226.3 L302.6,245 L325.6,245 L325.6,226.4 L302.6,226.4 L302.6,226.3 Z M302.6,226.3 L302.6,245 L325.6,245 L325.6,226.4 L302.6,226.4 L302.6,226.3 Z M302,247.5 L302,250 L302.5,250 L302.5,247.5 L302,247.5 Z M94.6,195.7 L94.6,214.3 L111.6,214.3 L111.6,195.7 L94.6,195.7 Z M94.6,195.7 L94.6,214.3 L111.6,214.3 L111.6,195.7 L94.6,195.7 Z M302,247.5 L302,250 L302.5,250 L302.5,247.5 L302,247.5 Z M302.6,226.3 L302.6,245 L325.6,245 L325.6,226.4 L302.6,226.4 L302.6,226.3 Z M302.6,226.3 L302.6,245 L325.6,245 L325.6,226.4 L302.6,226.4 L302.6,226.3 Z M302,247.5 L302,250 L302.5,250 L302.5,247.5 L302,247.5 Z M94.6,195.7 L94.6,214.3 L111.6,214.3 L111.6,195.7 L94.6,195.7 Z M94.6,195.7 L94.6,214.3 L111.6,214.3 L111.6,195.7 L94.6,195.7 Z M302,247.5 L302,250 L302.5,250 L302.5,247.5 L302,247.5 Z M302.6,226.3 L302.6,245 L325.6,245 L325.6,226.4 L302.6,226.4 L302.6,226.3 Z M302.6,226.3 L302.6,245 L325.6,245 L325.6,226.4 L302.6,226.4 L302.6,226.3 Z M302,247.5 L302,250 L302.5,250 L302.5,247.5 L302,247.5 Z M94.6,195.7 L94.6,214.3 L111.6,214.3 L111.6,195.7 L94.6,195.7 Z M94.6,195.7 L94.6,214.3 L111.6,214.3 L111.6,195.7 L94.6,195.7 Z M302,247.5 L302,250 L302.5,250 L302.5,247.5 L302,247.5 Z M302.6,226.3 L302.6,245 L325.6,245 L325.6,226.4 L302.6,226.4 L302.6,226.3 Z M302.6,226.3 L302.6,245 L325.6,245 L325.6,226.4 L302.6,226.4 L302.6,226.3 Z M94.6,195.7 L94.6,214.3 L111.6,214.3 L111.6,195.7 L94.6,195.7 Z M94.6,195.7 L94.6,214.3 L111.6,214.3 L111.6,195.7 L94.6,195.7 Z M302.6,226.3 L302.6,245 L325.6,245 L325.6,226.4 L302.6,226.4 L302.6,226.3 Z M94.6,195.7 L94.6,214.3 L111.6,214.3 L111.6,195.7 L94.6,195.7 Z M94.6,195.7 L94.6,214.3 L111.6,214.3 L111.6,195.7 L94.6,195.7 Z M94.6,195.7 L94.6,214.3 L111.6,214.3 L111.6,195.7 L94.6,195.7 Z M94.6,195.7 L94.6,214.3 L111.6,214.3 L111.6,195.7 L94.6,195.7 Z" id="Shape" fill="#EDF0F2" fill-rule="nonzero"></path>
                                <rect id="Rectangle" fill="#F7D7DF" x="212" y="327.5" width="1" height="2.5"></rect>
                                <g transform="translate(212.000000, 305.000000)">
                                    <path d="M27.6,1.3 L23.5,1.3" id="Path"></path>
                                    <rect id="Rectangle" fill="#F7D7DF" x="0" y="22.5" width="1" height="2.5"></rect>
                                    <path d="M27.6,20 L23.5,20" id="Path"></path>
                                    <rect id="Rectangle" fill="#F7D7DF" x="0" y="22.5" width="1" height="2.5"></rect>
                                </g>
                            </g>
                            <g transform="translate(71.000000, 208.000000)">
                                <path d="M83.1,136.1 C81.7,138.8 79.8,140.8 77.9,142.5 C75.9,144.2 73.8,145.6 71.6,146.7 C69.4,147.8 67,148.7 64.5,149.3 C62,149.9 59.3,150.2 56.3,149.8 L56.2,149.8 C56.1,149.8 56,149.7 56,149.5 C56,149.4 56.1,149.4 56.1,149.3 L59.4,147.5 L62.7,145.7 L69.4,142.2 L76.2,138.8 L79.6,137.1 L83,135.5 C83.1,135.5 83.2,135.5 83.3,135.6 C83.3,135.7 83.3,135.7 83.3,135.8 L83.1,136.1 Z" id="Path" fill="#7068AA"></path>
                                <polygon id="Path" fill="#CFE1FF" points="0.6 131.7 0.1 125.3 212.7 93.4 273.5 106.1 271.6 110.1 50.2 141.2 1.3 134"></polygon>
                                <polygon id="Path" fill="#41347F" points="273.5 106.1 273.5 112.8 50 144.1 0.6 135.2 0.6 131.7 50 138.5"></polygon>
                                <path d="M188.4,43.9 C188.4,43.9 192.8,55.5 193,58.8 C193.1,62 206.9,65.2 206.9,65.2 C206.9,65.2 207.4,57.3 206.9,56.1 C206.5,54.8 188.4,43.9 188.4,43.9 Z" id="Path" fill="#FCCAA7"></path>
                                <ellipse id="Oval" fill="#4B4BAA" transform="translate(169.513720, 39.310940) rotate(-19.565568) translate(-169.513720, -39.310940) " cx="169.51372" cy="39.31094" rx="2.50010912" ry="4.60020079"></ellipse>
                                <path d="M195.8,38.1 C186.3,52.8 186.1,57.2 180.5,53.1 C174.3,48.7 171.7,42.8 171.1,39 C170.5,35.2 165.2,34.8 165.2,30.6 C165.2,14.2 164.4,16.8 165.3,17 C166.2,17.2 176.4,30.6 180.5,31.5 C184.6,32.4 195.8,38.1 195.8,38.1 Z" id="Path" fill="#FFD2B3"></path>
                                <path d="M141,57.9 L131.2,58.8 C130.7,58.9 130.3,59.4 130.5,59.9 L136.5,79.6 C136.6,80 137,80.2 137.4,80.2 L147.6,79.2 C148.1,79.2 148.5,78.6 148.3,78.1 L141.9,58.5 C141.8,58.1 141.4,57.9 141,57.9 Z" id="Path" stroke="#362465" fill="#CFE1FF"></path>
                                <path d="M182.6,95.5 C182.6,95.5 167.2,115.6 162.7,118.6 C158.2,121.6 153.6,123.5 149.3,113.6 C145,103.7 142.5,95.1 140.6,90.4 C138.6,85.7 136.9,85.1 134.6,82.9 C132.3,80.7 130.8,78.9 130.8,74.6 C130.8,72.2 131,69.7 131.2,68 C131.3,67.4 132.1,67.3 132.3,67.9 C132.7,69.2 133.2,70.8 133.3,72.1 C133.5,74.7 135.3,77.4 136.3,76.7 C137.3,76 134.9,72.3 134.9,71.7 C134.9,70 138.6,72.3 139.9,75.9 C141,79 143,79.6 143.7,81.9 C144.4,84.1 146.6,92.7 150.5,99.1 C154.4,105.5 155.4,108.5 157.9,105.6 C160.4,102.7 172.7,85.3 172.7,85.3 L182.6,95.5 Z" id="Path" fill="#FFD2B3"></path>
                                <path d="M234.3,94.2 C236.9,81.8 244.4,70.3 218.7,64.5 C193,58.7 188.3,56.1 183.3,63.1 C178.8,69.3 172.5,83.2 171.1,86.3 C170.9,86.7 171.1,87.1 171.4,87.3 C173.3,88.4 178.9,92 179.6,95.4 C180.4,99.5 178,102.1 181.6,106.7 C185.2,111.3 187.8,114.7 187.2,124.5 C186.6,134.3 186.1,135.3 186.1,135.3 L191.6,146.3 L230.5,147.6 C230.5,147.6 230.5,138.4 229.8,130.7 C229.1,123 227.9,118.5 229.1,111.7 C230.4,104.9 234.3,94.2 234.3,94.2 Z" id="Path" fill="#FF6C81"></path>
                                <polygon id="Path" fill="#FFD2B3" points="140.4 244.6 140.4 257 128.6 257.7 126.9 247"></polygon>
                                <path d="M115,272.5 C121.8,264.1 127.8,257.8 128,255.5 C128,255.2 128.1,255 128.1,254.8 C132.2,254.1 136.3,253.3 140.4,252.6 C142.6,256.4 147,263.5 145.9,265.9 C144.7,268.5 138,270.6 133.3,271.2 C128.1,271.9 127.9,274.9 123.2,277 C120.1,278.3 104.3,283 104.9,279.6 C105.3,277.4 114.9,272.6 115,272.5 Z" id="Path" fill="#082F4C"></path>
                                <polygon id="Path" fill="#FFD2B3" points="117.7 227.1 113.6 238.1 102.9 234.8 104.9 224.8"></polygon>
                                <path d="M84.5,242 C93.8,237.8 101.6,235 102.8,233.1 C102.9,232.9 103.1,232.7 103.2,232.5 C107,233.7 110.8,234.7 114.5,235.9 C114.8,240 115.5,248 113.6,249.5 C111.5,251.2 104.9,250.1 100.7,248.6 C96,247 94.6,249.5 89.7,249.2 C86.5,249 71.1,246.2 73.1,243.7 C74.2,242.1 84.4,242.1 84.5,242 Z" id="Path" fill="#082F4C"></path>
                                <path d="M189.5,149 C189.5,149 169.6,140.8 159.4,137.8 C149.2,134.8 135.2,131.1 131,142.4 C126.8,153.7 104.4,226.1 104.4,226.1 L116.6,230.3 L134.6,184.4 L181.2,168.8 L192,150.5 L189.5,149 Z" id="Path" fill="#252577"></path>
                                <polygon id="Path" fill="#252577" points="241.4 186 248.8 293.7 236 293.4 235.1 186"></polygon>
                                <polygon id="Path" fill="#252577" points="217.7 190.2 221.8 296.9 211.8 296.3 211.1 191.1"></polygon>
                                <polygon id="Path" fill="#252577" points="191.8 191.5 199.1 297.3 188.7 299 186.5 191.5"></polygon>
                                <polygon id="Path" fill="#252577" points="167 191.3 168.3 304.2 158.3 305 161.3 191.7"></polygon>
                                <path d="M155.8,189.4 C146.8,199.1 167.7,205.2 215.3,199.6 C262.9,194 247.3,181.1 247.3,181.1 L155.8,189.4 Z" id="Path" fill="#13135E"></path>
                                <path d="M154.4,190.8 C154.8,195.7 176.3,197.9 202.3,195.8 C228.4,193.7 249.2,188.1 248.8,183.2 C248.7,181.4 245.6,180 240.6,179 C232,177.3 217.3,176.9 200.9,178.2 C174.9,180.3 154.1,185.9 154.4,190.8 Z" id="Path" fill="#C5D6EF"></path>
                                <path d="M172.4,186 C176.3,187 172.4,186 181.7,188.2 C192,190.6 214.9,191.5 229.3,184.5 C240.8,179 241.2,167.9 238.7,160.5 C236.2,153.1 230.4,139.7 230.4,139.7 C230.4,139.7 219.3,142.5 213.6,141.9 C207.9,141.3 194.4,141.1 186.1,135.2 C186.1,135.2 178.8,151.2 175.9,151.7 C173,152.2 137.9,151.9 133.1,153 C128.3,154.1 122.2,159.9 123.6,176.7 C125,193.5 126.2,250.7 126.2,250.7 L142.2,250.7 C142.2,250.7 147.3,236.5 146.9,222 C146.5,207.5 147.1,197.7 148,189 C148.9,180.3 148.7,178.7 158.1,181.1 C165.8,182.9 164.2,184 172.4,186 Z" id="Path" fill="#13135E"></path>
                                <path d="M180.3,33.1 L167.1,40.1" id="Path" stroke="#222277" stroke-linecap="round"></path>
                                <path d="M229.9,79.5 C231.7,67.4 235.7,51.9 225,43.4 C214.3,34.9 208.8,27.7 208.8,19.8 C208.8,11.9 201.9,0.8 185.9,0.5 C169.9,0.2 165.5,10.6 165.2,17.1 C164.9,23.6 164.4,28.4 173.4,31.7 C182.4,35 177.6,35.9 181.1,39.9 C184.6,43.9 187.1,45.5 193.8,50.8 C200.5,56.1 206.4,56.8 205.1,68.9 C203.8,81 212.2,92 219.4,92.3 C226.6,92.6 229.1,85.5 229.9,79.5 Z" id="Path" fill="#222277"></path>
                                <path d="M101.9,105.6 C102.8,105.6 103.6,106.4 103.6,107.3 L103.6,120.7 C103.6,122.2 102.3,123.4 100.6,123.4 L91.3,123.4 C89.6,123.4 88.3,122.2 88.3,120.7 L88.3,107.3 C88.3,106.4 89.1,105.6 90,105.6 L101.9,105.6 Z" id="Path" fill="#41347F"></path>
                                <path d="M101.6,109.3 L106.9,109.3 C107.6,109.3 108.2,109.9 108.2,110.6 C108.2,114.2 105.3,117.1 101.7,117.1" id="Path" stroke="#41347F" stroke-width="2"></path>
                                <path d="M95.6,103.6 C95.8,102.2 95.9,100.8 95.7,99.6 C95.6,99 95.4,98.4 95.2,97.9 C95.1,97.6 94.9,97.4 94.8,97.2 C94.6,96.8 94.4,96.4 94.2,96.1 C93.6,94.5 93.9,93 94.2,91.5 C94.6,90.1 95.2,88.8 96.1,87.6 C96,89 95.9,90.4 95.8,91.7 C95.8,93 95.8,94.3 96.2,95.4 C96.3,95.7 96.4,95.9 96.5,96.1 C96.7,96.4 96.9,96.8 97,97.2 C97.3,98 97.4,98.8 97.3,99.6 C97.1,101.1 96.6,102.5 95.6,103.6 Z" id="Path" fill="#CFE1FF"></path>
                                <path d="M92.7,105 C92.8,104.2 92.8,103.4 92.6,102.6 C92.5,102.2 92.4,101.9 92.2,101.6 C92.1,101.4 92,101.3 91.9,101.2 C91.8,101 91.6,100.8 91.5,100.6 C91.1,99.7 91.1,98.8 91.2,98 C91.3,97.1 91.6,96.3 92,95.6 C92,96.4 92,97.2 92,98 C92,98.8 92.1,99.6 92.4,100.2 C92.5,100.4 92.6,100.5 92.6,100.6 C92.7,100.8 92.9,101 93,101.2 C93.2,101.6 93.3,102.1 93.3,102.5 C93.4,103.5 93.2,104.4 92.7,105 Z" id="Path" fill="#CFE1FF"></path>
                                <path d="M99,98.5 C98.4,97.9 98.1,97 98,96.1 C97.9,95.6 98,95.2 98.2,94.7 C98.3,94.5 98.4,94.3 98.5,94.1 C98.6,94 98.6,93.8 98.7,93.6 C98.9,93 98.9,92.2 98.8,91.4 C98.7,90.6 98.6,89.8 98.5,89 C99,89.7 99.4,90.5 99.6,91.3 C99.8,92.1 100,93 99.7,94 C99.6,94.2 99.5,94.5 99.4,94.7 C99.3,94.9 99.2,95 99.2,95.2 C99.1,95.5 99,95.9 98.9,96.2 C98.8,96.9 98.9,97.7 99,98.5 Z" id="Path" fill="#CFE1FF"></path>
                            </g>
                            <g transform="translate(391.000000, 0.000000)">
                                <path d="M22.8,0.6 L22.8,97.9" id="Path" stroke="#5E5EB5" stroke-width="2" stroke-linecap="round"></path>
                                <circle id="Oval" fill="#FCC600" cx="22.8" cy="113.3" r="5.6"></circle>
                                <path d="M18.7,95.9 L26.8,95.9 L26.8,91.9 C26.8,89.7 25,87.9 22.8,87.9 C20.6,87.9 18.8,89.7 18.8,91.9 L18.7,95.9 Z" id="Path" fill="#3D3D7F"></path>
                                <path d="M0.5,114.3 L45.1,114.3 C45.1,102 35.1,92 22.8,92 C10.5,92 0.5,102 0.5,114.3 Z" id="Path" fill="#5E5EB5"></path>
                            </g>
                            <g transform="translate(439.000000, 17.000000)">
                                <path d="M22.5,0 L22.5,104" id="Path" stroke="#5E5EB5" stroke-width="2" stroke-linecap="round"></path>
                                <ellipse id="Oval" fill="#FCC600" cx="22.5" cy="120" rx="5.5" ry="6"></ellipse>
                                <path d="M19,102 L27,102 L27,97.5 C27,95.025 25.2222222,93 23.0493827,93 C20.8765432,93 19.0987654,95.025 19.0987654,97.5 L19,102 Z" id="Path" fill="#3D3D7F"></path>
                                <path d="M0,122 L45,122 C45,108.762773 34.9103139,98.0008002 22.5,98.0008002 C10.0896861,97.8931804 0,108.655153 0,122 Z" id="Path" fill="#5E5EB5"></path>
                            </g>
                            <g transform="translate(0.000000, 361.000000)" id="Path">
                                <path d="M37.3,39.7 C37.9,39.7 38.4,39.6 39,39.4 C42,38.5 43.6,35.3 42.7,32.3 C42.3,31.1 32.9,1.7 10.1,0.3 C6.9,0.1 4.3,2.5 4.1,5.6 C3.9,8.7 6.3,11.4 9.4,11.6 C15.4,12 20.9,15.9 25.8,23.3 C29.9,29.4 31.8,35.6 31.8,35.7 C32.7,38.1 34.9,39.7 37.3,39.7 Z" fill="#41347F"></path>
                                <path d="M27.2,45 C27.8,45 28.4,44.8 29,44.5 C30.5,43.5 30.9,41.5 29.9,39.9 C26.5,34.6 16.3,26 2.5,30.9 C0.8,31.5 -0.1,33.4 0.5,35.1 C1.1,36.8 3,37.7 4.7,37.1 C17.1,32.6 24.1,43 24.4,43.5 C25.1,44.5 26.1,45 27.2,45 Z" fill="#41347E"></path>
                                <path d="M34.8,51.9 C34.8,51.9 47,21.8 11.4,5.4" stroke="#CFE1FF" stroke-linecap="round" stroke-linejoin="round"></path>
                                <path d="M32.1,52.8 C32.1,52.8 25.2,26.3 3.6,34" stroke="#CFE1FF" stroke-linecap="round" stroke-linejoin="round"></path>
                                <path d="M29.3,68 L31.9,68 C40.7,68 47.8,60.9 47.8,52.1 C47.8,50.9 46.8,49.8 45.5,49.8 L15.5,49.8 C14.3,49.8 13.2,50.8 13.2,52.1 C13.3,60.9 20.5,68 29.3,68 Z" fill="#5E5EB5"></path>
                            </g>
                        </g>
                        <g transform="translate(132.000000, 240.000000)" stroke-linecap="round" stroke-linejoin="round">
                            <path d="M67.6,37.9 C67.6,37.9 67.4,38 67,38.3" id="Path" stroke="#BEBEFC"></path>
                            <path d="M65.7,39.1 C64.7,39.8 63.1,40.8 61.3,42" id="Path" stroke="#BEBEFC" stroke-dasharray="3.0379,3.0379,3.0379,3.0379"></path>
                            <path d="M60.7,42.4 C50.9,48.5 32.9,58.4 21.7,56.5 C-10.3,51.1 15.3,15.5 20.2,26.6 C29.8,48.1 -5.6,34 2.1,18.8 C8.1,6.9 13.4,2.5 15.8,1" id="Path" stroke="#BEBEFC" stroke-dasharray="3.0379,3.0379,3.0379,3.0379,3.0379,3.0379"></path>
                            <path d="M16.4,0.7 C16.8,0.5 17.1,0.4 17.1,0.4" id="Path" stroke="#BEBEFC"></path>
                        </g>
                        <g transform="translate(81.000000, 110.000000)">
                            <path d="M124.3,128.6 L96.6,129 L84.7,129.2 L80.9,129.3 L56.9,129.6 L56.8,129.6 C46.9,129.6 37.5,127.1 29.3,122.5 C28.8,122.2 28.4,121.9 27.9,121.8 C19.9,117 13.1,110.4 8.2,102.5 C3.8,95.2 1,86.8 0.3,77.8 C-1.5,52.6 13.4,30.7 34.9,21.9 C35.6,21.5 36.4,21.2 37.2,21.1 C39.5,20.4 41.8,19.6 44.3,19 C45.4,18.7 46.6,18.5 47.8,18.3 C51,17.8 54.2,17.6 57.5,17.6 C59.4,17.6 61.3,17.8 63,18.1 C64.4,18.3 65.8,18.6 67.2,18.8 C69.6,19.4 72.1,19.9 74.5,20.9 C77,21.7 79.4,22.9 81.8,24.1 C82.9,24.8 84.1,25.3 85.3,26.1 C87.4,27.3 89.2,28.7 91.1,30.2 C103.8,40.4 112,55.9 112.2,73.1 C112.4,85.6 108.4,97.3 101.7,106.7 C100.5,108.5 101,110.9 102.7,112 L125.4,125.8 C126.6,126.2 126.1,128.5 124.3,128.6 Z" id="Path" fill="#CFE1FF"></path>
                            <g transform="translate(8.000000, 0.000000)">
                                <path d="M44.3,6.7 C44.3,6.7 53.1,-6 65.5,5.5 C77.9,17 88.9,32.1 81.5,42.4 C74,52.7 76.8,52.2 81.7,63 C86.6,73.8 84.2,72.6 80.4,81.8 C76.6,90.9 68.8,95.4 68.3,99.5 C67.6,103.5 61.9,107.3 50.6,101.5 C39.3,95.7 30.6,91.4 22.2,95.8 C13.8,100.2 6,99.8 5.6,91.6 C5.1,83.3 1.7,84.4 7.1,75.8 C12.5,67.2 20.4,64.5 18.2,55.2 C15.9,45.9 11.6,45.9 16.7,35.4 C21.8,24.9 26.3,29.6 27.1,20.3 C28.1,8.4 42.1,6.1 44.3,6.7 Z" id="Path" fill="#222277"></path>
                                <path d="M89.2,102.2 L88.5,128.9 L76.6,129.1 L72.8,129.2 L48.8,129.5 L48.7,129.5 C38.8,129.5 29.4,127 21.2,122.4 C20.7,122.1 20.3,121.8 19.8,121.7 C11.8,116.9 5,110.3 0.1,102.4 L0.4,99 C0.8,94.4 2.4,90.2 4.8,86.5 C9.7,79.4 18.1,74.2 28.2,72.5 C28.9,72.3 29.8,72.2 30.6,72.1 C30.9,72.1 31.2,72 31.3,72 C31.9,71.9 32.4,71.9 33,71.9 L49.7,71.1 C50.4,71.1 51.1,71 51.8,71 C52.1,71 52.4,71 52.6,71 C54.7,71 56.8,71.3 58.9,71.6 C59.1,71.6 59.3,71.7 59.5,71.7 C67.6,73.1 74.9,76.8 80.1,81.9 C86,87.3 89.4,94.4 89.2,102.2 Z" id="Path" fill="#00D6BB"></path>
                                <path d="M36.1,36 C36.1,36 35.6,60.4 32.5,67.3 C29.3,74.1 28.3,86.2 28.3,86.2 L56.9,106.8 L64.2,92.2 L52.7,70.7 L52.7,60.4 L36.1,36 Z" id="Path" fill="#FFD2B3"></path>
                                <path d="M30.6,72.1 C30.6,72.1 56.2,86.6 56.7,101.5 C56.7,101.5 64,92.6 52.8,70.9 C52.1,69.5 57.7,71.2 59.1,71.6 C63.9,72.6 68.3,83.3 68.3,83.3 L67.2,101.7 C67.2,101.7 66.7,116.7 66,118.1 C65.3,119.4 62.5,126 56.5,124.4 C50.5,122.8 52.2,126 44.2,121.8 C36.2,117.6 33.8,116.8 33.8,116.8 L23.7,109.9 C23.7,109.9 20.9,105.4 19.9,99.1 C19,92.8 18.5,93.3 19.9,88.8 C21.5,84.2 30.6,72.1 30.6,72.1 Z" id="Path" fill="#00D6BB"></path>
                                <path d="M35.8,49.7 C35.8,49.7 41.3,68.5 52.7,69.4 L52.7,58.6 L35.8,49.7 Z" id="Path" fill="#EFBEA3"></path>
                                <ellipse id="Oval" fill="#FFD2B3" transform="translate(51.596230, 35.897590) rotate(-6.424979) translate(-51.596230, -35.897590) " cx="51.59623" cy="35.89759" rx="19.2996265" ry="26.2994911"></ellipse>
                                <g transform="translate(19.000000, 7.000000)" fill="#222277" id="Path">
                                    <path d="M58,29 C58.2,33 56.1,38.7 55.9,37 C55.2,39.7 53.8,37.2 53.4,36 C53.6,36.7 55.9,36.7 53.3,32.1 C52.5,30.6 52.4,29.5 51.8,28 C51.2,26.7 50.2,25.1 47.8,22.9 C45.6,21 44.1,19.1 43,17.2 C42.2,15.6 40.6,14.4 38.7,14.2 C36.8,13.9 34.9,14.5 33.7,17.9 C31,25 25.9,22.8 22.5,27.6 C21.6,28.9 20.4,30.7 19.4,32.5 C18.7,33.7 18.3,34.9 17.9,36.3 C17.5,37.4 17.4,38.5 17.4,39.6 C17.3,40.2 17.2,40.6 17.1,41.2 C16.3,45.8 14.6,49.8 11.3,50.9 C4,53.5 0.8,33.7 1,32.9 C1.2,32.1 12.8,8.5 12.8,8.5 L27.5,0.4 L38.9,0.9 C39.5,0.4 39.7,0.2 39.8,0.4 C40.4,1.2 44.9,1.5 47.9,4 C50.8,6.3 51,7.3 53.3,13.1 C54.1,13.7 55.1,14.3 55.7,15.2 C56.9,16.7 57.8,17.8 58,18.9 C58.7,21 58.1,22.6 57.3,25.8 C57.8,26.8 58,27.9 58,29 Z"></path>
                                    <path d="M17.9,36.3 C17.8,37.3 17.6,38.5 17.4,39.6 C17.4,38.5 17.6,37.4 17.9,36.3 Z"></path>
                                </g>
                                <path d="M21.1,122.4 C20.6,122.1 20.2,121.8 19.7,121.7 L19.1,109.4 C19.1,109.1 19.5,109.1 19.5,109.3 L19.7,113.6 C19.8,116.2 20.2,118.9 20.8,121.4 C21,121.6 21.1,122 21.1,122.4 Z" id="Path" fill="#02C6A5"></path>
                                <path d="M72.8,129.1 C74,124.7 74.9,120 74.9,115.6 C74.9,114.8 74.9,113.8 74.8,113 L76.7,129.1 L72.8,129.1 Z" id="Path" fill="#02C6A5"></path>
                                <path d="M36.5,46.5 C36.4,47.1 36.3,47.5 36.2,48.1 C36.4,47.7 36.5,47.3 36.5,46.5 Z" id="Shape" fill="#222277" fill-rule="nonzero"></path>
                                <path d="M72.5,43 C72.5,42.9 72.5,42.9 72.5,43 C72.3,42.3 72.4,42.5 72.5,43 Z" id="Path" fill="#222277"></path>
                                <path d="M28.6,87.5 C28.2,87.5 27.9,87.2 27.9,86.8 L25.9,78.7 C25.5,77.2 25.9,75.4 26.9,73.9 C27.8,72.4 29.2,71.5 30.6,71.3 C31.1,71.2 31.4,71.5 31.5,72 C31.6,72.5 31.3,72.8 30.8,72.9 C29.9,73.1 28.8,73.7 28.2,74.9 C27.5,76 27.2,77.3 27.5,78.4 L29.5,86.5 C29.6,87 29.3,87.3 28.8,87.4 C28.8,87.4 28.7,87.5 28.6,87.5 Z" id="Path" fill="#FFFFFF"></path>
                                <path d="M30,109 C29.3,109 28.3,108.7 27.7,108.3 C26.5,107.6 25.6,106.2 25.5,104.7 L24.7,91.3 C24.5,89.1 26,87.2 28.2,86.5 L29.9,86 C32.1,85.3 34.4,86.6 35.3,88.6 L40.7,101 C41.3,102.3 41.3,103.7 40.5,105 C39.8,106.2 38.6,107.1 37.2,107.3 L36.2,107.5 C35.7,107.6 35.4,107.2 35.3,106.8 C35.2,106.3 35.6,106 36,105.9 L37,105.7 C37.8,105.5 38.7,105 39.1,104.2 C39.6,103.5 39.6,102.4 39.2,101.7 L33.8,89.4 C33.1,88.1 31.7,87.3 30.3,87.7 L28.6,88.2 C27.2,88.6 26.3,89.9 26.4,91.3 L27.2,104.7 C27.3,105.6 27.8,106.6 28.6,107 C29.3,107.6 30.5,107.7 31.3,107.2 C31.8,107 32.1,107.2 32.3,107.7 C32.5,108.2 32.3,108.5 31.8,108.7 C31.2,109 30.6,109 30,109 Z" id="Path" fill="#FFFFFF"></path>
                                <path d="M25.8,98.5 C25.2,98.5 24.9,98 24.9,97.6 L24.4,91.4 C24.2,89.1 25.7,87.1 27.9,86.5 L29.6,86 C31.9,85.3 34.3,86.6 35.2,88.7 L37.6,94.4 C37.9,95 37.6,95.5 37,95.7 C36.4,96 35.9,95.7 35.7,95.1 L33.3,89.4 C32.7,88.2 31.3,87.4 30,87.8 L28.3,88.3 C27.1,88.7 26.2,89.8 26.2,91.1 L26.7,97.3 C26.8,97.9 26.4,98.4 25.8,98.5 C25.9,98.5 25.8,98.5 25.8,98.5 Z" id="Path" fill="#2168F3"></path>
                                <circle id="Oval" fill="#2168F3" cx="31" cy="108" r="1.3"></circle>
                                <circle id="Oval" fill="#2168F3" cx="36.3" cy="106.8" r="1.3"></circle>
                                <path d="M64.1,91.3 C63.7,91.3 63.4,91 63.4,90.6 L60.3,75.2 C59.6,73.3 58.1,71.9 56.2,71.7 L52.6,71.2 C52.1,71.1 51.9,70.7 51.9,70.4 C51.9,70.1 52.4,69.7 52.7,69.7 L56.3,70.2 C58.8,70.6 61.1,72.4 61.8,74.9 L61.8,75 L64.9,90.4 C65,90.9 64.7,91.2 64.1,91.3 C64.3,91.3 64.2,91.3 64.1,91.3 Z" id="Path" fill="#FFFFFF"></path>
                                <g transform="translate(61.000000, 89.000000)">
                                    <circle id="Oval" fill="#2168F3" cx="3.8" cy="4.5" r="2.9"></circle>
                                    <path d="M6.9,3 C6.3,1.9 5.2,1 3.9,0.9 C3.8,0.9 3.8,0.9 3.7,0.9 C3.1,0.9 2.8,1 2.3,1.2 C2.2,1.2 2.2,1.3 2.1,1.3 C1,2 0.1,3.1 0.1,4.4 C0.1,5.3 0.6,6.3 1.1,6.8 C1.8,7.5 2.6,7.7 3.5,7.7 C4.7,7.7 5.8,7 6.4,6 C6.8,5.4 7,4.9 7,4.1 C7.3,3.9 7.2,3.4 6.9,3 Z M3.8,6.7 C3.1,6.7 2.4,6.3 1.9,5.8 C1.6,5.4 1.4,5.1 1.4,4.5 C1.4,3.7 2,2.8 2.6,2.4 C2.7,2.4 2.7,2.3 2.8,2.3 C3.1,2.2 3.4,2.1 3.5,2.1 C4.7,2.1 5.8,3 5.8,4.4 C5.9,5.7 5,6.7 3.8,6.7 Z" id="Shape" fill="#FFFFFF" fill-rule="nonzero"></path>
                                </g>
                            </g>
                        </g>
                    </g>
                </g>
            </g>
        </g>
    </g>
</svg>