<?xml version="1.0" encoding="UTF-8"?>
<svg width="148px" height="147px" viewBox="0 0 148 147" version="1.1" xmlns="http://www.w3.org/2000/svg" xmlns:xlink="http://www.w3.org/1999/xlink">
    <!-- Generator: Sketch 52.5 (67469) - http://www.bohemiancoding.com/sketch -->
    <title>xxxhdpi/flower_pot</title>
    <desc>Created with Sketch.</desc>
    <defs>
        <rect id="path-1" x="0" y="0" width="148" height="148"></rect>
    </defs>
    <g id="Page-1" stroke="none" stroke-width="1" fill="none" fill-rule="evenodd">
        <g id="Unlimited-Gym-Copy" transform="translate(-1133.000000, -2239.000000)">
            <g id="Group-3-Copy" transform="translate(736.000000, 1945.000000)">
                <g id="flower_pot" transform="translate(397.000000, 294.000000)">
                    <mask id="mask-2" fill="white">
                        <use xlink:href="#path-1"></use>
                    </mask>
                    <use id="Rectangle" fill="#FFFFFF" opacity="0.011672247" xlink:href="#path-1"></use>
                    <g id="Group" mask="url(#mask-2)">
                        <g transform="translate(54.000000, 79.000000)">
                            <g transform="translate(52.000000, 40.000000)">
                                <path d="M11.275,16.7354167 C11.275,16.7354167 20.075,7.76354167 9.625,0.151041667 C9.625,0.151041667 1.375,10.4822917 11.275,16.7354167 Z" id="Path" fill="#3AA38F"></path>
                                <path d="M10.45,17.2791667 C10.45,17.2791667 -1.65,17.2791667 0.825,5.04479167 C0.825,5.04479167 13.475,6.40416667 10.45,17.2791667 Z" id="Path" fill="#4DC7B2" opacity="0.88"></path>
                                <path d="M11.825,16.7354167 C11.825,16.7354167 23.925,16.7354167 21.45,4.50104167 C21.45,4.22916667 8.8,5.58854167 11.825,16.7354167 Z" id="Path" fill="#4DC7B2" opacity="0.88"></path>
                                <path d="M2.475,15.6479167 L19.8,15.6479167 C20.35,15.6479167 20.625,16.1916667 20.625,16.7354167 L17.875,28.4260417 C17.875,28.6979167 17.6,28.9697917 17.05,28.9697917 L5.5,28.9697917 C5.225,28.9697917 4.95,28.6979167 4.675,28.4260417 L1.65,16.7354167 C1.65,16.1916667 1.925,15.6479167 2.475,15.6479167 Z" id="Path" fill="#F4C273"></path>
                            </g>
                            <g>
                                <path d="M26.5017544,39.8309717 C26.5017544,39.8309717 47.7969925,18.9540486 22.5789474,0.549392713 C22.5789474,0.549392713 2.40451128,24.7226721 26.5017544,39.8309717 Z" id="Path" fill="#3AA38F"></path>
                                <path d="M23.9799499,41.2044534 C23.9799499,41.2044534 -4.60050125,41.2044534 1.28370927,12.361336 C1.28370927,12.361336 31.5453634,15.382996 23.9799499,41.2044534 Z" id="Path" fill="#4DC7B2" opacity="0.88"></path>
                                <path d="M27.6225564,39.5562753 C27.6225564,39.5562753 56.7634085,39.5562753 50.5989975,10.4384615 C50.5989975,10.4384615 20.3373434,13.4601215 27.6225564,39.5562753 Z" id="Path" fill="#4DC7B2" opacity="0.88"></path>
                                <path d="M5.48671679,37.3587045 L46.956391,37.3587045 C48.077193,37.3587045 49.197995,38.4574899 48.9177945,39.5562753 L42.473183,67.3006073 C42.1929825,68.1246964 41.6325815,68.6740891 40.5117794,68.6740891 L12.4917293,68.6740891 C11.6511278,68.6740891 10.8105263,68.1246964 10.5303258,67.3006073 L3.52531328,39.5562753 C3.52531328,38.4574899 4.36591479,37.3587045 5.48671679,37.3587045 Z" id="Path" fill="#F4C273"></path>
                            </g>
                        </g>
                    </g>
                </g>
            </g>
        </g>
    </g>
</svg>