<?xml version="1.0" encoding="UTF-8"?>
<svg width="1141px" height="897px" viewBox="0 0 1141 897" version="1.1" xmlns="http://www.w3.org/2000/svg" xmlns:xlink="http://www.w3.org/1999/xlink">
    <!-- Generator: Sketch 52.5 (67469) - http://www.bohemiancoding.com/sketch -->
    <title>Group 14</title>
    <desc>Created with Sketch.</desc>
    <defs>
        <path d="M819.558743,840.259763 C738.813307,870.388635 651.476406,887.336125 565.316552,891.80838 C524.1199,893.926816 483.394068,893.22067 443.374464,889.689943 C427.131213,888.277652 410.887961,886.394598 395.115529,884.04078 C352.271012,877.685471 311.07436,867.799435 272.938032,854.853435 C172.653611,820.723073 91.9081747,763.996057 51.4177516,686.555441 C-77.5866197,440.110686 60.5987196,406.215705 197.371602,377.263743 C203.256838,376.086834 209.377484,374.674543 215.498129,373.497634 C262.815426,363.376216 308.484856,352.784034 341.442178,333.011962 C357.21461,323.59669 372.280814,312.533745 386.640789,300.293891 C392.996844,294.880109 399.352899,289.230946 405.708954,283.3464 C417.479426,272.283455 429.014488,260.749747 440.314141,248.509893 C455.851164,232.033166 470.917368,214.614912 485.748162,196.961276 C603.923699,58.5567718 712.918269,-89.9691504 932.555273,67.9720442 C1235.0564,285.464837 1109.58317,732.219512 819.558743,840.259763 Z" id="path-1"></path>
        <path d="M130,880.04 C200.666667,902.013333 249.333333,914.333333 276,917 C316,921 541,934.08 662,880.04 C742.666667,844.013333 799,756.333333 831,617 L792,345 L666.917337,91 L441,0 L182,65 L24,303 L0.9,524 L43.7,777 L130,880.04 Z" id="path-3"></path>
    </defs>
    <g id="Page-1" stroke="none" stroke-width="1" fill="none" fill-rule="evenodd">
        <g id="Unlimited-Gym" transform="translate(-227.000000, -3270.000000)">
            <g id="Group-14" transform="translate(227.000000, 3244.000000)">
                <g id="building" transform="translate(0.000000, 30.000000)">
                    <mask id="mask-2" fill="white">
                        <use xlink:href="#path-1"></use>
                    </mask>
                    <use id="Path" fill="#FAFBFD" xlink:href="#path-1"></use>
                    <g id="building_1_" mask="url(#mask-2)">
                        <g transform="translate(-14.000000, 275.000000)">
                            <polygon id="Path" fill="#DFE7F4" points="1120.34779 364.504461 1120.34779 633 0.177391629 633 0.177391629 395.566171 103.08142 395.566171 103.08142 315.32342 157.94787 315.32342 157.94787 228.962454 277.806338 228.962454 277.806338 281.90855 354.80775 281.90855 354.80775 198.136059 369.878363 198.136059 369.878363 168.015613 405.906547 168.015613 405.906547 108.715985 422.154551 108.715985 422.154551 168.015613 461.950388 168.015613 461.950388 198.136059 479.140306 198.136059 479.140306 301.439777 609.35982 301.439777 609.35982 239.081041 708.496195 239.081041 708.496195 0.47063197 804.100396 0.47063197 804.100396 128.247212 870.740762 128.247212 870.740762 190.370632 1035.57559 190.370632 1035.57559 364.504461"></polygon>
                            <g id="Group" stroke-width="1" fill="none" transform="translate(185.027877, 48.294715)">
                                <g transform="translate(704.080194, 170.549152)" fill="#F0FAFF" id="Rectangle">
                                    <g>
                                        <rect x="33.2024439" y="32.4736059" width="20.251136" height="20.2371747"></rect>
                                        <rect x="0.235478326" y="32.4736059" width="20.251136" height="20.2371747"></rect>
                                        <rect x="33.2024439" y="0" width="20.251136" height="20.2371747"></rect>
                                        <rect x="0.235478326" y="0" width="20.251136" height="20.2371747"></rect>
                                        <rect x="106.200725" y="32.4736059" width="20.251136" height="20.2371747"></rect>
                                        <rect x="72.998281" y="32.4736059" width="20.251136" height="20.2371747"></rect>
                                        <rect x="106.200725" y="0" width="20.251136" height="20.2371747"></rect>
                                        <rect x="72.998281" y="0" width="20.251136" height="20.2371747"></rect>
                                    </g>
                                    <rect x="33.2024439" y="72.4773234" width="20.251136" height="20.2371747"></rect>
                                    <rect x="0.235478326" y="72.4773234" width="20.251136" height="20.2371747"></rect>
                                    <rect x="106.200725" y="72.4773234" width="20.251136" height="20.2371747"></rect>
                                    <rect x="72.998281" y="72.4773234" width="20.251136" height="20.2371747"></rect>
                                </g>
                                <g transform="translate(625.249177, 103.539033)" fill="#F0FAFF" id="Rectangle">
                                    <rect x="27.7322205" y="0.651010371" width="15.5415695" height="15.530855"></rect>
                                    <rect x="0.88769132" y="0.651010371" width="15.5415695" height="15.530855"></rect>
                                    <rect x="27.7322205" y="30.7714565" width="15.5415695" height="15.530855"></rect>
                                    <rect x="0.88769132" y="30.7714565" width="15.5415695" height="15.530855"></rect>
                                </g>
                                <g transform="translate(545.186546, 0.000000)" fill="#F0FAFF" id="Rectangle">
                                    <rect x="32.6772653" y="0.415694386" width="18.6027877" height="18.5899628"></rect>
                                    <rect x="0.88769132" y="0.415694386" width="18.6027877" height="18.5899628"></rect>
                                    <rect x="32.6772653" y="36.1837241" width="18.6027877" height="18.5899628"></rect>
                                    <rect x="0.88769132" y="36.1837241" width="18.6027877" height="18.5899628"></rect>
                                </g>
                                <g transform="translate(0.000000, 215.259189)" fill="#F0FAFF" id="Rectangle">
                                    <rect x="40.0313154" y="0" width="22.8413976" height="22.8256506"></rect>
                                    <rect x="0.706434977" y="0" width="22.8413976" height="22.8256506"></rect>
                                    <rect x="40.0313154" y="44.4747212" width="22.8413976" height="22.8256506"></rect>
                                    <rect x="0.706434977" y="44.4747212" width="22.8413976" height="22.8256506"></rect>
                                </g>
                                <g transform="translate(197.801794, 164.721190)" fill="#F0FAFF" id="Rectangle">
                                    <rect x="39.5603587" y="0.886326356" width="22.8413976" height="22.8256506"></rect>
                                    <rect x="0.235478326" y="0.886326356" width="22.8413976" height="22.8256506"></rect>
                                    <rect x="39.5603587" y="45.3610475" width="22.8413976" height="22.8256506"></rect>
                                    <rect x="0.235478326" y="45.3610475" width="22.8413976" height="22.8256506"></rect>
                                </g>
                                <g transform="translate(454.473169, 215.259189)" fill="#F0FAFF" id="Rectangle">
                                    <rect x="30.6121823" y="0.941263941" width="17.4253961" height="17.4133829"></rect>
                                    <rect x="0.706434977" y="0.941263941" width="17.4253961" height="17.4133829"></rect>
                                    <rect x="30.6121823" y="34.3561338" width="17.4253961" height="17.4133829"></rect>
                                    <rect x="0.706434977" y="34.3561338" width="17.4253961" height="17.4133829"></rect>
                                </g>
                                <g transform="translate(454.473169, 282.379182)" fill="#F0FAFF" id="Rectangle">
                                    <rect x="30.6121823" y="0.180378401" width="17.4253961" height="17.4133829"></rect>
                                    <rect x="0.706434977" y="0.180378401" width="17.4253961" height="17.4133829"></rect>
                                    <rect x="30.6121823" y="33.8305643" width="17.4253961" height="17.4133829"></rect>
                                    <rect x="0.706434977" y="33.8305643" width="17.4253961" height="17.4133829"></rect>
                                </g>
                            </g>
                        </g>
                    </g>
                </g>
                <g id="cloud" transform="translate(176.000000, 283.000000)">
                    <ellipse id="Oval" fill="#FFCE76" cx="785.5" cy="27" rx="26.5" ry="27"></ellipse>
                    <path d="M788,43 C788,43 784.083832,38.3338341 781.690619,36.3340487 C777.339321,32.5566763 772.552894,25.890725 756.670659,30.7790893 C755.365269,31.223486 754.277445,31.6678828 752.972056,32.1122795 C751.666667,32.7788747 747.315369,32.7788747 742.964072,29.2237006 C736.001996,23.4465428 733.173653,19.2247736 723.600798,19.0025753 C712.50499,18.7803769 710.764471,33.001073 702.061876,36.7784454 C696.622754,39.0004292 682.045908,41.4446114 679,42.3334049 L788,43 Z" id="Path" fill="#FFFFFF"></path>
                    <path d="M0,186 C0,186 3.91616766,181.333834 6.30938124,179.334049 C10.6606786,175.556676 15.4471058,168.890725 31.3293413,173.779089 C32.6347305,174.223486 33.7225549,174.667883 35.0279441,175.11228 C36.3333333,175.778875 40.6846307,175.778875 45.0359281,172.223701 C51.998004,166.446543 54.8263473,162.224774 64.3992016,162.002575 C75.49501,161.780377 77.2355289,176.001073 85.9381238,179.778445 C91.3772455,182.000429 105.954092,184.444611 109,185.333405 L0,186 Z" id="Path" fill="#DFE7F4"></path>
                    <path d="M870,13 C870,13 868.248927,10.8 867.154506,9.92 C865.184549,8.16 862.776824,5.08 855.334764,7.28 C854.678112,7.5 854.240343,7.72 853.583691,7.94 C852.927039,8.16 850.957082,8.16 848.76824,6.62 C845.484979,3.98 844.171674,2 839.793991,2 C834.540773,2 833.665236,8.38 829.725322,10.14 C827.098712,11.24 820.313305,12.34 819,12.78 L870,13 Z" id="Path" fill="#FFFFFF"></path>
                    <path d="M965,253 C965,253 963.464286,251.325581 962.586735,250.488372 C960.831633,249.023256 958.857143,246.72093 952.714286,248.395349 C952.27551,248.604651 951.836735,248.813953 951.397959,248.813953 C950.739796,249.023256 949.204082,249.023256 947.44898,247.767442 C944.596939,245.674419 943.5,244 939.770408,244 C935.382653,244 934.72449,249.232558 931.214286,250.488372 C929.020408,251.325581 923.316327,252.162791 922,252.581395 L965,253 Z" id="Path" fill="#FFFFFF"></path>
                    <path d="M153,235 C153,235 151.464286,233.325581 150.586735,232.488372 C148.831633,231.023256 146.857143,228.72093 140.714286,230.395349 C140.27551,230.604651 139.836735,230.813953 139.397959,230.813953 C138.739796,231.023256 137.204082,231.023256 135.44898,229.767442 C132.596939,227.674419 131.5,226 127.770408,226 C123.382653,226 122.72449,231.232558 119.214286,232.488372 C117.020408,233.325581 111.316327,234.162791 110,234.581395 L153,235 Z" id="Path" fill="#FFFFFF"></path>
                </g>
                <g id="Group-15" transform="translate(133.000000, 0.000000)">
                    <mask id="mask-4" fill="white">
                        <use xlink:href="#path-3"></use>
                    </mask>
                    <g id="Path-2"></g>
                    <g id="girl" mask="url(#mask-4)">
                        <g transform="translate(174.000000, 26.000000)">
                            <circle id="Oval" stroke="none" fill="#222277" fill-rule="evenodd" cx="233.5" cy="59.5" r="59.5"></circle>
                            <g id="girl_face_3_" stroke="none" stroke-width="1" fill="none" fill-rule="evenodd" transform="translate(177.000000, 0.000000)">
                                <path d="M106.73822,248.984087 C106.73822,248.984087 68.6908871,182.987349 59.396882,179.2078 C50.102877,175.137517 -4.49940285,187.929836 1.89022564,119.316488 C8.27985413,50.7031402 4.79460223,31.5146615 25.415676,34.4220067 C46.0367497,37.329352 94.5398387,64.6583974 107.028658,81.5209999 C119.517477,98.0928678 188.932078,197.524076 169.763192,224.853121 C150.884744,251.600697 106.73822,248.984087 106.73822,248.984087 Z" id="Path" fill="#FFD2B3"></path>
                                <path d="M6.24679052,66.6935391 C4.79460223,86.4634868 28.3200526,51.5753437 36.7427447,59.7159105 C37.32362,60.2973795 37.9044953,61.1695831 38.194933,62.0417867 C39.3566836,64.0769283 40.2279966,66.11207 41.0993095,68.1472117 C44.0036861,76.2877784 43.7132485,83.5561416 47.7793757,88.207894 C54.4594418,96.0577262 59.6873197,91.6967083 71.304826,90.8245047 C82.6318947,89.9523011 90.7641492,104.779762 86.4075843,118.735019 C82.0510194,132.690276 96.86334,222.817979 170.05363,224.562386 C243.534358,226.306794 185.737263,266.137424 246.148296,350.450436 C293.489635,416.737908 237.144729,495.23623 295.813136,520.530134 C416.344764,572.280879 459.329538,410.051014 409.083823,350.450436 C337.636159,266.137424 377.716556,252.763635 328.923029,169.613561 C300.169701,120.188692 279.839065,115.246205 242.372607,107.977842 C198.806958,99.2558059 191.836454,41.1089008 148.851681,21.0482185 C137.81505,15.8149971 124.745355,10.8725102 111.385223,7.67443037 L111.094785,7.67443037 C105.57647,6.22075774 49.5220016,-9.18817211 22.8017371,9.70957205 C12.9268567,16.6872007 8.86072945,23.9555638 10.0224801,31.2239269 C8.57029179,34.1312722 7.40854115,38.2015556 3.63285159,42.2718389 C-5.95159114,52.7382818 7.1181035,55.6456271 6.24679052,66.6935391 Z" id="Path" fill="#222277"></path>
                                <path d="M36.7427447,59.7159105 C37.32362,60.588114 37.9044953,61.1695831 38.194933,62.0417867 C37.9044953,61.1695831 37.32362,60.2973795 36.7427447,59.7159105 Z" id="Path" fill="#222277"></path>
                            </g>
                            <path d="M480,936.533227 C429.416264,939.140824 379.410628,938.271625 330.272142,933.92563 L303.390499,873.661164 L271.016908,926.682304 C218.409823,918.859513 167.826087,906.690727 121,890.755411 L149.904992,800.06898 L157.99839,774.572475 L160.021739,768.488082 L162.334138,760.955024 L163.201288,757.767961 L167.537037,744.440243 L174.474235,723 L449.649758,723 L455.141707,762.403689 L463.524155,821.21949 L480,936.533227 Z" id="Path" stroke="none" fill="#181533" fill-rule="evenodd"></path>
                            <path d="M339.837766,178 C339.837766,178 283.308511,195.597676 254.898936,228.196649 C226.489362,260.795622 185.614362,327.724486 185.324468,372.151405 C185.034574,405.615838 212.864362,490.142378 212.864362,490.142378 L143,756.126919 C143,756.126919 361,789.591351 470,756.126919 L412.890957,545.243297 C412.890957,545.243297 426.805851,458.697351 430.284574,445.138486 C440.140957,405.904324 423.037234,345.899135 416.079787,304.645568 C408.832447,263.392 376.364362,216.368703 365.058511,206.848649 C353.75266,197.328595 339.837766,178 339.837766,178 Z" id="Path" stroke="none" fill="#FF6C81" fill-rule="evenodd"></path>
                            <path d="M499.185674,620.308106 L137.807721,556.143377 C133.167233,555.272362 128.816776,558.466082 128.236715,563.111492 L98.0735475,756.186354 C97.4934866,760.831765 100.393791,764.896499 105.034279,765.477175 L471.63278,820.931759 C476.273268,821.512436 480.333694,818.318716 480.913755,813.963644 L505.856375,629.598926 C506.726466,625.243854 503.536131,620.888782 499.185674,620.308106 Z" id="Path" stroke="none" fill="#54548C" fill-rule="evenodd"></path>
                            <g id="Group" stroke="none" stroke-width="1" fill="none" fill-rule="evenodd" transform="translate(24.000000, 314.000000)">
                                <path d="M201.774324,137.606284 L187.67027,194.35623 C187.67027,194.35623 64.7635135,147.309642 57.2797297,144.663272 C57.2797297,144.663272 35.4040541,127.020802 31.0864865,123.786349 C26.7689189,120.551896 12.9527027,85.5609967 11.8013514,82.3265439 C10.65,79.092091 37.1310811,77.327844 37.1310811,77.327844 C37.1310811,77.327844 37.9945946,60.5674973 39.1459459,55.2747562 C40.0094595,52.3343445 45.7662162,39.396533 48.6445946,48.2177681 L54.4013514,73.7993499 L62.7486486,82.3265439 C67.0662162,88.5014085 71.9594595,114.377031 71.9594595,114.377031 L201.774324,137.606284 Z" id="Path" fill="#FFD2B3"></path>
                                <path d="M37.1310811,111.43662 C42.0243243,110.848537 45.1905405,106.143879 43.7513514,101.43922 L29.6472973,47.923727 L18.1337838,6.16988082 C16.9824324,1.75926327 12.0891892,-0.593066089 8.05945946,0.877139762 L5.18108108,2.05330444 C1.43918919,3.52351029 -0.575675676,7.93412784 0.575675676,11.7566631 L29.0716216,105.849837 C29.9351351,109.378332 33.3891892,111.730661 37.1310811,111.43662 Z" id="Path" fill="#16093F"></path>
                                <path d="M212.712162,135.842037 C212.712162,135.842037 197.744595,92.912026 169.824324,110.260455 C141.904054,127.608884 119.452703,106.143879 119.452703,106.143879 L72.2472973,113.788949 L57.2797297,144.369231 L200.622973,206.117876 L212.712162,135.842037 Z" id="Path" fill="#FF6C81"></path>
                                <path d="M12.0891892,82.0325027 C8.92297297,74.9755146 15.8310811,52.9224269 18.4216216,54.9807151 C21.0121622,57.0390033 22.1635135,68.5066089 22.1635135,68.5066089 L19.572973,75.2695558 C19.572973,75.2695558 23.8905405,73.5053088 24.1783784,75.2695558 C24.4662162,76.7397616 25.9054054,84.3848321 25.9054054,84.3848321 L26.4810811,99.0868906 L12.0891892,82.0325027 Z" id="Path" fill="#FFD2B3"></path>
                            </g>
                            <path d="M321,181.799762 C346.799632,164.665824 437.671669,161.524602 448.278184,168.378177 C459.171362,175.231752 433.945056,197.220306 436.525019,211.784153 C439.104982,226.348 492.137559,245.195332 474.364479,276.893117 C456.304737,308.590902 403.558822,346 403.558822,346 L321,181.799762 Z" id="Path" stroke="none" fill="#FF6C81" fill-rule="evenodd"></path>
                            <g id="XMLID_6_" stroke="none" stroke-width="1" fill="none" fill-rule="evenodd" transform="translate(145.000000, 675.000000)">
                                <path d="M42.5229885,56.7986364 C51.2528736,55.0613636 56.8850575,34.7931818 58.5747126,22.0531818 C70.1206897,19.4472727 86.454023,3.52227273 97.7183908,0.0477272727 C78.5689655,64.6163636 77.4425287,98.4931818 73.5,106.021364 C65.0517241,122.525455 59.9827586,131.211818 49.5632184,121.367273 C39.1436782,111.522727 30.9770115,130.922273 23.6551724,121.367273 C16.6149425,111.812273 3.94252874,132.080455 0.563218391,119.050909 C-2.81609195,105.731818 18.0229885,87.4904545 18.0229885,87.4904545 C18.0229885,87.4904545 8.72988506,63.7477273 42.5229885,56.7986364 Z" id="Path" fill="#FFD2B3"></path>
                            </g>
                            <path d="M376.372226,306.980265 C387.684658,347.101724 242.36341,730 242.36341,730 L180,714.300298 C180,714.300298 203.785114,626.498264 200.014304,594.517391 C196.243493,562.536517 196.533555,550.616373 222.349106,522.705793 C248.164657,494.795212 234.531726,388.386124 251.935468,345.648048 C269.339211,303.200707 368.540542,279.069684 376.372226,306.980265 Z" id="Path" stroke="none" fill="#FF6C81" fill-rule="evenodd"></path>
                            <path d="M239.546846,530 C240.726406,530 241.611076,529.418286 242.200856,528.254857 C252.816894,500.332576 251.047555,470.083437 248.983325,440.70687 C248.393545,432.853728 248.098655,425.000587 247.803765,417.438302 C246.329315,379.045165 251.047555,340.652028 261.958483,303.713176 C264.317602,294.987463 267.561392,285.389178 274.048971,278.408608 C279.65188,272.300609 289.678138,268.228609 297.935057,272.009752 C299.409507,272.591466 300.883957,272.009752 301.768626,270.846323 C302.358406,269.392038 301.768626,267.937752 300.589067,267.065181 C289.678138,261.829753 276.99787,267.356038 270.215402,274.627466 C262.843153,282.480607 259.304473,292.951463 256.650464,302.25889 C245.739535,339.779456 241.021296,378.754308 242.495746,417.729159 C242.790636,425.582301 243.380416,433.435443 243.675306,441.288584 C245.444645,470.083437 247.508875,499.750862 237.187727,526.509715 C236.597947,527.964 237.482617,529.418286 238.662177,530 C238.957067,530 239.251956,530 239.546846,530 Z" id="Path" stroke="none" fill="#F45B79" fill-rule="evenodd"></path>
                            <path d="M288.464434,595 C289.605825,595 290.461868,594.417553 291.032564,593.252659 C299.878344,569.663557 307.868081,550.151584 315.57247,531.513281 C332.693334,490.159547 347.531417,454.339059 358.945327,397.259257 C359.230675,395.80314 358.374631,394.347022 356.947893,394.055799 C355.521154,393.764575 354.094415,394.638246 353.809067,396.094363 C342.680505,452.591718 328.413118,486.373642 310.721558,529.474717 C303.017169,548.404243 294.742085,567.916216 286.181652,591.505318 C285.610957,592.961436 286.467,594.417553 287.608391,595 C287.608391,594.708777 288.179086,595 288.464434,595 Z" id="Path" stroke="none" fill="#F45B79" fill-rule="evenodd"></path>
                            <path d="M417.398569,322 C417.681591,322 417.681591,322 417.964614,322 C419.379727,321.706996 420.228795,320.241979 419.945772,318.776961 C411.172071,273.94742 387.964215,233.219928 354.284521,203.62657 C353.15243,202.74756 351.454294,202.74756 350.605227,203.919574 C349.756159,205.091588 349.756159,206.849609 350.888249,207.72862 C383.718875,236.442967 406.360686,276.291448 414.851365,319.655972 C415.134388,321.120989 416.266478,322 417.398569,322 Z" id="Path" stroke="none" fill="#F45B79" fill-rule="evenodd"></path>
                            <path d="M214,63 C214.6,66.047619 215.4,68.7142857 216,71 C215.6,68.3333333 214.8,65.6666667 214,63 Z" id="Path" stroke="none" fill="#222277" fill-rule="evenodd"></path>
                            <path d="M43,310 L48,293" id="Path" stroke="#7D97F9" stroke-width="0.75" fill="none" stroke-linecap="round" stroke-linejoin="round"></path>
                            <path d="M27,310 L18,293" id="Path" stroke="#7D97F9" stroke-width="0.75" fill="none" stroke-linecap="round" stroke-linejoin="round"></path>
                            <path d="M16,319 L0,310" id="Path" stroke="#7D97F9" stroke-width="0.75" fill="none" stroke-linecap="round" stroke-linejoin="round"></path>
                        </g>
                    </g>
                </g>
            </g>
        </g>
    </g>
</svg>