<?xml version="1.0" encoding="UTF-8"?>
<svg width="512px" height="498px" viewBox="0 0 512 498" version="1.1" xmlns="http://www.w3.org/2000/svg" xmlns:xlink="http://www.w3.org/1999/xlink">
    <!-- Generator: Sketch 52.5 (67469) - http://www.bohemiancoding.com/sketch -->
    <title>new/gym</title>
    <desc>Created with Sketch.</desc>
    <defs>
        <rect id="path-1" x="0" y="0" width="512" height="498"></rect>
    </defs>
    <g id="Page-1" stroke="none" stroke-width="1" fill="none" fill-rule="evenodd">
        <g id="Unlimited-Gym" transform="translate(-153.000000, -1151.000000)">
            <g id="gym" transform="translate(153.000000, 1151.000000)">
                <mask id="mask-2" fill="white">
                    <use xlink:href="#path-1"></use>
                </mask>
                <use id="Rectangle" fill="#FFFFFF" opacity="0.00904482887" xlink:href="#path-1"></use>
                <g id="Gym-Copy" mask="url(#mask-2)">
                    <g transform="translate(0.000000, -1.000000)" id="Group">
                        <g>
                            <path d="M79.1,239.2 L79.1,262.4 L107.7,262.4 L107.7,239.2 L79.1,239.2 Z M79.1,239.2 L79.1,262.4 L107.7,262.4 L107.7,239.2 L79.1,239.2 Z M79.1,239.2 L79.1,262.4 L107.7,262.4 L107.7,239.2 L79.1,239.2 Z M79.1,239.2 L79.1,262.4 L107.7,262.4 L107.7,239.2 L79.1,239.2 Z M79.1,239.2 L79.1,262.4 L107.7,262.4 L107.7,239.2 L79.1,239.2 Z M79.1,239.2 L79.1,262.4 L107.7,262.4 L107.7,239.2 L79.1,239.2 Z M79.1,239.2 L79.1,262.4 L107.7,262.4 L107.7,239.2 L79.1,239.2 Z M79.1,239.2 L79.1,262.4 L107.7,262.4 L107.7,239.2 L79.1,239.2 Z M79.1,239.2 L79.1,262.4 L107.7,262.4 L107.7,239.2 L79.1,239.2 Z M79.1,239.2 L79.1,262.4 L107.7,262.4 L107.7,239.2 L79.1,239.2 Z M79.1,239.2 L79.1,262.4 L107.7,262.4 L107.7,239.2 L79.1,239.2 Z M79.1,239.2 L79.1,262.4 L107.7,262.4 L107.7,239.2 L79.1,239.2 Z M79.1,239.2 L79.1,262.4 L107.7,262.4 L107.7,239.2 L79.1,239.2 Z M345.5,201.1 L345.5,224.3 L366.6,224.3 L366.6,201.1 L345.5,201.1 Z M345.5,201.1 L345.5,224.3 L366.6,224.3 L366.6,201.1 L345.5,201.1 Z M345.5,201.1 L345.5,224.3 L366.6,224.3 L366.6,201.1 L345.5,201.1 Z M345.5,201.1 L345.5,224.3 L366.6,224.3 L366.6,201.1 L345.5,201.1 Z M345.5,201.1 L345.5,224.3 L366.6,224.3 L366.6,201.1 L345.5,201.1 Z M345.5,201.1 L345.5,224.3 L366.6,224.3 L366.6,201.1 L345.5,201.1 Z M79.1,239.2 L79.1,262.4 L107.7,262.4 L107.7,239.2 L79.1,239.2 Z M345.5,201.1 L345.5,224.3 L366.6,224.3 L366.6,201.1 L345.5,201.1 Z M345.5,201.1 L345.5,224.3 L366.6,224.3 L366.6,201.1 L345.5,201.1 Z M79.1,239.2 L79.1,262.4 L107.7,262.4 L107.7,239.2 L79.1,239.2 Z M79.1,239.2 L79.1,262.4 L107.7,262.4 L107.7,239.2 L79.1,239.2 Z M107.7,265.5 L107.7,268.6 L108.4,268.6 L108.4,265.5 L107.7,265.5 Z M345.5,201.1 L345.5,224.3 L366.6,224.3 L366.6,201.1 L345.5,201.1 Z M345.5,201.1 L345.5,224.3 L366.6,224.3 L366.6,201.1 L345.5,201.1 Z M107.7,265.5 L107.7,268.6 L108.4,268.6 L108.4,265.5 L107.7,265.5 Z M79.1,239.2 L79.1,262.4 L107.7,262.4 L107.7,239.2 L79.1,239.2 Z M79.1,239.2 L79.1,262.4 L107.7,262.4 L107.7,239.2 L79.1,239.2 Z M107.7,265.5 L107.7,268.6 L108.4,268.6 L108.4,265.5 L107.7,265.5 Z M345.5,201.1 L345.5,224.3 L366.6,224.3 L366.6,201.1 L345.5,201.1 Z M345.5,201.1 L345.5,224.3 L366.6,224.3 L366.6,201.1 L345.5,201.1 Z M107.7,265.5 L107.7,268.6 L108.4,268.6 L108.4,265.5 L107.7,265.5 Z M79.1,239.2 L79.1,262.4 L107.7,262.4 L107.7,239.2 L79.1,239.2 Z M79.1,239.2 L79.1,262.4 L107.7,262.4 L107.7,239.2 L79.1,239.2 Z M107.7,265.5 L107.7,268.6 L108.4,268.6 L108.4,265.5 L107.7,265.5 Z M345.5,201.1 L345.5,224.3 L366.6,224.3 L366.6,201.1 L345.5,201.1 Z M345.5,201.1 L345.5,224.3 L366.6,224.3 L366.6,201.1 L345.5,201.1 Z M107.7,265.5 L107.7,268.6 L108.4,268.6 L108.4,265.5 L107.7,265.5 Z M79.1,239.2 L79.1,262.4 L107.7,262.4 L107.7,239.2 L79.1,239.2 Z M79.1,239.2 L79.1,262.4 L107.7,262.4 L107.7,239.2 L79.1,239.2 Z M107.7,265.5 L107.7,268.6 L108.4,268.6 L108.4,265.5 L107.7,265.5 Z M345.5,201.1 L345.5,224.3 L366.6,224.3 L366.6,201.1 L345.5,201.1 Z M345.5,201.1 L345.5,224.3 L366.6,224.3 L366.6,201.1 L345.5,201.1 Z M107.7,265.5 L107.7,268.6 L108.4,268.6 L108.4,265.5 L107.7,265.5 Z M79.1,239.2 L79.1,262.4 L107.7,262.4 L107.7,239.2 L79.1,239.2 Z M79.1,239.2 L79.1,262.4 L107.7,262.4 L107.7,239.2 L79.1,239.2 Z M107.7,265.5 L107.7,268.6 L108.4,268.6 L108.4,265.5 L107.7,265.5 Z M345.5,201.1 L345.5,224.3 L366.6,224.3 L366.6,201.1 L345.5,201.1 Z M345.5,201.1 L345.5,224.3 L366.6,224.3 L366.6,201.1 L345.5,201.1 Z M107.7,265.5 L107.7,268.6 L108.4,268.6 L108.4,265.5 L107.7,265.5 Z M79.1,239.2 L79.1,262.4 L107.7,262.4 L107.7,239.2 L79.1,239.2 Z M79.1,239.2 L79.1,262.4 L107.7,262.4 L107.7,239.2 L79.1,239.2 Z M107.7,265.5 L107.7,268.6 L108.4,268.6 L108.4,265.5 L107.7,265.5 Z M345.5,201.1 L345.5,224.3 L366.6,224.3 L366.6,201.1 L345.5,201.1 Z M345.5,201.1 L345.5,224.3 L366.6,224.3 L366.6,201.1 L345.5,201.1 Z M107.7,265.5 L107.7,268.6 L108.4,268.6 L108.4,265.5 L107.7,265.5 Z M79.1,239.2 L79.1,262.4 L107.7,262.4 L107.7,239.2 L79.1,239.2 Z M79.1,239.2 L79.1,262.4 L107.7,262.4 L107.7,239.2 L79.1,239.2 Z M107.7,265.5 L107.7,268.6 L108.4,268.6 L108.4,265.5 L107.7,265.5 Z M345.5,201.1 L345.5,224.3 L366.6,224.3 L366.6,201.1 L345.5,201.1 Z M345.5,201.1 L345.5,224.3 L366.6,224.3 L366.6,201.1 L345.5,201.1 Z M107.7,265.5 L107.7,268.6 L108.4,268.6 L108.4,265.5 L107.7,265.5 Z M107.7,239.2 L79.1,239.2 L79.1,262.4 L107.7,262.4 L107.7,239.2 Z M234.4,1.3 L345.5,1.3 L345.5,169.1 L234.4,169.1 L234.4,1.3 Z M107.7,1.3 L218.8,1.3 L218.8,169.1 L107.7,169.1 L107.7,1.3 Z M108.3,294.9 L103.3,294.9 L103.3,268.6 L51.8,268.6 L51.8,262.4 L74,262.4 L74,239.2 L0.7,239.2 L0.7,233 L107.7,233 L107.7,180.2 L218.8,180.2 L218.8,285.8 L108.3,285.8 L108.3,294.9 Z M342.6,371.2 L260.3,371.2 L260.3,397.5 L255.3,397.5 L255.3,371.2 L203.8,371.2 L203.8,365 L226,365 L226,341.8 L152.7,341.8 L152.7,335.6 L291.6,335.6 L291.6,341.8 L231,341.8 L231,365 L342.6,365 L342.6,371.2 Z M448.1,341.9 L365.8,341.9 L365.8,368.2 L360.8,368.2 L360.8,341.9 L309.3,341.9 L309.3,335.7 L331.5,335.7 L331.5,312.5 L258.2,312.5 L258.2,306.3 L397,306.3 L397,312.5 L336.5,312.5 L336.5,335.7 L448.1,335.7 L448.1,341.9 Z M432.2,194.9 L432.2,201.1 L371.7,201.1 L371.7,224.3 L483.3,224.3 L483.3,230.5 L401,230.5 L401,256.8 L396,256.8 L396,230.5 L345.6,230.5 L345.6,285.8 L234.4,285.8 L234.4,180.2 L345.5,180.2 L345.5,194.9 L432.2,194.9 Z M345.5,224.3 L366.6,224.3 L366.6,201.1 L345.5,201.1 L345.5,224.3 Z M107.7,268.6 L108.4,268.6 L108.4,265.5 L107.7,265.5 L107.7,268.6 Z M107.7,239.2 L79.1,239.2 L79.1,262.4 L107.7,262.4 L107.7,239.2 Z M79.1,239.2 L79.1,262.4 L107.7,262.4 L107.7,239.2 L79.1,239.2 Z M107.7,265.5 L107.7,268.6 L108.4,268.6 L108.4,265.5 L107.7,265.5 Z M345.5,201.1 L345.5,224.3 L366.6,224.3 L366.6,201.1 L345.5,201.1 Z M345.5,201.1 L345.5,224.3 L366.6,224.3 L366.6,201.1 L345.5,201.1 Z M107.7,265.5 L107.7,268.6 L108.4,268.6 L108.4,265.5 L107.7,265.5 Z M79.1,239.2 L79.1,262.4 L107.7,262.4 L107.7,239.2 L79.1,239.2 Z M79.1,239.2 L79.1,262.4 L107.7,262.4 L107.7,239.2 L79.1,239.2 Z M107.7,265.5 L107.7,268.6 L108.4,268.6 L108.4,265.5 L107.7,265.5 Z M345.5,201.1 L345.5,224.3 L366.6,224.3 L366.6,201.1 L345.5,201.1 Z M345.5,201.1 L345.5,224.3 L366.6,224.3 L366.6,201.1 L345.5,201.1 Z M107.7,265.5 L107.7,268.6 L108.4,268.6 L108.4,265.5 L107.7,265.5 Z M79.1,239.2 L79.1,262.4 L107.7,262.4 L107.7,239.2 L79.1,239.2 Z M79.1,239.2 L79.1,262.4 L107.7,262.4 L107.7,239.2 L79.1,239.2 Z M107.7,265.5 L107.7,268.6 L108.4,268.6 L108.4,265.5 L107.7,265.5 Z M345.5,201.1 L345.5,224.3 L366.6,224.3 L366.6,201.1 L345.5,201.1 Z M345.5,201.1 L345.5,224.3 L366.6,224.3 L366.6,201.1 L345.5,201.1 Z M107.7,265.5 L107.7,268.6 L108.4,268.6 L108.4,265.5 L107.7,265.5 Z M79.1,239.2 L79.1,262.4 L107.7,262.4 L107.7,239.2 L79.1,239.2 Z M79.1,239.2 L79.1,262.4 L107.7,262.4 L107.7,239.2 L79.1,239.2 Z M107.7,265.5 L107.7,268.6 L108.4,268.6 L108.4,265.5 L107.7,265.5 Z M345.5,201.1 L345.5,224.3 L366.6,224.3 L366.6,201.1 L345.5,201.1 Z M345.5,201.1 L345.5,224.3 L366.6,224.3 L366.6,201.1 L345.5,201.1 Z M107.7,265.5 L107.7,268.6 L108.4,268.6 L108.4,265.5 L107.7,265.5 Z M79.1,239.2 L79.1,262.4 L107.7,262.4 L107.7,239.2 L79.1,239.2 Z M79.1,239.2 L79.1,262.4 L107.7,262.4 L107.7,239.2 L79.1,239.2 Z M107.7,265.5 L107.7,268.6 L108.4,268.6 L108.4,265.5 L107.7,265.5 Z M345.5,201.1 L345.5,224.3 L366.6,224.3 L366.6,201.1 L345.5,201.1 Z M345.5,201.1 L345.5,224.3 L366.6,224.3 L366.6,201.1 L345.5,201.1 Z M107.7,265.5 L107.7,268.6 L108.4,268.6 L108.4,265.5 L107.7,265.5 Z M79.1,239.2 L79.1,262.4 L107.7,262.4 L107.7,239.2 L79.1,239.2 Z M79.1,239.2 L79.1,262.4 L107.7,262.4 L107.7,239.2 L79.1,239.2 Z M107.7,265.5 L107.7,268.6 L108.4,268.6 L108.4,265.5 L107.7,265.5 Z M345.5,201.1 L345.5,224.3 L366.6,224.3 L366.6,201.1 L345.5,201.1 Z M345.5,201.1 L345.5,224.3 L366.6,224.3 L366.6,201.1 L345.5,201.1 Z M107.7,265.5 L107.7,268.6 L108.4,268.6 L108.4,265.5 L107.7,265.5 Z M79.1,239.2 L79.1,262.4 L107.7,262.4 L107.7,239.2 L79.1,239.2 Z M79.1,239.2 L79.1,262.4 L107.7,262.4 L107.7,239.2 L79.1,239.2 Z M107.7,265.5 L107.7,268.6 L108.4,268.6 L108.4,265.5 L107.7,265.5 Z M345.5,201.1 L345.5,224.3 L366.6,224.3 L366.6,201.1 L345.5,201.1 Z M345.5,201.1 L345.5,224.3 L366.6,224.3 L366.6,201.1 L345.5,201.1 Z M107.7,265.5 L107.7,268.6 L108.4,268.6 L108.4,265.5 L107.7,265.5 Z M79.1,239.2 L79.1,262.4 L107.7,262.4 L107.7,239.2 L79.1,239.2 Z M79.1,239.2 L79.1,262.4 L107.7,262.4 L107.7,239.2 L79.1,239.2 Z M345.5,201.1 L345.5,224.3 L366.6,224.3 L366.6,201.1 L345.5,201.1 Z M345.5,201.1 L345.5,224.3 L366.6,224.3 L366.6,201.1 L345.5,201.1 Z M79.1,239.2 L79.1,262.4 L107.7,262.4 L107.7,239.2 L79.1,239.2 Z M345.5,201.1 L345.5,224.3 L366.6,224.3 L366.6,201.1 L345.5,201.1 Z M345.5,201.1 L345.5,224.3 L366.6,224.3 L366.6,201.1 L345.5,201.1 Z M345.5,201.1 L345.5,224.3 L366.6,224.3 L366.6,201.1 L345.5,201.1 Z M345.5,201.1 L345.5,224.3 L366.6,224.3 L366.6,201.1 L345.5,201.1 Z" id="Shape" fill="#EDF0F2" fill-rule="nonzero"></path>
                            <g transform="translate(321.000000, 0.000000)">
                                <g transform="translate(50.000000, 1.000000)">
                                    <path d="M24.4,1 L24.4,77" id="Path" stroke="#5E5EB5" stroke-width="2" stroke-linecap="round"></path>
                                    <circle id="Oval" fill="#FCC600" cx="24.4" cy="93.4" r="5.9"></circle>
                                    <path d="M28.7,74.8 L20.1,74.8 L20.1,70.5 C20.1,68.1 22,66.2 24.4,66.2 C26.8,66.2 28.7,68.1 28.7,70.5 L28.7,74.8 Z" id="Path" fill="#3D3D7F"></path>
                                    <path d="M48,94.5 L0.6,94.5 C0.6,81.4 11.2,70.8 24.3,70.8 C37.4,70.8 48,81.4 48,94.5 Z" id="Path" fill="#5E5EB5"></path>
                                </g>
                                <g>
                                    <path d="M23.7,0.6 L23.7,103.9" id="Path" stroke="#5E5EB5" stroke-width="2" stroke-linecap="round"></path>
                                    <circle id="Oval" fill="#FCC600" cx="23.7" cy="120.3" r="5.8"></circle>
                                    <path d="M28,101.8 L19.4,101.8 L19.4,97.5 C19.4,95.1 21.3,93.2 23.7,93.2 C26.1,93.2 28,95.1 28,97.5 L28,101.8 Z" id="Path" fill="#3D3D7F"></path>
                                    <path d="M47.4,121.4 L0,121.4 C0,108.3 10.6,97.7 23.7,97.7 C36.8,97.7 47.4,108.3 47.4,121.4 Z" id="Path" fill="#5E5EB5"></path>
                                </g>
                            </g>
                            <g transform="translate(107.000000, 112.000000)">
                                <rect id="Rectangle" fill="#F8FDFF" x="2.9" y="3.1" width="107.4" height="169.9"></rect>
                                <polygon id="Path" fill="#DFE7F4" opacity="0.6" points="3.3 146.5 18 146.5 17.8 131.5 33 131.5 33 146.5 47.2 146.5 47.2 121.3 58.7 121.3 58.7 106.8 75.5 106.8 75.5 134.7 78.2 134.4 78.2 124 88.7 124 88.7 147.8 94 147.8 94 140 109.2 140 110.3 173 2.9 173"></polygon>
                                <g transform="translate(0.000000, 2.000000)" fill="#EDF0F2" id="Rectangle">
                                    <rect transform="translate(66.702110, 30.298930) rotate(-45.717122) translate(-66.702110, -30.298930) " x="64.702114" y="-10.6009892" width="3.9999921" height="81.7998384"></rect>
                                    <rect transform="translate(70.241010, 53.273420) rotate(-45.348421) translate(-70.241010, -53.273420) " x="68.2409922" y="-2.47707617" width="4.0000356" height="111.500992"></rect>
                                    <rect transform="translate(75.559740, 72.192870) rotate(-44.963539) translate(-75.559740, -72.192870) " x="73.5596174" y="23.3898774" width="4.00024529" height="97.6059851"></rect>
                                    <rect transform="translate(27.202525, 116.180750) rotate(-45.717122) translate(-27.202525, -116.180750) " x="25.202529" y="82.7308161" width="3.9999921" height="66.8998679"></rect>
                                    <rect transform="translate(41.690770, 141.336030) rotate(-45.603688) translate(-41.690770, -141.336030) " x="39.6908196" y="114.636692" width="3.99990082" height="53.3986759"></rect>
                                    <rect transform="translate(20.770975, 139.231645) rotate(-46.645140) translate(-20.770975, -139.231645) " x="18.7710183" y="112.68222" width="3.99991332" height="53.0988493"></rect>
                                </g>
                                <path d="M0.4,0.7 L0.4,175.5 L112.9,175.5 L112.9,0.7 L0.4,0.7 Z M107.7,170.5 L5.5,170.5 L5.5,5.5 L107.7,5.5 L107.7,170.5 Z" id="Shape" fill="#41347F" fill-rule="nonzero"></path>
                                <g transform="translate(5.000000, 28.000000)">
                                    <ellipse id="Oval" fill="#FFEAA6" cx="88.5" cy="76.3" rx="4.5" ry="4.3"></ellipse>
                                    <g transform="translate(4.000000, 80.000000)" fill="#F8FDFF" id="Rectangle">
                                        <rect x="0.5" y="42.1" width="4.8" height="4.6"></rect>
                                        <rect x="11.2" y="26" width="3.7" height="3.5"></rect>
                                        <rect x="17.8" y="26" width="3.7" height="3.5"></rect>
                                        <rect x="11.2" y="31.5" width="3.7" height="3.5"></rect>
                                        <rect x="17.8" y="31.5" width="3.7" height="3.5"></rect>
                                        <rect x="11.2" y="37.1" width="3.7" height="3.5"></rect>
                                        <rect x="17.8" y="37.1" width="3.7" height="3.5"></rect>
                                        <rect x="40.6" y="16.6" width="3.7" height="3.5"></rect>
                                        <rect x="47.1" y="16.6" width="3.7" height="3.5"></rect>
                                        <rect x="40.6" y="22.2" width="3.7" height="3.5"></rect>
                                        <rect x="47.1" y="22.2" width="3.7" height="3.5"></rect>
                                        <rect x="40.6" y="27.8" width="3.7" height="3.5"></rect>
                                        <rect x="47.1" y="27.8" width="3.7" height="3.5"></rect>
                                        <rect x="55" y="0.7" width="3.7" height="3.5"></rect>
                                        <rect x="61.5" y="0.7" width="3.7" height="3.5"></rect>
                                        <rect x="55" y="6.2" width="3.7" height="3.5"></rect>
                                        <rect x="61.5" y="6.2" width="3.7" height="3.5"></rect>
                                        <rect x="55" y="11.8" width="3.7" height="3.5"></rect>
                                        <rect x="61.5" y="11.8" width="3.7" height="3.5"></rect>
                                        <rect x="73.7" y="18.3" width="3.7" height="3.5"></rect>
                                        <rect x="73.7" y="23.9" width="3.7" height="3.5"></rect>
                                        <rect x="73.7" y="29.5" width="3.7" height="3.5"></rect>
                                    </g>
                                    <path d="M0.5,59.5 C0.5,59.6 0.5,59.4 0.5,59.5 C0.6,59.5 0.7,59.6 0.8,59.6 C1.4,59.9 3.4,59.9 5.5,58.3 C8.7,55.9 10,54 14.4,54 C19.6,53.9 20.4,60 24.4,61.6 C27,62.6 33.7,63.6 35.1,64 L0.5,64.2" id="Path" fill="#E7E9F9"></path>
                                    <path d="M102.7,3.6 C102.7,3.7 102.7,3.6 102.7,3.6 C102.6,3.6 102.6,3.6 102.5,3.7 C102.1,3.9 100.8,3.9 99.5,2.9 C97.4,1.4 96.6,0.2 93.8,0.1 C90.5,0.1 90,3.9 87.5,4.9 C85.9,5.5 81.6,6.2 80.7,6.4 L102.6,6.5" id="Path" fill="#E7E9F9"></path>
                                </g>
                            </g>
                            <g transform="translate(448.000000, 237.000000)" id="Path">
                                <g transform="translate(21.000000, 14.000000)">
                                    <path d="M4.1,6.6 C4.1,6.6 7.3,3.3 3.5,0.5 C3.5,0.5 0.5,4.3 4.1,6.6 Z" fill="#3AA38F"></path>
                                    <path d="M3.8,6.8 C3.8,6.8 -0.6,6.8 0.3,2.3 C0.3,2.3 4.9,2.8 3.8,6.8 Z" fill="#4DC7B2" opacity="0.88"></path>
                                    <path d="M4.3,6.6 C4.3,6.6 8.7,6.6 7.8,2.1 C7.8,2 3.2,2.5 4.3,6.6 Z" fill="#4DC7B2" opacity="0.88"></path>
                                    <path d="M0.9,6.2 L7.2,6.2 C7.4,6.2 7.5,6.4 7.5,6.6 L6.5,10.9 C6.5,11 6.4,11.1 6.2,11.1 L2,11.1 C1.9,11.1 1.8,11 1.7,10.9 L0.6,6.6 C0.6,6.4 0.7,6.2 0.9,6.2 Z" fill="#F4C273"></path>
                                </g>
                                <g transform="translate(2.000000, 0.000000)">
                                    <path d="M9.9,14.5 C9.9,14.5 17.5,6.9 8.5,0.2 C8.5,0.2 1.3,9 9.9,14.5 Z" fill="#3AA38F"></path>
                                    <path d="M9,15 C9,15 -1.2,15 0.9,4.5 C0.9,4.5 11.7,5.6 9,15 Z" fill="#4DC7B2" opacity="0.88"></path>
                                    <path d="M10.3,14.4 C10.3,14.4 20.7,14.4 18.5,3.8 C18.5,3.8 7.7,4.9 10.3,14.4 Z" fill="#4DC7B2" opacity="0.88"></path>
                                    <path d="M2.4,13.6 L17.2,13.6 C17.6,13.6 18,14 17.9,14.4 L15.6,24.5 C15.5,24.8 15.3,25 14.9,25 L4.9,25 C4.6,25 4.3,24.8 4.2,24.5 L1.7,14.4 C1.7,14 2,13.6 2.4,13.6 Z" fill="#F4C273"></path>
                                </g>
                                <path d="M2.3,29.4 L63.7,29.4 L63.7,25.1 L2.3,25.1 C1.5,25.1 0.8,25.8 0.8,26.6 L0.8,27.8 C0.8,28.7 1.4,29.4 2.3,29.4 Z" fill="#5E5EB5"></path>
                            </g>
                        </g>
                        <g transform="translate(52.000000, 255.000000)">
                            <path d="M121,121.2 L53,134.3 L49.4,143.3 C49.4,143.3 56.2,157.7 58.4,154.6 C60.7,151.4 79.1,144.7 79.1,144.7 C79.1,144.7 94.9,143.8 98.9,142 C102.9,140.2 110.2,138.4 110.2,138.4 C117,138.4 130.9,132.1 130.9,132.1 L121,121.2 Z" id="Path" fill="#FFB9B9"></path>
                            <path d="M121,121.2 L53,134.3 L49.4,143.3 C49.4,143.3 56.2,157.7 58.4,154.6 C60.7,151.4 79.1,144.7 79.1,144.7 C79.1,144.7 94.9,143.8 98.9,142 C102.9,140.2 110.2,138.4 110.2,138.4 C117,138.4 130.9,132.1 130.9,132.1 L121,121.2 Z" id="Path" fill="#F9C8A7"></path>
                            <path d="M55.2,136.5 L36.7,138.3 C36.7,138.3 39.4,160.4 40.8,170.3 C42.2,180.2 54.8,177.5 57,177.1 C59.3,176.6 60.6,176.7 57,169.9 C53.4,163.1 62,151.9 62,151.9 C50.3,153.2 55.2,136.5 55.2,136.5 Z" id="Path" fill="#011B68"></path>
                            <path d="M163.4,109.9 L118.3,120.7 C117.4,125.7 129.6,135.1 129.6,135.1 L168.4,117.1 L163.4,109.9 Z" id="Path" fill="#4C4C78"></path>
                            <path d="M165.7,113.3 L164.9,112.2 C164,110.9 162.3,110.2 160.7,110.6 L122.5,119.8 C119.8,120.5 118.6,123.6 120.2,125.9 C122.3,128.8 125.5,131.8 127.6,133.6 C128.8,134.6 130.4,134.8 131.8,134.2 L164.1,119.2 C166.3,118.1 167.1,115.3 165.7,113.3 Z" id="Path" fill="#13135E"></path>
                            <path d="M11.9,132.4 C14.5,134.6 20.1,133.2 22,132.6 C22.4,132.5 22.7,132.4 22.7,132.4 C22.7,132.4 48.9,113 67.8,113 C79.4,113 87.5,111.3 92,110 C93.4,109.6 94.8,109.1 96.2,108.5 L107.9,127 C107.9,127 104.6,128.6 101,130 C97.6,131.4 93.9,132.6 92.1,132.4 C88.5,131.9 72.3,135.6 72.3,135.6 C70.9,137.4 45.7,141.5 45.7,141.5 C39.4,141 32.7,143.9 27.6,146.9 C24.6,148.6 21.8,150.6 19.1,152.8 L9.7,150.6 L5.6,140.7 C5.6,140.6 8.8,129.7 11.9,132.4 Z" id="Path" fill="#FFD2B3"></path>
                            <path d="M11.9,132.4 C14.5,134.6 20.1,133.2 22,132.6 C22,132.6 13.8,147.8 27.5,146.7 C24.5,148.4 21.7,150.4 19,152.6 L9.6,150.4 L5.5,140.5 C5.6,140.6 8.8,129.7 11.9,132.4 Z" id="Path" fill="#000000" opacity="0.1"></path>
                            <path d="M21.2,133.1 L5.3,131.6 C5.3,131.6 5.3,131.6 5.2,131.6 C3.1,131.4 1.2,133 1.1,135.2 C0.5,143.3 -0.7,161.9 0.7,171.6 C2.4,184.2 18.5,180.8 21.4,180.2 C24.3,179.6 26,179.6 21.4,171 C16.8,162.4 27.7,147.1 27.7,147.1 C12.7,148.9 21.2,133.1 21.2,133.1 Z" id="Path" fill="#011B68"></path>
                            <polygon id="Path" fill="#6C63FF" points="281.9 157.7 265.7 157.7 260.7 162.2 260.7 183.4 263.9 187.9 281 187.9 285.9 184.3 286.4 162.2"></polygon>
                            <path d="M286.4,162.6 L285.9,184.2 L283.6,184.7 C280.4,182.9 283.6,162.6 283.6,162.6 L286.4,162.6 Z" id="Path" fill="#FFFFFF" opacity="0.2"></path>
                            <path d="M246.8,182.9 L242.7,186.5 L225.6,186.5 L221.5,182.4 C217.9,173.8 222.4,160.8 222.4,160.8 L226,157.2 L243.1,157.2 L246.7,160.8 L246.8,182.9 Z" id="Path" fill="#6C63FF"></path>
                            <polygon id="Path" fill="#5E5EB5" points="281.9 157.7 265.7 157.7 260.7 162.2 260.7 183.4 263.9 187.9 281 187.9 285.9 184.3 286.4 162.2"></polygon>
                            <path d="M246.8,182.9 L242.7,186.5 L225.6,186.5 L221.5,182.4 C217.9,173.8 222.4,160.8 222.4,160.8 L226,157.2 L243.1,157.2 L246.7,160.8 L246.8,182.9 Z" id="Path" fill="#5E5EB5"></path>
                            <path d="M246.8,160.8 L246.8,182.9 L242.7,182.9 C239.1,177.5 242.7,161.7 242.7,161.7 L246.8,160.8 Z" id="Path" fill="#FFFFFF" opacity="0.2"></path>
                            <path d="M244,87.4 L242.2,95.5 L237.7,121.2 L244,169.9 L258.9,169.9 C258.9,169.9 254.4,151.9 257.1,137.5 C259.8,123.1 258.9,108.2 258.9,106 C258.9,103.7 260.7,86.2 260.7,86.2 L244,87.4 Z" id="Path" fill="#FFB9B9"></path>
                            <path d="M244,87.4 L242.2,95.5 L237.7,121.2 L244,169.9 L258.9,169.9 C258.9,169.9 254.4,151.9 257.1,137.5 C259.8,123.1 258.9,108.2 258.9,106 C258.9,103.7 260.7,86.2 260.7,86.2 L244,87.4 Z" id="Path" fill="#F9C8A7"></path>
                            <path d="M244.5,61.2 C244.5,69.8 238.7,88.2 240.9,90.5 C243.1,92.8 263.4,92.8 263.4,90.5 C263.4,88.2 267.5,74.7 267.5,74.7 C283.3,41.8 263.4,41.4 263.4,41.4 C250.3,38.7 244.5,52.7 244.5,61.2 Z" id="Path" fill="#CBCDDA"></path>
                            <path d="M244.5,61.2 C244.5,69.8 238.7,88.2 240.9,90.5 C243.1,92.8 263.4,92.8 263.4,90.5 C263.4,88.2 267.5,74.7 267.5,74.7 C283.3,41.8 263.4,41.4 263.4,41.4 C250.3,38.7 244.5,52.7 244.5,61.2 Z" id="Path" fill="#1D61CE"></path>
                            <path d="M96.2,108.6 L107.9,127.1 C107.9,127.1 104.6,128.7 101,130.1 C94.8,126.5 92.7,115.4 92,110.1 C93.5,109.7 94.9,109.2 96.2,108.6 Z" id="Path" fill="#000000" opacity="0.1"></path>
                            <path d="M96,106.6 C106.6,102.6 134.5,80.2 134.5,80.1 C153.3,60.7 166.2,62.4 171.9,64.8 C173,65.2 174.1,65.9 175.1,66.6 C168.3,87.3 188.2,99 188.6,104 C188.7,105.1 188.1,106.5 187,107.9 C185.1,110.5 181.9,113.3 179.2,115.4 C176.7,117.4 173.7,118.7 170.5,119.3 L105.2,131.1 C97.2,129.8 94.4,117.3 93.4,110.9 C93.2,109 94.3,107.3 96,106.6 Z" id="Path" fill="#13135E"></path>
                            <polygon id="Path" fill="#5E5EB5" points="265.2 159.5 249 159.5 244 164 244 185.2 247.2 189.7 264.3 189.7 269.3 186.1 269.7 164"></polygon>
                            <path d="M269.7,164.5 L269.2,186.1 L266.9,186.6 C263.7,184.8 266.9,164.5 266.9,164.5 L269.7,164.5 Z" id="Path" fill="#FFFFFF" opacity="0.2"></path>
                            <path d="M220.2,184.3 L216.1,187.9 L199,187.9 L194.9,183.8 C191.3,175.2 195.8,162.2 195.8,162.2 L199.4,158.6 L216.5,158.6 L220.1,162.2 L220.2,184.3 Z" id="Path" fill="#5E5EB5"></path>
                            <path d="M220.2,162.2 L220.2,184.3 L216.1,184.3 C212.5,178.9 216.1,163.1 216.1,163.1 L220.2,162.2 Z" id="Path" fill="#FFFFFF" opacity="0.2"></path>
                            <path d="M247.6,174.1 C247.8,176.4 246.2,178.4 244.2,178.4 L219.8,178.4 C217.9,178.4 216.3,176.7 216.3,174.6 C216.3,172.5 217.8,170.8 219.8,170.8 L244.2,170.8 C245.9,170.8 247.4,172.2 247.6,174.1 Z" id="Path" fill="#3D3D7F"></path>
                            <path d="M168.8,64.4 C169.8,64.7 170.9,64.8 171.9,64.8 C173,65.2 174.1,65.9 175.1,66.6 C168.3,87.3 188.2,99 188.6,104 C188.7,105.1 188.1,106.5 187,107.9 C183.6,106 178.5,103.8 173.7,100.4 C164.7,94.1 168.8,64.4 168.8,64.4 Z" id="Path" fill="#000000" opacity="0.1"></path>
                            <g id="Face" transform="translate(252.000000, 0.000000)">
                                <path d="M11.3,67.7 C13.3,65.5 13.8,64.4 15.1,61.6 C16.2,59.3 14.7,57.7 17.2,57.1 C20.8,56.3 27.7,52.4 30.6,50.3 C32.6,48.9 35,47.9 36.6,46.1 C37.3,46.4 38,46.7 38.8,46.9 C45.3,48.4 53,43.8 57.7,39.9 C64.4,34.4 69.4,24.8 62.9,17.4 C56.7,10.5 44.9,12 38.5,18.4 C36.8,17.2 34.8,18 32.7,19.3 C31,20.4 29.3,22.1 27.6,23.4 C25.9,24.7 24.5,26.7 22.9,28.1 C18.1,32.5 13.1,32.1 8.1,33.2 C6.7,34.7 5.9,35.6 5,37.5 C2.2,43.5 0.4,49.2 0.6,55.9 C0.7,60 1.6,63.9 1.8,67.9 C1.9,69.8 2.4,71.6 2.5,73.4 C2.6,74.7 2.2,76.4 2.8,77.6 C6.2,75.1 8.3,71 11.3,67.7 Z" id="Path" fill="#FFD2B3"></path>
                                <path d="M22.9,28.1 C25.4,27.7 30.8,24.6 34.5,22.7 C36.7,21.6 39.3,19.2 40.7,18.6 C44.2,17.2 47.8,18.7 47.5,22.2 C47.2,26.6 39.6,25.8 37,26.1 C33.2,26.5 29.6,28.1 28.1,31.9 C27.2,34.3 27.7,36.9 28.3,39.3 C28.6,40.4 29.1,41.5 29.2,42.6 C29.3,43.9 28.7,45 28.5,46.2 C28.2,47.4 28.3,48.8 28.5,50 C29.2,55 32.6,59.1 38,57.2 C39.5,56.7 40.2,56 41.4,55 C42.8,53.8 43.7,52.4 44.7,51 C45.5,49.8 46.9,50 47.8,48.9 C49.2,47.3 49,45 47.8,43.4 C45.9,41 43.3,40.1 40.3,39.8 C36.6,39.4 34.2,33.3 39,32.1 C42.6,31.2 45.7,28.8 48.5,26.4 C49.8,25.2 51.1,24.1 52.2,22.8 C52.6,22.3 55.1,18.8 55.7,18.8 C58.2,19 59.9,25.7 60.8,27.8 C61.6,29.6 62.6,33.1 63.4,33.9 C65.3,35.8 70.3,27.9 70.8,26.4 C72.5,20.8 70.2,14.3 66.6,10 C64.9,8 59.2,5.1 57.5,3.2 C55,0.5 53.5,-1.1 44.7,2.4 C40,4.3 40.4,5 38.9,6.4 C35.5,9.5 32.8,12.1 31,14.1 C28.1,16.8 24,24.8 22.9,28.1 Z" id="Path" fill="#222277"></path>
                            </g>
                            <path d="M270.2,64.4 C270.7,72.1 245.9,87.8 223.3,91.4 C204.2,94.4 195.5,107.5 193.3,111.4 C193,111.8 192.4,111.9 192.1,111.5 C189.9,108.4 183.7,106.1 175.6,100.4 C166.6,94.1 170.6,64.3 170.6,64.3 C170.6,64.3 188.2,69.7 207.6,43.1 C220.9,24.8 237.5,21 246.5,20.4 C249.9,20.2 253.2,21.3 255.8,23.4 C259.7,26.6 266.4,32 266.4,32 C266.4,32 255.6,71.8 261.7,67.8 C268.2,63.5 273.6,55.3 273.6,55.3 C275.3,57.8 270.2,64.4 270.2,64.4 Z" id="Path" fill="#2168F3"></path>
                            <g opacity="0.1" transform="translate(170.000000, 31.000000)" fill="#000000" id="Path">
                                <path d="M90.7,37.3 C87,35.7 96.3,1.2 96.3,1.2 L94.8,2.84217094e-14 C92.8,7.8 84.9,37.3 90.7,37.3 Z"></path>
                                <path d="M0.6,59.5 C1.4,63.9 2.9,67.6 5.5,69.4 C13.4,74.9 19.9,78 22,80.5 C22.3,80.9 23,80.8 23.2,80.4 C25.5,76.4 34.2,63.4 53.2,60.4 C75.7,56.8 100.5,41 100.1,33.4 C100.1,33.4 105.2,26.8 103.4,24.5 C103.4,24.5 102.4,28.4 99,31.3 C96.6,39.4 73.5,53.4 52.3,56.8 C32,60 23.4,74.7 21.9,77.5 C21.8,77.7 21.5,77.7 21.4,77.5 C19.9,74.8 13,71.8 4.5,65.8 C2.8,64.6 1.5,62.3 0.6,59.5 Z"></path>
                            </g>
                            <path d="M225.6,100.5 C225.6,100.5 226.9,90.8 227.7,82.8 C228.2,77.7 228.4,73.3 227.9,72.6 L247.3,77.1 L246.6,83.1 L245,97.8 C245,97.8 246.8,114 238.2,136.6 L235.9,162.7 C235.9,162.7 250.3,181.6 233.6,184.3 C217,187 222.3,160.4 222.3,160.4 C222.3,160.4 221.4,141.9 220,140.1 C218.8,138.3 221.5,105 225.6,100.5 Z" id="Path" fill="#FFD2B3"></path>
                            <path d="M228.7,51.8 C228.7,60.4 222.9,78.8 225.1,81.1 C227.3,83.4 247.6,83.4 247.6,81.1 C247.6,78.8 251.7,65.3 251.7,65.3 C267.5,32.4 247.6,32 247.6,32 C234.6,29.2 228.7,43.2 228.7,51.8 Z" id="Path" fill="#000000" opacity="0.1"></path>
                            <path d="M227.8,72.5 L247.2,77 L246.5,83 C242.1,83.9 231.8,83.8 227.6,82.7 C228.1,77.6 228.3,73.2 227.8,72.5 Z" id="Path" fill="#000000" opacity="0.1"></path>
                            <path d="M229.6,51.8 C229.6,60.4 223.8,78.8 226,81.1 C228.2,83.4 248.5,83.4 248.5,81.1 C248.5,78.8 252.6,65.3 252.6,65.3 C268.4,32.4 248.5,32 248.5,32 C235.5,29.2 229.6,43.2 229.6,51.8 Z" id="Path" fill="#1D61CE"></path>
                        </g>
                        <g opacity="0.5" transform="translate(401.000000, 372.000000)">
                            <polygon id="Path" fill="#6C63FF" points="16.5 0.2 2.5 0.5 0.2 3.6 0.2 14.5 3.1 16.5 16.5 16.5 19.4 13.4 19.4 3.1"></polygon>
                            <path d="M16.2,1.9 C16.2,1.9 3.3,3.9 2.2,1.9 L2.5,0.5 L16.3,0.2 L16.3,1.9 L16.2,1.9 Z" id="Path" fill="#FFFFFF" opacity="0.2"></path>
                            <path d="M17.7,31.7 L20,34 L20,44.9 L17.7,47.2 C17.7,47.2 9.4,50.1 3.9,47.8 L1.3,45.2 L1.3,34.3 L3.6,31.7 L17.7,31.7 Z" id="Path" fill="#6C63FF"></path>
                            <path d="M17.1,34.3 C17.1,34.3 7.1,36.6 3.6,34.3 L3.6,31.7 L17.6,31.7 L17.1,34.3 Z" id="Path" fill="#FFFFFF" opacity="0.2"></path>
                            <path d="M12.2,16.5 L12.2,32 C12.1,33.3 11,34.3 9.8,34.2 C8.5,34.3 7.4,33.3 7.4,32 L7.4,16.5 C7.4,15.2 8.7,14.2 10.1,14.3 C11.3,14.3 12.2,15.3 12.2,16.5 Z" id="Path" fill="#6C63FF"></path>
                            <polygon id="Path" fill="#6C63FF" points="39 0.6 25 0.9 22.7 4.1 22.7 15 25.6 17 39 17 41.9 13.8 41.9 3.5"></polygon>
                            <path d="M38.7,2.4 C38.7,2.4 25.8,4.4 24.7,2.4 L25,1 L38.8,0.7 L38.8,2.4 L38.7,2.4 Z" id="Path" fill="#FFFFFF" opacity="0.2"></path>
                            <path d="M40.2,32.2 L42.5,34.5 L42.5,45.4 L40.2,47.7 C40.2,47.7 31.9,50.6 26.4,48.3 L23.8,45.7 L23.8,34.8 L26.1,32.2 L40.2,32.2 Z" id="Path" fill="#6C63FF"></path>
                            <path d="M39.6,34.7 C39.6,34.7 29.6,37 26.1,34.7 L26.1,32.1 L40.1,32.1 L39.6,34.7 Z" id="Path" fill="#FFFFFF" opacity="0.2"></path>
                            <path d="M34.7,16.9 L34.7,32.4 C34.6,33.7 33.5,34.7 32.3,34.6 C31,34.7 29.9,33.7 29.9,32.4 L29.9,16.9 C29.9,15.6 31.2,14.6 32.6,14.7 C33.7,14.8 34.7,15.7 34.7,16.9 Z" id="Path" fill="#6C63FF"></path>
                            <polygon id="Path" fill="#6C63FF" points="67.7 8.9 56.1 9.2 54.2 11.8 54.2 20.7 56.6 22.4 67.7 22.4 70 19.8 70 11.3"></polygon>
                            <path d="M67.4,10.3 C67.4,10.3 56.8,12 55.8,10.3 L56,9.1 L67.3,8.9 L67.4,10.3 Z" id="Path" fill="#FFFFFF" opacity="0.2"></path>
                            <path d="M68.6,34.9 L70.5,36.8 L70.5,45.8 L68.6,47.7 C68.6,47.7 61.8,50.1 57.3,48.2 L55.2,46.1 L55.2,37.1 L57.1,35 L68.6,35 L68.6,34.9 Z" id="Path" fill="#6C63FF"></path>
                            <path d="M68.1,37 C68.1,37 59.8,38.9 57,37 L57,34.9 L68.6,34.9 L68.1,37 Z" id="Path" fill="#FFFFFF" opacity="0.2"></path>
                            <path d="M64.1,22.3 L64.1,35.1 C64,36.1 63.1,37 62.1,36.9 C61,37 60.1,36.1 60.1,35.1 L60.1,22.3 C60.2,21.2 61.1,20.4 62.2,20.5 C62.3,20.5 62.3,20.5 62.4,20.5 C63.3,20.6 64.1,21.3 64.1,22.3 Z" id="Path" fill="#6C63FF"></path>
                            <polygon id="Path" fill="#6C63FF" points="86.2 9.3 74.6 9.5 72.7 12.1 72.7 21.1 75.1 22.7 86.2 22.7 88.5 20.1 88.5 11.7"></polygon>
                            <path d="M85.9,10.7 C85.9,10.7 75.3,12.4 74.3,10.7 L74.5,9.5 L85.8,9.3 L85.9,10.7 Z" id="Path" fill="#FFFFFF" opacity="0.2"></path>
                            <path d="M87.1,35.2 L89,37.1 L89,46.1 L87.1,48 C87.1,48 80.3,50.4 75.8,48.5 L73.7,46.4 L73.7,37.4 L75.6,35.3 L87.1,35.2 Z" id="Path" fill="#6C63FF"></path>
                            <path d="M86.6,37.4 C86.6,37.4 78.3,39.3 75.5,37.4 L75.5,35.3 L87.1,35.3 L86.6,37.4 Z" id="Path" fill="#FFFFFF" opacity="0.2"></path>
                            <path d="M82.6,22.7 L82.6,35.5 C82.5,36.6 81.6,37.4 80.6,37.3 C79.5,37.4 78.6,36.5 78.6,35.5 L78.6,22.7 C78.7,21.6 79.6,20.8 80.7,20.9 C80.8,20.9 80.8,20.9 80.9,20.9 C81.8,20.9 82.6,21.7 82.6,22.7 Z" id="Path" fill="#6C63FF"></path>
                        </g>
                    </g>
                </g>
            </g>
        </g>
    </g>
</svg>