<?xml version="1.0" encoding="UTF-8"?>
<svg width="512px" height="498px" viewBox="0 0 512 498" version="1.1" xmlns="http://www.w3.org/2000/svg" xmlns:xlink="http://www.w3.org/1999/xlink">
    <!-- Generator: Sketch 52.5 (67469) - http://www.bohemiancoding.com/sketch -->
    <title>new/health_check</title>
    <desc>Created with Sketch.</desc>
    <defs>
        <rect id="path-1" x="0" y="0" width="512" height="498"></rect>
    </defs>
    <g id="Page-1" stroke="none" stroke-width="1" fill="none" fill-rule="evenodd">
        <g id="Unlimited-Health-Check" transform="translate(-153.000000, -417.000000)">
            <g id="health_check" transform="translate(153.000000, 417.000000)">
                <mask id="mask-2" fill="white">
                    <use xlink:href="#path-1"></use>
                </mask>
                <use id="Rectangle" fill="#FFFFFF" opacity="0.00646391369" xlink:href="#path-1"></use>
                <g id="Group-3" mask="url(#mask-2)">
                    <g transform="translate(67.000000, 49.000000)">
                        <g id="Group" transform="translate(0.000000, 71.000000)">
                            <rect id="Rectangle" fill="#F8FDFF" x="2.9" y="3.1" width="107.4" height="169.9"></rect>
                            <polygon id="Path" fill="#DFE7F4" opacity="0.6" points="3.3 146.5 18 146.5 17.8 131.5 33 131.5 33 146.5 47.2 146.5 47.2 121.3 58.7 121.3 58.7 106.8 75.5 106.8 75.5 134.7 78.2 134.4 78.2 124 88.7 124 88.7 147.8 94 147.8 94 140 109.2 140 110.3 173 2.9 173"></polygon>
                            <g transform="translate(0.000000, 2.000000)" fill="#EDF0F2" id="Rectangle">
                                <rect transform="translate(66.702110, 30.298930) rotate(-45.717122) translate(-66.702110, -30.298930) " x="64.702114" y="-10.6009892" width="3.9999921" height="81.7998384"></rect>
                                <rect transform="translate(70.241010, 53.273420) rotate(-45.348421) translate(-70.241010, -53.273420) " x="68.2409922" y="-2.47707617" width="4.0000356" height="111.500992"></rect>
                                <rect transform="translate(75.559740, 72.192870) rotate(-44.963539) translate(-75.559740, -72.192870) " x="73.5596174" y="23.3898774" width="4.00024529" height="97.6059851"></rect>
                                <rect transform="translate(27.202525, 116.180750) rotate(-45.717122) translate(-27.202525, -116.180750) " x="25.202529" y="82.7308161" width="3.9999921" height="66.8998679"></rect>
                                <rect transform="translate(41.690770, 141.336030) rotate(-45.603688) translate(-41.690770, -141.336030) " x="39.6908196" y="114.636692" width="3.99990082" height="53.3986759"></rect>
                                <rect transform="translate(20.770975, 139.231645) rotate(-46.645140) translate(-20.770975, -139.231645) " x="18.7710183" y="112.68222" width="3.99991332" height="53.0988493"></rect>
                            </g>
                            <path d="M0.4,0.7 L0.4,175.5 L112.9,175.5 L112.9,0.7 L0.4,0.7 Z M107.7,170.5 L5.5,170.5 L5.5,5.5 L107.7,5.5 L107.7,170.5 Z" id="Shape" fill="#41347F" fill-rule="nonzero"></path>
                            <g transform="translate(5.000000, 28.000000)">
                                <ellipse id="Oval" fill="#FFEAA6" cx="88.5" cy="76.3" rx="4.5" ry="4.3"></ellipse>
                                <g transform="translate(4.000000, 80.000000)" fill="#F8FDFF" id="Rectangle">
                                    <rect x="0.5" y="42.1" width="4.8" height="4.6"></rect>
                                    <rect x="11.2" y="26" width="3.7" height="3.5"></rect>
                                    <rect x="17.8" y="26" width="3.7" height="3.5"></rect>
                                    <rect x="11.2" y="31.5" width="3.7" height="3.5"></rect>
                                    <rect x="17.8" y="31.5" width="3.7" height="3.5"></rect>
                                    <rect x="11.2" y="37.1" width="3.7" height="3.5"></rect>
                                    <rect x="17.8" y="37.1" width="3.7" height="3.5"></rect>
                                    <rect x="40.6" y="16.6" width="3.7" height="3.5"></rect>
                                    <rect x="47.1" y="16.6" width="3.7" height="3.5"></rect>
                                    <rect x="40.6" y="22.2" width="3.7" height="3.5"></rect>
                                    <rect x="47.1" y="22.2" width="3.7" height="3.5"></rect>
                                    <rect x="40.6" y="27.8" width="3.7" height="3.5"></rect>
                                    <rect x="47.1" y="27.8" width="3.7" height="3.5"></rect>
                                    <rect x="55" y="0.7" width="3.7" height="3.5"></rect>
                                    <rect x="61.5" y="0.7" width="3.7" height="3.5"></rect>
                                    <rect x="55" y="6.2" width="3.7" height="3.5"></rect>
                                    <rect x="61.5" y="6.2" width="3.7" height="3.5"></rect>
                                    <rect x="55" y="11.8" width="3.7" height="3.5"></rect>
                                    <rect x="61.5" y="11.8" width="3.7" height="3.5"></rect>
                                    <rect x="73.7" y="18.3" width="3.7" height="3.5"></rect>
                                    <rect x="73.7" y="23.9" width="3.7" height="3.5"></rect>
                                    <rect x="73.7" y="29.5" width="3.7" height="3.5"></rect>
                                </g>
                                <path d="M0.5,59.5 C0.5,59.6 0.5,59.4 0.5,59.5 C0.6,59.5 0.7,59.6 0.8,59.6 C1.4,59.9 3.4,59.9 5.5,58.3 C8.7,55.9 10,54 14.4,54 C19.6,53.9 20.4,60 24.4,61.6 C27,62.6 33.7,63.6 35.1,64 L0.5,64.2" id="Path" fill="#E7E9F9"></path>
                                <path d="M102.7,3.6 C102.7,3.7 102.7,3.6 102.7,3.6 C102.6,3.6 102.6,3.6 102.5,3.7 C102.1,3.9 100.8,3.9 99.5,2.9 C97.4,1.4 96.6,0.2 93.8,0.1 C90.5,0.1 90,3.9 87.5,4.9 C85.9,5.5 81.6,6.2 80.7,6.4 L102.6,6.5" id="Path" fill="#E7E9F9"></path>
                            </g>
                        </g>
                        <g id="book-health-check-img" transform="translate(57.000000, 0.000000)">
                            <g id="Group" transform="translate(0.000000, 128.000000)">
                                <path d="M180.394391,256.050711 C180.135761,257.732701 181.558225,270.800474 180.653021,271.576777 C179.618501,272.094313 159.31605,271.447393 156.600435,271.576777 C150.393316,271.835545 137.591134,272.353081 137.073874,268.34218 C136.297984,262.778673 152.203726,262.131754 154.91934,258.897156 C157.376325,255.791943 163.195499,253.592417 163.195499,253.592417 C170.695767,250.099052 172.118232,250.745972 179.101241,253.333649 C179.489186,253.463033 180.653021,254.109953 180.394391,254.627488 C180.265076,254.756872 180.394391,255.921327 180.394391,256.050711 Z" id="Shape" fill="#191818"></path>
                                <path d="M254.879816,163.929384 C250.741737,169.492891 164.876594,168.45782 161.643719,187.477251 C157.634955,210.636967 160.609199,234.70237 156.47112,256.050711 C156.21249,257.473934 173.928642,262.778673 181.17028,261.872986 C181.17028,261.872986 185.56699,198.863033 192.808628,198.474882 C209.878205,197.310427 260.052415,199.121801 263.28529,185.148341 C266.130219,172.209953 264.707755,170.269194 254.879816,163.929384 Z" id="Shape" fill="#203054"></path>
                                <path d="M83.4081591,52.4004739 C82.5029543,56.5407583 81.9856944,61.7161137 78.623505,64.6919431 C77.8476152,65.3388626 84.4426789,67.7971564 86.1237736,69.0909953 C86.6410335,69.4791469 95.0465069,75.6895735 94.658562,74.1369668 C92.8481523,68.5734597 95.9517117,61.9748815 95.8223967,62.1042654 C94.1413021,62.7511848 84.3133639,52.1417062 83.4081591,52.4004739 Z" id="Shape" fill="#FBD2C0"></path>
                                <path d="M119.228407,76.0777251 C120.780187,70.7729858 113.538548,63.656872 109.271154,59.5165877 C108.753894,58.9990521 108.365949,58.6109005 107.978004,58.2227488 L107.848689,58.0933649 L107.978004,57.963981 L108.495264,56.7995261 L108.624579,56.92891 L108.883209,57.0582938 C109.271154,57.4464455 109.788414,57.963981 110.305674,58.4815166 C114.831698,62.8805687 122.461282,70.3848341 120.650872,76.5952607 L119.228407,76.0777251 Z" id="Shape" fill="#54402D"></path>
                                <path d="M121.297447,27.4293839 C121.038817,27.9469194 121.685392,39.9796209 121.038817,44.2492891 C118.840462,58.9990521 111.469509,69.6085308 95.4344518,65.985782 C88.3221282,64.4331754 80.8218596,57.963981 79.1407649,50.5890995 C78.3648751,47.6132701 71.2525514,43.8611374 74.3561108,30.663981 C76.6837804,20.9601896 78.623505,17.9843602 87.1582934,12.4208531 C93.8826721,8.02180095 108.365949,12.6796209 114.055808,17.4668246 C116.642108,19.6663507 122.849227,24.3241706 121.297447,27.4293839 Z" id="Shape" fill="#FDC6A7"></path>
                                <path d="M91.9429475,42.5672986 C92.0722625,46.4488152 89.4859629,46.7075829 89.227333,42.4379147 C88.3221282,31.4402844 73.9681659,27.9469194 79.7873398,44.6374408 C80.1752847,45.6725118 79.3993949,52.1417062 79.3993949,52.1417062 C69.4421418,53.435545 65.9506374,10.8682464 80.5632296,9.83317536 C87.8048683,4.14028436 101.382941,-3.36398104 124.530321,13.9734597 C129.96155,18.1137441 131.384015,27.5587678 121.814707,27.5587678 C106.03828,27.8175355 91.0377426,22.6421801 91.9429475,42.5672986 Z" id="Shape" fill="#54402D"></path>
                                <path d="M77.8476152,65.4682464 C78.3648751,63.656872 79.3993949,62.7511848 79.7873398,60.4222749 C79.9166548,59.5165877 91.5550025,68.3146919 92.8481523,69.6085308 C93.2360972,69.9966825 96.9862315,72.1962085 96.9862315,72.5843602 C97.2448615,74.3957346 97.5034914,78.0184834 96.8569165,79.9592417 C96.8569165,79.9592417 89.356648,72.5843602 88.8393881,72.1962085 C86.1237736,70.2554502 83.925419,68.3146919 81.0804895,66.6327014 C80.4339147,65.985782 79.1407649,64.9507109 77.8476152,65.4682464 C77.9769301,65.3388626 77.9769301,65.3388626 77.8476152,65.4682464 Z" id="Shape" fill="#04B6A0"></path>
                                <path d="M121.168132,254.627488 C121.426762,256.309479 120.262927,270.929858 121.168132,271.706161 C122.331967,272.223697 132.54785,271.835545 132.54785,271.835545 C132.935795,269.247867 141.599898,271.576777 144.315512,271.706161 C150.522631,271.964929 160.867829,272.870616 163.842074,269.765403 C165.393853,268.212796 148.324277,263.68436 145.608662,260.449763 C143.151678,257.34455 138.237709,252.298578 138.237709,252.298578 C130.73744,248.805213 129.314975,249.452133 122.331967,252.03981 C121.944022,252.169194 120.780187,252.816114 121.038817,253.333649 C121.297447,253.333649 121.168132,254.627488 121.168132,254.627488 Z" id="Shape" fill="#54402D"></path>
                                <path d="M111.081564,254.627488 C111.340194,256.309479 110.176359,270.929858 111.081564,271.706161 C112.245399,272.223697 122.461282,271.835545 122.461282,271.835545 C122.849227,269.247867 131.51333,271.576777 134.228944,271.706161 C140.436063,271.964929 150.781261,272.870616 153.755506,269.765403 C155.307285,268.212796 138.237709,263.68436 135.522094,260.449763 C133.06511,257.34455 128.151141,252.298578 128.151141,252.298578 C120.650872,248.805213 119.228407,249.452133 112.245399,252.03981 C111.857454,252.169194 110.693619,252.816114 110.952249,253.333649 C111.210879,253.333649 111.081564,254.627488 111.081564,254.627488 Z" id="Shape" fill="#54402D"></path>
                                <path d="M54.1829747,165.223223 C57.803794,170.78673 122.978542,168.845972 125.694156,187.865403 C129.18566,211.025118 127.892511,239.489573 131.384015,260.837915 C131.642645,262.261137 115.090328,263.166825 108.883209,262.261137 C108.883209,262.261137 106.426225,199.380569 100.089791,198.863033 C85.3478837,197.698578 49.6569505,200.41564 46.9413361,186.44218 C44.4843515,173.503791 45.7775013,171.563033 54.1829747,165.223223 Z" id="Shape" fill="#314766"></path>
                                <path d="M56.8985892,163.541232 C61.0366684,169.104739 136.685929,167.163981 140.048118,186.183412 C144.056883,209.343128 142.634418,237.807583 146.643182,259.155924 C146.901812,260.579147 127.633881,261.484834 120.521557,260.579147 C120.521557,260.579147 117.676628,197.698578 110.305674,197.181043 C93.2360972,196.016588 51.7259901,198.733649 48.4931158,184.76019 C45.5188713,171.821801 47.070651,169.881043 56.8985892,163.541232 Z" id="Shape" fill="#3B5075"></path>
                                <path d="M96.9862315,101.825118 C102.41746,113.987204 88.4514431,167.552133 84.5719939,168.069668 C74.6147408,169.492891 63.4936529,165.223223 63.6229679,160.565403 C63.7522828,158.754028 77.2010403,111.658294 78.75282,108.294313 C82.6322693,100.272512 84.8186367,97.7412322 94,98 C94,98 96.9862315,101.825118 96.9862315,101.825118 Z" id="Shape" fill="#00D6BB"></path>
                                <path d="M90.5204827,139.734597 C88.8393881,146.980095 63.8815978,198.863033 63.6229679,198.863033 C49.9155805,198.474882 47.7172259,196.534123 36.3375081,185.924645 C36.3375081,185.665877 54.5709196,152.414218 54.0536597,141.15782 C53.7950297,134.429858 58.9676288,110.364455 59.0969437,103.895261 L59.0969437,103.118957 C61.1659833,91.8625592 64.6574877,77.5009479 72.1577562,68.5734597 C74.4854258,65.8563981 75.1445653,63.4018475 76.8130954,64.3037915 C104,79 99,79 90.5204827,139.734597 Z" id="Shape" fill="#00D6BB"></path>
                                <g transform="translate(20.690396, 205.720379)">
                                    <polygon id="Rectangle-path" fill="#BFD0E2" points="39.5703825 11.6445498 48.6224307 11.6445498 48.6224307 48.2601896 39.5703825 48.2601896"></polygon>
                                    <polygon id="Rectangle-path" fill="#B6C8D8" points="36.0788781 46.3194313 52.372565 46.3194313 52.372565 55.6350711 36.0788781 55.6350711"></polygon>
                                    <polygon id="Rectangle-path" fill="#BFD0E2" points="6.72437872 50.9772512 81.7270644 50.9772512 81.7270644 58.0933649 6.72437872 58.0933649"></polygon>
                                    <path d="M6.46574877,65.985782 C9.82793813,65.985782 12.5435526,63.3981043 12.5435526,60.1635071 C12.5435526,56.92891 9.82793813,54.3412322 6.46574877,54.3412322 C3.10355941,54.3412322 0.387944926,56.92891 0.387944926,60.1635071 C0.387944926,63.3981043 3.10355941,65.985782 6.46574877,65.985782 Z" id="Shape" fill="#B6C8D8"></path>
                                    <ellipse id="Oval" fill="#B6C8D8" cx="81.3391195" cy="60.292891" rx="6.07780384" ry="5.82227488"></ellipse>
                                    <polygon id="Rectangle-path" fill="#B6C8D8" points="37.3720279 0.905687204 50.9501003 0.905687204 50.9501003 15.3966825 37.3720279 15.3966825"></polygon>
                                </g>
                                <path d="M18.2334115,189.676777 C4.65533911,220.340758 113.021288,213.354028 114.831698,204.944076 C118.840462,187.218483 75.5199456,196.145972 35.6909332,187.994787 C35.8202482,186.312796 35.9495631,184.501422 35.9495631,182.301896 C35.9495631,165.223223 33.1046337,52.9180095 1.0345198,81.9 C-4.78465409,87.4635071 18.1040965,117.351185 18.2334115,189.676777 Z" id="Shape" fill="#BFD0E2"></path>
                                <path d="M194.748353,18.8900474 C194.877668,19.4075829 191.644793,31.0521327 191.256849,35.4511848 C190.093014,50.3303318 195.006983,62.3630332 211.429985,62.3630332 C218.671623,62.3630332 227.465042,57.8345972 230.827231,50.9772512 C232.120381,48.2601896 240.008594,46.0606635 239.879279,32.6047393 C239.749964,22.6421801 238.58613,19.4075829 231.344491,12.0327014 C225.783947,6.33981043 210.52478,7.5042654 203.929716,10.8682464 C200.955472,12.4208531 193.972463,15.5260664 194.748353,18.8900474 Z" id="Shape" fill="#FDC6A7"></path>
                                <path d="M198.369172,21.607109 C192.162053,26.0061611 190.868904,18.3725118 190.093014,18.3725118 C190.093014,18.3725118 186.730824,16.1729858 190.222329,14.3616114 C188.670549,12.8090047 188.799864,10.6094787 190.480959,9.83317536 C191.515478,9.4450237 190.998219,7.11611374 192.679313,7.11611374 C193.584518,7.11611374 194.489723,4.52843602 196.688078,5.30473934 C198.369172,5.82227488 196.041503,1.68199052 202.507251,3.23459716 C202.507251,3.23459716 204.705606,0.388151659 206.774646,1.94075829 C207.162591,1.29383886 206.516016,-0.129383886 210.136835,0.388151659 C210.395465,0.388151659 212.981764,1.68199052 212.981764,1.68199052 C214.792174,-1.16445498 219.964773,1.03507109 219.706143,2.45829384 C219.706143,0.388151659 223.197647,0.258767773 224.878742,2.58767773 C226.171892,2.58767773 227.465042,2.97582938 228.758191,3.88151659 C230.439286,3.88151659 232.508326,4.65781991 232.379011,6.21042654 C232.379011,6.21042654 233.542845,5.82227488 234.318735,6.08104265 C238.58613,7.63364929 234.96531,8.79810427 237.81024,9.31563981 C240.913799,9.96255924 239.103389,12.8090047 240.784484,13.4559242 C242.724209,14.2322275 242.465579,16.6905213 241.172429,16.9492891 C242.853524,17.4668246 243.629414,18.8900474 242.465579,20.442654 C242.336264,20.5720379 245.439823,23.8066351 243.241469,24.7123223 C243.241469,24.7123223 244.275988,26.5236967 243.370784,27.6881517 C243.500099,28.464455 243.370784,29.4995261 242.853524,31.1815166 C241.948319,34.0279621 247.379548,35.4511848 243.629414,38.8151659 C242.594894,39.7208531 243.241469,44.8962085 241.043114,45.0255924 C240.655169,45.0255924 240.008594,49.1658768 236.905035,50.5890995 C235.094625,51.4947867 238.456815,50.5890995 235.353255,51.6241706 C234.18942,52.0123223 235.48257,55.8938389 229.146136,52.7886256 C224.232167,50.3303318 229.922026,49.0364929 229.663396,45.4137441 C229.534081,41.6616114 233.93079,41.6616114 233.801475,34.2867299 C233.67216,28.5938389 224.102852,28.464455 224.620112,34.9336493 C224.878742,38.9445498 224.102852,37.9094787 223.973537,40.1090047 C223.973537,40.1090047 222.033813,42.4379147 220.869978,38.685782 C219.576828,34.4161137 223.973537,31.6990521 221.128608,31.4402844 C217.637104,31.0521327 218.930253,28.8526066 220.223403,27.4293839 C218.800938,26.3943128 219.447513,28.0763033 217.119844,24.4535545 C217.119844,24.4535545 217.249159,26.3943128 214.662859,23.936019 C213.499024,22.771564 209.619575,27.3 208.585055,22.5127962 C206.516016,21.607109 204.705606,24.97109 201.472732,21.2189573 C201.472732,21.2189573 198.498487,21.4777251 198.369172,21.607109 Z" id="Shape" fill="#374D5B"></path>
                                <path d="M228.370246,53.9530806 C228.887506,58.0933649 228.758191,63.3981043 231.732436,66.6327014 C232.379011,67.2796209 224.361482,69.0909953 222.551073,70.2554502 C222.033813,70.6436019 212.981764,75.8189573 213.628339,74.3957346 C215.956009,69.0909953 212.07656,61.0691943 212.205875,61.0691943 C213.886969,61.9748815 227.594357,53.6943128 228.370246,53.9530806 Z" id="Shape" fill="#FDC6A7"></path>
                                <path d="M230.051341,66.2445498 C227.206412,66.2445498 219.447513,67.150237 215.309434,71.9374408 C212.205875,75.4308057 209.878205,75.9483412 209.360945,81.2530806 C206.774646,104.024645 214.274914,129.383886 210.78341,158.624645 C208.326425,178.808531 207.67985,168.45782 237.680925,168.45782 C247.379548,168.45782 245.569138,168.328436 249.448587,150.990995 C253.328037,133.782938 250.095162,94.450237 240.913799,78.1478673 C239.491334,76.0777251 234.70668,66.2445498 230.051341,66.2445498 Z" id="Shape" fill="#3AACF9"></path>
                                <path d="M157.376325,256.568246 C157.117695,258.250237 158.54016,271.318009 157.634955,272.094313 C156.600435,272.611848 136.297984,271.964929 133.58237,272.094313 C127.375251,272.353081 114.573068,272.870616 114.055808,268.859716 C113.279918,263.296209 129.18566,262.649289 131.901275,259.414692 C134.358259,256.309479 140.177433,254.109953 140.177433,254.109953 C147.677702,250.616588 149.100167,251.263507 156.083175,253.851185 C156.47112,253.980569 157.634955,254.627488 157.376325,255.145024 C157.24701,255.274408 157.376325,256.438863 157.376325,256.568246 Z" id="Shape" fill="#191818"></path>
                                <path d="M234.318735,163.153081 C230.180656,168.716588 144.315512,167.681517 141.082638,186.700948 C137.073874,209.860664 140.048118,233.926066 135.910039,255.274408 C135.651409,256.69763 153.367561,262.00237 160.609199,261.096682 C160.609199,261.096682 165.005909,198.08673 172.247547,197.698578 C189.317124,196.534123 239.491334,198.345498 242.724209,184.372038 C245.698453,171.433649 244.146673,169.492891 234.318735,163.153081 Z" id="Shape" fill="#203054"></path>
                                <path d="M212.852449,128.478199 C212.464505,128.995735 211.81793,142.969194 211.171355,146.591943 C209.23163,157.718957 210.654095,156.942654 205.093551,167.034597 C206.774646,168.069668 213.111079,169.234123 218.930253,173.503791 C223.197647,176.609005 226.818467,180.619905 231.732436,182.43128 C240.913799,185.795261 239.232704,184.501422 248.026123,183.854502 C249.707217,183.725118 248.543383,180.10237 248.543383,176.738389 C248.672698,169.363507 248.931328,166.517062 248.672698,158.754028 C248.672698,156.554502 250.095162,134.300474 249.965847,134.17109 C243.888044,132.877251 239.620649,129.772038 230.697916,128.995735 C228.370246,128.736967 216.214639,127.701896 213.499024,128.736967 L212.852449,128.478199 Z" id="Shape" fill="#3AACF9"></path>
                                <path d="M80.1752847,144.780569 C99.1845861,146.721327 102.41746,165.999526 96.9862315,195.75782 C96.2103417,200.286256 86.7703485,201.321327 88.1928132,194.205213 C95.6930818,155.907583 92.8481523,151.249763 45.5188713,149.955924 C38.7944926,149.82654 27.8027197,149.438389 21.8542308,149.179621 C18.6213565,149.050237 15.905742,140.5109 20.4317661,140.5109 C23.5353255,140.5109 75.0026857,144.263033 80.1752847,144.780569 Z" id="Shape" fill="#B0C1D1"></path>
                                <g transform="translate(177.161516, 205.720379)">
                                    <polygon id="Rectangle-path" fill="#BFD0E2" points="39.4410675 11.6445498 48.4931158 11.6445498 48.4931158 48.2601896 39.4410675 48.2601896"></polygon>
                                    <polygon id="Rectangle-path" fill="#B6C8D8" points="35.9495631 46.3194313 52.24325 46.3194313 52.24325 55.6350711 35.9495631 55.6350711"></polygon>
                                    <polygon id="Rectangle-path" fill="#BFD0E2" points="6.59506374 50.9772512 81.5977494 50.9772512 81.5977494 58.0933649 6.59506374 58.0933649"></polygon>
                                    <ellipse id="Oval" fill="#B6C8D8" cx="81.7270644" cy="60.292891" rx="6.07780384" ry="5.82227488"></ellipse>
                                    <path d="M6.98300867,65.985782 C10.345198,65.985782 13.0608125,63.3981043 13.0608125,60.1635071 C13.0608125,56.92891 10.345198,54.3412322 6.98300867,54.3412322 C3.62081931,54.3412322 0.905204827,56.92891 0.905204827,60.1635071 C0.775889852,63.3981043 3.62081931,65.985782 6.98300867,65.985782 Z" id="Shape" fill="#B6C8D8"></path>
                                    <polygon id="Rectangle-path" fill="#B6C8D8" points="37.2427129 0.905687204 50.8207853 0.905687204 50.8207853 15.3966825 37.2427129 15.3966825"></polygon>
                                </g>
                                <path d="M267.811314,188.641706 C281.389386,219.305687 173.023437,212.318957 171.213027,203.909005 C167.204263,186.183412 210.52478,195.1109 250.353792,186.959716 C250.224477,185.277725 250.095162,183.466351 250.095162,181.266825 C250.095162,164.188152 252.940092,51.8829384 285.010206,80.8649289 C290.82938,86.428436 267.940629,116.445498 267.811314,188.641706 Z" id="Shape" fill="#BFD0E2"></path>
                                <path d="M205.869441,143.745498 C186.860139,145.686256 183.627265,164.964455 189.058494,194.722749 C189.834384,199.251185 199.274377,200.286256 197.851912,193.170142 C190.351644,154.872512 193.196573,150.214692 240.525854,148.920853 C247.250233,148.791469 258.242006,148.403318 264.190495,148.14455 C267.423369,148.015166 270.138984,139.475829 265.612959,139.475829 C262.5094,139.475829 211.04204,143.227962 205.869441,143.745498 Z" id="Shape" fill="#B0C1D1"></path>
                                <path d="M228.628876,80.3473934 C229.404766,92.2507109 228.499561,108.553081 227.982302,121.232701 C227.852987,124.208531 214.404229,150.085308 203.153826,166.646445 L197.463967,163.411848 C198.757117,160.824171 214.921489,122.397156 214.792174,120.973934 C214.404229,113.987204 211.81793,87.3341232 211.5593,79.0535545 C211.5593,75.3014218 227.723672,70.514218 228.628876,80.3473934 Z" id="Shape" fill="#FDC6A7"></path>
                                <path d="M221.387238,71.0317536 C208.19711,70.1260664 209.74889,84.4876777 209.878205,93.0270142 C209.878205,95.0971564 212.723134,111.52891 212.723134,111.52891 C223.326962,111.140758 222.809703,110.235071 234.060105,112.046445 C235.22394,112.175829 233.542845,95.0971564 233.801475,92.121327 C234.96531,81.6412322 226.430522,71.4199052 221.387238,71.0317536 Z" id="Shape" fill="#2196F3"></path>
                                <path d="M199.791637,159.271564 C197.076022,161.212322 188.153289,165.223223 187.377399,167.293365 C186.342879,170.527962 189.187809,176.220853 190.480959,177.77346 C191.774108,179.196682 197.593282,182.043128 200.308897,178.420379 C204.705606,172.46872 203.153826,171.174882 205.093551,164.964455 C205.998756,161.988626 201.472732,161.082938 199.791637,159.271564 Z" id="Shape" fill="#FBD2C0"></path>
                                <path d="M84.7013089,43.214218 C84.7013089,44.2492891 84.8306238,45.2843602 84.9599388,46.3194313 C86.1237736,54.6 91.0377426,61.9748815 97.2448615,67.2796209 C103.45198,72.5843602 110.822934,75.6895735 117.288683,75.6895735 C118.193887,75.6895735 119.099092,75.6895735 119.874982,75.5601896 L120.133612,77.1127962 C119.228407,77.2421801 118.323202,77.371564 117.288683,77.371564 C110.434989,77.371564 102.67609,74.0075829 96.2103417,68.5734597 C89.7445929,63.1393365 84.7013089,55.3763033 83.4081591,46.7075829 C83.2788441,45.6725118 83.1495292,44.5080569 83.1495292,43.3436019 C82.8908992,43.0848341 82.7615842,42.8260664 82.7615842,42.5672986 C82.7615842,41.9203791 83.2788441,41.4028436 83.925419,41.4028436 C84.5719939,41.4028436 85.0892538,41.9203791 85.0892538,42.5672986 C85.0892538,42.6966825 84.9599388,43.0848341 84.7013089,43.214218 Z" id="Shape" fill="#54402D"></path>
                                <path d="M120.521557,75.9483412 C123.107857,80.0886256 126.728676,83.3232227 131.2547,85.9109005 C141.729213,91.9919431 156.341805,94.3208531 169.919878,94.3208531 C183.49795,94.1914692 195.912188,91.7331754 201.989992,87.9810427 C203.541771,87.0753555 204.576291,86.0402844 205.222866,85.0052133 L206.257386,85.5227488 C205.610811,86.6872038 204.317661,87.8516588 202.636566,88.8867299 C196.429448,92.7682464 183.75658,95.3559242 170.049193,95.4853081 C156.341805,95.6146919 141.470583,93.1563981 130.866755,86.9459716 C126.211416,84.22891 122.331967,80.8649289 119.745667,76.5952607 L120.521557,75.9483412 Z" id="Shape" fill="#54402D"></path>
                                <path d="M208.71437,90.4393365 C209.878205,90.4393365 210.78341,88.2398104 210.78341,85.3933649 C210.78341,82.6763033 209.878205,80.3473934 208.71437,80.3473934 C207.550535,80.3473934 206.645331,82.5469194 206.645331,85.3933649 C206.645331,88.2398104 207.550535,90.4393365 208.71437,90.4393365 Z" id="Shape" fill="#E6E7E8"></path>
                                <path d="M207.291905,87.4635071 C208.19711,87.4635071 208.973,86.6872038 208.973,85.7815166 C208.973,84.8758294 208.19711,84.0995261 207.291905,84.0995261 C206.386701,84.0995261 205.610811,84.8758294 205.610811,85.7815166 C205.610811,86.6872038 206.386701,87.4635071 207.291905,87.4635071 Z" id="Shape" fill="#808184"></path>
                                <path d="M186.342879,93.1563981 C188.023974,93.1563981 193.972463,84.6170616 196.170818,84.3582938 C199.403692,83.8407583 199.403692,84.8758294 200.955472,84.3582938 C204.834921,82.9350711 204.188346,83.064455 206.774646,86.8165877 C208.585055,89.5336493 209.102315,94.3208531 205.610811,96.0028436 C201.472732,97.9436019 190.868904,104.54218 187.765344,98.5905213 C187.636029,98.3317536 185.82562,93.1563981 186.342879,93.1563981 Z" id="Shape" fill="#FDC6A7"></path>
                                <path d="M86.6717569,99.2374408 C98.3460068,103.248341 119.144958,109.070616 132.026889,112.046445 C134.978998,112.693365 172.953857,109.976303 192.679313,103.765877 L189.324644,91.0862559 C186.372535,91.6037915 137.528547,95.8734597 136.186679,95.4853081 C129.343153,93.1563981 98.6143803,79.57109 90.4289867,77.2421801 C78,76 72,93 86.6717569,99.2374408 Z" id="Shape" fill="#0EBDA7"></path>
                            </g>
                            <g id="Group" transform="translate(219.000000, 0.000000)" fill-rule="nonzero">
                                <path d="M37.9354839,40 L1.41935484,40 C0.64516129,40 0,39.3548387 0,38.5806452 L0,2.06451613 C0,1.29032258 0.64516129,0.64516129 1.41935484,0.64516129 L37.9354839,0.64516129 C38.7096774,0.64516129 39.3548387,1.29032258 39.3548387,2.06451613 L39.3548387,38.5806452 C39.3548387,39.3548387 38.7096774,40 37.9354839,40 Z M2.83870968,37.2903226 L36.6451613,37.2903226 L36.6451613,3.35483871 L2.83870968,3.35483871 L2.83870968,37.2903226 Z" id="Shape" fill="#05288A"></path>
                                <path d="M24.6451613,21.9354839 L14.7096774,21.9354839 C14.1935484,21.9354839 13.8064516,21.5483871 13.8064516,21.0322581 C13.8064516,20.516129 14.1935484,20.1290323 14.7096774,20.1290323 L23.7419355,20.1290323 L23.7419355,10.3225806 C23.7419355,9.80645161 24.1290323,9.41935484 24.6451613,9.41935484 C25.1612903,9.41935484 25.5483871,9.80645161 25.5483871,10.3225806 L25.5483871,21.0322581 C25.5483871,21.5483871 25.1612903,21.9354839 24.6451613,21.9354839 Z" id="Shape" fill="#05288A"></path>
                                <path d="M14.4516129,29.6774194 C14.3225806,29.6774194 14.1935484,29.6774194 14.0645161,29.5483871 C13.9354839,29.2903226 13.9354839,29.0322581 14.1935484,28.9032258 L24.7741935,20.7741935 C25.0322581,20.6451613 25.2903226,20.6451613 25.4193548,20.9032258 C25.5483871,21.1612903 25.5483871,21.4193548 25.2903226,21.5483871 L14.7096774,29.6774194 C14.5806452,29.6774194 14.4516129,29.6774194 14.4516129,29.6774194 Z" id="Shape" fill="#FDB1B2"></path>
                                <path d="M37.9354839,21.5483871 L33.2903226,21.5483871 C33.0322581,21.5483871 32.7741935,21.2903226 32.7741935,21.0322581 C32.7741935,20.7741935 33.0322581,20.516129 33.2903226,20.516129 L37.9354839,20.516129 C38.1935484,20.516129 38.4516129,20.7741935 38.4516129,21.0322581 C38.4516129,21.2903226 38.1935484,21.5483871 37.9354839,21.5483871 Z" id="Shape" fill="#2196F3"></path>
                                <path d="M6.19354839,21.5483871 L1.5483871,21.5483871 C1.29032258,21.5483871 1.03225806,21.2903226 1.03225806,21.0322581 C1.03225806,20.7741935 1.29032258,20.6451613 1.5483871,20.6451613 L6.19354839,20.6451613 C6.4516129,20.6451613 6.70967742,20.9032258 6.70967742,21.1612903 C6.70967742,21.4193548 6.4516129,21.5483871 6.19354839,21.5483871 Z" id="Shape" fill="#2196F3"></path>
                                <path d="M19.7419355,8 C19.483871,8 19.2258065,7.74193548 19.2258065,7.48387097 L19.2258065,2.83870968 C19.2258065,2.58064516 19.483871,2.32258065 19.7419355,2.32258065 C20,2.32258065 20.2580645,2.58064516 20.2580645,2.83870968 L20.2580645,7.48387097 C20.2580645,7.74193548 20,8 19.7419355,8 Z" id="Shape" fill="#2196F3"></path>
                                <path d="M19.7419355,39.7419355 C19.483871,39.7419355 19.2258065,39.483871 19.2258065,39.2258065 L19.2258065,34.5806452 C19.2258065,34.3225806 19.483871,34.0645161 19.7419355,34.0645161 C20,34.0645161 20.2580645,34.3225806 20.2580645,34.5806452 L20.2580645,39.2258065 C20.2580645,39.483871 20,39.7419355 19.7419355,39.7419355 Z" id="Shape" fill="#2196F3"></path>
                            </g>
                        </g>
                    </g>
                </g>
            </g>
        </g>
    </g>
</svg>