<?xml version="1.0" encoding="UTF-8"?>
<svg width="148px" height="148px" viewBox="0 0 148 148" version="1.1" xmlns="http://www.w3.org/2000/svg" xmlns:xlink="http://www.w3.org/1999/xlink">
    <!-- Generator: Sketch 52.5 (67469) - http://www.bohemiancoding.com/sketch -->
    <title>xxxhdpi/lamp</title>
    <desc>Created with Sketch.</desc>
    <defs>
        <rect id="path-1" x="0" y="0" width="148" height="148"></rect>
    </defs>
    <g id="Page-1" stroke="none" stroke-width="1" fill="none" fill-rule="evenodd">
        <g id="Unlimited-Gym-Copy" transform="translate(-517.000000, -1945.000000)">
            <g id="Group-3" transform="translate(120.000000, 1945.000000)">
                <g id="lamp" transform="translate(397.000000, 0.000000)">
                    <mask id="mask-2" fill="white">
                        <use xlink:href="#path-1"></use>
                    </mask>
                    <use id="Rectangle" fill="#FFFFFF" opacity="0.011672247" xlink:href="#path-1"></use>
                    <g id="Group-7" mask="url(#mask-2)">
                        <g transform="translate(80.500000, 40.000000) scale(-1, 1) translate(-80.500000, -40.000000) translate(32.000000, -33.000000)" id="Group">
                            <g transform="translate(0.000000, 27.000000)">
                                <path d="M22.8,0.6 L22.8,97.9" id="Path" stroke="#5E5EB5" stroke-width="2" stroke-linecap="round"></path>
                                <circle id="Oval" fill="#FCC600" cx="22.8" cy="113.3" r="5.6"></circle>
                                <path d="M18.7,95.9 L26.8,95.9 L26.8,91.9 C26.8,89.7 25,87.9 22.8,87.9 C20.6,87.9 18.8,89.7 18.8,91.9 L18.7,95.9 Z" id="Path" fill="#3D3D7F"></path>
                                <path d="M0.5,114.3 L45.1,114.3 C45.1,102 35.1,92 22.8,92 C10.5,92 0.5,102 0.5,114.3 Z" id="Path" fill="#5E5EB5"></path>
                            </g>
                            <g transform="translate(52.000000, 0.000000)">
                                <path d="M22.5,0 L22.5,97.3" id="Path" stroke="#5E5EB5" stroke-width="2" stroke-linecap="round"></path>
                                <circle id="Oval" fill="#FCC600" cx="22.5" cy="112.8" r="5.4"></circle>
                                <path d="M18.5,95.3 L26.6,95.3 L26.6,91.3 C26.6,89.1 24.8,87.3 22.6,87.3 C20.4,87.3 18.6,89.1 18.6,91.3 L18.5,95.3 Z" id="Path" fill="#3D3D7F"></path>
                                <path d="M0.2,113.8 L44.8,113.8 C44.8,101.5 34.8,91.5 22.5,91.5 C10.2,91.4 0.2,101.4 0.2,113.8 Z" id="Path" fill="#5E5EB5"></path>
                            </g>
                        </g>
                    </g>
                </g>
            </g>
        </g>
    </g>
</svg>