<?xml version="1.0" encoding="UTF-8"?>
<svg width="148px" height="148px" viewBox="0 0 148 148" version="1.1" xmlns="http://www.w3.org/2000/svg" xmlns:xlink="http://www.w3.org/1999/xlink">
    <!-- Generator: Sketch 52.5 (67469) - http://www.bohemiancoding.com/sketch -->
    <title>xxxhdpi/watch</title>
    <desc>Created with Sketch.</desc>
    <defs>
        <rect id="path-1" x="0" y="0" width="148" height="148"></rect>
    </defs>
    <g id="Page-1" stroke="none" stroke-width="1" fill="none" fill-rule="evenodd">
        <g id="Unlimited-Gym-Copy" transform="translate(-517.000000, -2476.000000)">
            <g id="Group-3-Copy-2" transform="translate(120.000000, 2476.000000)">
                <g id="watch" transform="translate(397.000000, 0.000000)">
                    <mask id="mask-2" fill="white">
                        <use xlink:href="#path-1"></use>
                    </mask>
                    <use id="Rectangle" fill="#FFFFFF" opacity="0.011672247" xlink:href="#path-1"></use>
                    <g id="Group" mask="url(#mask-2)" fill-rule="nonzero">
                        <g transform="translate(54.000000, 17.000000)" id="Shape">
                            <path d="M74.2229508,77 L2.77704918,77 C1.26229508,77 0,75.7377049 0,74.2229508 L0,2.77704918 C0,1.26229508 1.26229508,0 2.77704918,0 L74.2229508,0 C75.7377049,0 77,1.26229508 77,2.77704918 L77,74.2229508 C77,75.7377049 75.7377049,77 74.2229508,77 Z M5.55409836,71.6983607 L71.6983607,71.6983607 L71.6983607,5.30163934 L5.55409836,5.30163934 L5.55409836,71.6983607 Z" fill="#05288A"></path>
                            <path d="M47.1538462,40 L26.8461538,40 C25.7912088,40 25,39.2268041 25,38.1958763 C25,37.1649485 25.7912088,36.3917526 26.8461538,36.3917526 L45.3076923,36.3917526 L45.3076923,16.8041237 C45.3076923,15.7731959 46.0989011,15 47.1538462,15 C48.2087912,15 49,15.7731959 49,16.8041237 L49,38.1958763 C49,39.2268041 48.2087912,40 47.1538462,40 Z" fill="#05288A"></path>
                            <path d="M25.9826543,57 C25.7139386,57 25.4452228,57 25.1765071,56.7559465 C24.9077913,56.2678395 24.9077913,55.7797324 25.4452228,55.5356789 L47.4799142,40.1603076 C48.0173457,39.9162541 48.5547772,39.9162541 48.8234929,40.4043611 C49.0922087,40.8924681 49.0922087,41.3805752 48.5547772,41.6246287 L26.5200858,57 C26.2513701,57 25.9826543,57 25.9826543,57 Z" fill="#FDB1B2"></path>
                            <path d="M74,43.2 L65,43.2 C64.5,43.2 64,42.4 64,41.6 C64,40.8 64.5,40 65,40 L74,40 C74.5,40 75,40.8 75,41.6 C75,42.4 74.5,43.2 74,43.2 Z" fill="#2196F3"></path>
                            <path d="M12,42.8 L3,42.8 C2.5,42.8 2,42 2,41.2 C2,40.4 2.5,40 3,40 L12,40 C12.5,40 13,40.8 13,41.6 C13,42.4 12.5,42.8 12,42.8 Z" fill="#2196F3"></path>
                            <path d="M36.8,17 C36.4,17 36,16.4545455 36,15.9090909 L36,6.09090909 C36,5.54545455 36.4,5 36.8,5 C37.2,5 37.6,5.54545455 37.6,6.09090909 L37.6,15.9090909 C37.6,16.4545455 37.2,17 36.8,17 Z" fill="#2196F3"></path>
                            <path d="M36.8,77 C36.4,77 36,76.4545455 36,75.9090909 L36,66.0909091 C36,65.5454545 36.4,65 36.8,65 C37.2,65 37.6,65.5454545 37.6,66.0909091 L37.6,75.9090909 C37.6,76.4545455 37.2,77 36.8,77 Z" fill="#2196F3"></path>
                        </g>
                    </g>
                </g>
            </g>
        </g>
    </g>
</svg>