<?xml version="1.0" encoding="UTF-8"?>
<svg width="635px" height="550px" viewBox="0 0 635 550" version="1.1" xmlns="http://www.w3.org/2000/svg" xmlns:xlink="http://www.w3.org/1999/xlink">
    <!-- Generator: Sketch 52.5 (67469) - http://www.bohemiancoding.com/sketch -->
    <title>xxxhdpi/Group 16</title>
    <desc>Created with Sketch.</desc>
    <g id="Page-1" stroke="none" stroke-width="1" fill="none" fill-rule="evenodd">
        <g id="Unlimited-Gym" transform="translate(-662.000000, -179.000000)">
            <g id="Group-16" transform="translate(662.000000, 179.000000)">
                <path d="M0.275702386,335.400973 C9.48818333,185.490999 503.777006,-103.851043 595.540003,38.1407216 C687.303,180.132486 599.08426,446.613884 406.782912,514.852988 C214.481565,583.092092 -8.93677856,485.310946 0.275702386,335.400973 Z" id="Background-Shape" fill="#FBFAFF"></path>
                <g id="Flower" opacity="0.299743304" transform="translate(505.000000, 267.000000)">
                    <path d="M120.980481,0.659775373 C117.569531,-0.0853801391 113.803318,-0.0283494469 110.328853,0.0331207603 C91.6953105,0.286514614 73.3974882,9.10851385 61.4888276,23.2046569 C51.3509016,35.2050073 48.5632336,50.1248511 46.5604261,65.2069079 C46.3618554,66.7043905 46.2767038,68.192311 46.1646806,69.6928671 C46.1406008,70.0149026 46.1046557,70.3021051 46.0662677,70.572574 C45.2786154,71.2767494 44.8654207,72.0977182 45.3316606,72.9996227 C43.5965223,76.796774 42.1287042,80.6902286 40.8692283,84.7059407 C37.1623418,96.5259785 33.3915917,108.570724 35.7144157,121 C36.2570826,114.160073 37.3986026,107.165788 38.7638201,100.438216 C38.842341,100.051978 38.9271436,99.6688136 39.0154361,99.2870153 C39.0245096,99.2467182 39.0328852,99.206421 39.0419587,99.1664654 C39.5252987,97.106189 40.1534663,95.1077242 40.9173878,93.1406776 C40.9254144,93.119163 40.933092,93.09799 40.9414675,93.0768169 C41.0423233,92.817959 41.1494608,92.5604671 41.2552023,92.3029753 C41.474014,91.769892 41.6987584,91.2378332 41.9371131,90.7085064 C42.0177279,90.5281938 42.0952019,90.3461737 42.1695351,90.1627876 C43.2817406,87.4369254 43.7514703,84.365464 44.7478138,81.545006 C44.9861685,80.9036668 45.2353416,80.2647182 45.4963801,79.6291846 C45.5117353,79.5919609 45.5274395,79.5547373 45.5431437,79.5175137 C46.2487852,77.8072759 47.028411,76.1178697 47.8527064,74.4462216 C48.3007992,74.1095014 48.5402008,73.2741896 48.9265239,72.5150326 C49.0064407,72.3654551 49.6311184,71.3679302 49.8171258,70.7931838 C50.3025597,69.8540556 50.7862487,68.9145859 51.2751725,67.9771653 C51.2605152,67.9826293 51.245858,67.9880933 51.2312007,67.9935573 C51.7204735,67.0933603 52.2111421,66.1969198 52.6979719,65.3042358 C52.8051094,65.1082141 52.9132938,64.9118509 53.0211292,64.7151463 C53.1959692,64.4019897 53.3708092,64.0891747 53.5453002,63.7770426 C55.1774888,60.8561833 56.9080904,57.9937206 58.7053475,55.1667741 C59.3467763,54.1579797 60.8791561,52.7113808 61.1729989,51.5786215 C61.1838174,51.5362754 61.1862603,51.4973442 61.1928909,51.4567056 C65.0927644,45.9793686 69.5824173,40.9272006 74.9665111,36.9241241 C74.3156597,37.6276165 72.9322952,40.015051 72.5665621,40.4876886 C71.4473769,41.9349705 70.2322217,43.2821925 69.0125298,44.6458066 C66.8282517,47.0885644 64.6956229,49.6088429 62.8006508,52.2739178 C59.3352599,57.1478223 56.3455314,62.2771696 53.5194755,67.5096502 C53.4926039,67.5403853 53.4632894,67.5694129 53.4378137,67.600831 C52.0174571,69.3517074 51.1233653,71.9979998 50.1008482,74.0009041 C54.147294,72.1267458 58.6215918,70.9058791 62.7744772,69.241744 C66.9158461,67.5827314 70.9444939,65.7352102 74.8338979,63.5656534 C80.0033678,60.6823592 85.3658246,57.4268287 90.2501762,53.7427143 C95.8474979,50.2706721 100.551077,45.491705 104.702915,40.4767606 C109.615185,34.5431781 114.117053,28.5576874 116.901231,21.3530376 C118.268891,17.8126952 119.344803,14.1210677 119.982742,10.3864112 C120.01066,10.2235151 120.046256,10.046959 120.084993,9.8635729 C120.73759,8.57372305 121.321087,7.2548456 121.810709,5.90557455 C122.588241,3.76572834 124.424584,1.41176091 120.980481,0.659775373" id="Fill-10" fill="#9A8ED8"></path>
                    <path d="M114.075943,63 C95.6400811,63 78.3112274,69.8400486 63.3411361,80.0318686 C55.1382704,85.6163535 47.8001859,92.7279727 41.3217129,100.132413 C37.5823286,104.406588 34.2480105,109.030491 31.8874019,114.173043 C30.2944619,117.644032 29.2011157,121.260531 28.4600331,124.990844 C27.5568501,129.53695 26.8393994,134.17526 26.5148296,138.797002 C26.3870694,140.616957 25.3295404,150.27428 28.3555356,150.437799 C28.3381809,150.675873 28.3341192,150.902782 28.3525816,151.10628 C21.7821656,161.379859 17.7226426,173.420088 13.9581494,184.835416 C10.6829112,194.768992 7.76436737,204.786488 5.86975096,215.062949 C3.37547423,228.592494 1.7371166,242.325536 0.958001292,256.049575 C0.790731513,258.999033 0.675895087,261.949932 0.576936366,264.903351 C0.493116852,267.422403 0.408189591,269.941454 0.325477824,272.460505 C0.233165584,275.283542 -0.263843516,278.533745 0.185163219,281.340214 C0.575828619,283.784349 2.69125591,283.414451 2.7846759,280.982202 C2.89766608,278.04499 2.87920363,275.102015 3.00770227,272.162642 C3.17866454,268.261606 3.35479629,264.360571 3.545698,260.460615 C4.87462501,233.36875 9.86022447,206.675236 19.0611701,181.084213 C22.7846766,170.728154 27.0513483,160.9246 32.5350646,151.344715 C37.3563483,142.921705 43.1557724,134.767384 49.0836952,127.172773 C54.845456,119.792465 60.8357819,112.582879 67.8954528,106.329912 C73.6243504,101.255793 79.9259531,96.8353874 86.4036876,92.7222099 C94.631293,87.4982583 102.843021,82.4010877 111.755213,78.3909197 C116.387811,76.3065976 121.10792,74.4405404 125.776704,72.4404988 C126.616746,72.0806858 127.517344,71.731678 128.325261,71.3149577 C131.020409,69.9250494 130.133103,67.831723 127.985552,66.3755429 C124.041234,63.700897 118.796053,63 114.075943,63 Z" id="Fill-1" fill="#5F4DB7"></path>
                </g>
            </g>
        </g>
    </g>
</svg>