<?xml version="1.0" encoding="utf-8"?>
<!-- Generator: Adobe Illustrator 22.1.0, SVG Export Plug-In . SVG Version: 6.00 Build 0)  -->
<svg version="1.1" id="Layer_1" xmlns="http://www.w3.org/2000/svg" xmlns:xlink="http://www.w3.org/1999/xlink" x="0px" y="0px"
	 viewBox="0 0 135 40" style="enable-background:new 0 0 135 40;" xml:space="preserve">
<style type="text/css">
	.st0{fill:#FFFFFF;}
</style>
<g>
	<path d="M131,40H4c-2.2,0-4-1.8-4-4V4c0-2.2,1.8-4,4-4h127c2.2,0,4,1.8,4,4v32C135,38.2,133.2,40,131,40z"/>
</g>
<path class="st0" d="M26,19.3c0-1.8,0.9-3.5,2.5-4.4c-0.9-1.4-2.5-2.2-4.2-2.3c-1.8-0.2-3.5,1.1-4.4,1.1c-0.9,0-2.3-1.1-3.8-1.1
	c-2,0.1-3.8,1.2-4.7,2.8c-2,3.5-0.5,8.7,1.5,11.6c0.9,1.4,2.1,2.9,3.6,2.9c1.5-0.1,2-0.9,3.8-0.9c1.8,0,2.2,0.9,3.8,0.9
	c1.6,0,2.5-1.4,3.5-2.8c0.7-0.9,1.3-2.1,1.6-3.3C27.1,23.2,26,21.3,26,19.3z M23,10.7c0.8-1.1,1.3-2.3,1.2-3.7
	c-1.3,0.1-2.5,0.7-3.4,1.8c-0.8,0.9-1.3,2.2-1.2,3.6C21,12.4,22.2,11.8,23,10.7z M44.4,26.4h-4.9L38.3,30h-2.1l4.7-13.1H43L47.7,30
	h-2.1L44.4,26.4z M40,24.8h4l-2-5.8h-0.1C41.9,19.1,40,24.8,40,24.8z M58,25.3c0,2.9-1.6,4.8-4,4.8c-1.3,0.1-2.4-0.6-2.9-1.7v4.7h-2
	V20.5h1.9v1.6c0.6-1.1,1.8-1.7,3.1-1.7C56.3,20.3,58,22.3,58,25.3z M55.9,25.3c0-1.9-0.9-3.2-2.5-3.2c-1.5,0-2.5,1.3-2.5,3.2
	s1.1,3.2,2.5,3.2C54.9,28.4,55.9,27.2,55.9,25.3z M68.4,25.3c0,2.9-1.6,4.8-4,4.8c-1.3,0.1-2.4-0.6-2.9-1.7v4.7h-2V20.5h1.9v1.6
	c0.6-1.1,1.8-1.7,3.1-1.7C66.8,20.3,68.4,22.3,68.4,25.3z M66.4,25.3c0-1.9-0.9-3.2-2.5-3.2c-1.5,0-2.5,1.3-2.5,3.2s1.1,3.2,2.5,3.2
	C65.4,28.4,66.4,27.2,66.4,25.3z M75.3,26.3c0.1,1.3,1.4,2.1,3.2,2.1c1.7,0,2.8-0.8,2.8-2c0-1.1-0.7-1.6-2.4-2L77.2,24
	c-2.4-0.5-3.5-1.7-3.5-3.5c0-2.2,2-3.8,4.7-3.8c2.7,0,4.6,1.6,4.7,3.8h-2c-0.1-1.3-1.2-2.1-2.7-2.1c-1.6,0-2.6,0.8-2.6,2
	c0,0.9,0.7,1.5,2.4,1.9l1.5,0.3c2.6,0.6,3.8,1.7,3.8,3.6c0,2.4-1.9,4-5.1,4c-2.9,0-4.8-1.5-4.9-3.9C73.5,26.3,75.3,26.3,75.3,26.3z
	 M87.5,18.2v2.2h1.8V22h-1.8v5.3c0,0.8,0.3,1.2,1.2,1.2h0.6V30c-0.3,0.1-0.7,0.1-1.1,0.1c-1.9,0-2.6-0.7-2.6-2.5v-5.5h-1.4v-1.6h1.4
	v-2.2h1.9L87.5,18.2z M90.5,25.3c0-2.9,1.8-4.8,4.5-4.8s4.5,1.9,4.5,4.8c0,3.1-1.8,4.8-4.5,4.8C92.2,30.1,90.5,28.2,90.5,25.3z
	 M97.5,25.3c0-2.1-0.9-3.3-2.5-3.3c-1.6,0-2.5,1.2-2.5,3.3s0.9,3.3,2.5,3.3C96.6,28.5,97.5,27.3,97.5,25.3z M101.1,20.4h1.9v1.7
	c0.2-1.1,1.3-1.8,2.3-1.7c0.2,0,0.4,0,0.6,0.1v1.8c-0.3-0.1-0.6-0.1-0.8-0.1c-1.1,0-2,0.8-2,1.9v6h-2
	C101.1,30.1,101.1,20.4,101.1,20.4z M115,27.2c-0.2,1.7-1.9,2.9-4.1,2.9c-2.7,0-4.5-1.9-4.5-4.8s1.7-4.9,4.4-4.9
	c2.6,0,4.3,1.8,4.3,4.7v0.6h-6.7v0.1c-0.1,1.4,0.8,2.5,2.2,2.7h0.3c0.9,0.1,1.9-0.4,2.2-1.4C113.1,27.2,115,27.2,115,27.2z
	 M108.4,24.3h4.7c0.1-1.3-0.9-2.3-2.2-2.4h-0.2C109.4,21.9,108.4,23,108.4,24.3z"/>
<g>
	<path class="st0" d="M39.6,7.1c1.6-0.1,2.8,1.1,2.9,2.5v0.5c0,2-1.1,3.2-2.9,3.2h-2.3V6.9C37.3,6.9,39.6,7.1,39.6,7.1z M38.4,12.5
		h1.2c1.1,0.1,2-0.7,2.1-1.9v-0.4C41.7,9.2,41,8.1,40,8h-1.6C38.4,8,38.4,12.5,38.4,12.5z M43.7,10.9c-0.1-1.3,0.8-2.3,2-2.4
		c1.3-0.1,2.3,0.8,2.4,2v0.4c0.1,1.3-0.7,2.3-2,2.4c-1.3,0.1-2.3-0.7-2.4-2V10.9z M47.2,10.9c0-1.1-0.4-1.6-1.3-1.6
		s-1.3,0.6-1.3,1.6c0,1.1,0.4,1.7,1.3,1.7S47.2,12,47.2,10.9z M54.2,13.4h-0.9l-0.9-3.5h-0.1l-0.9,3.5h-0.9L49,8.6H50l0.8,3.6h0.1
		l0.9-3.6h0.9l0.9,3.6h0.1l0.8-3.6h0.9C55.6,8.6,54.2,13.4,54.2,13.4z M56.6,8.6h0.9v0.7h0.1c0.2-0.5,0.8-0.8,1.4-0.8
		c0.8-0.1,1.6,0.5,1.7,1.5v3.4h-0.9v-2.8c0-0.7-0.3-1.2-1.1-1.2c-0.6,0-1.2,0.4-1.2,1.1v2.9h-0.9C56.6,13.4,56.6,8.6,56.6,8.6z
		 M62.1,6.7H63v6.6h-0.9V6.7z M64.3,10.9c-0.1-1.3,0.7-2.3,2-2.4c1.3-0.1,2.3,0.7,2.4,2v0.4c0.1,1.3-0.7,2.3-2,2.4
		c-1.3,0.1-2.3-0.7-2.4-2V10.9z M67.9,10.9c0-1.1-0.4-1.6-1.3-1.6s-1.3,0.6-1.3,1.6c0,1.1,0.4,1.7,1.3,1.7
		C67.3,12.6,67.9,12,67.9,10.9z M69.8,12c0-0.8,0.6-1.4,1.8-1.4l1.3-0.1v-0.4c0-0.5-0.3-0.7-0.9-0.7c-0.5,0-0.8,0.2-0.9,0.5H70
		c0.1-0.8,0.8-1.4,1.9-1.4c1.2,0,1.9,0.6,1.9,1.6v3.3h-0.9v-0.6h-0.1c-0.3,0.5-0.8,0.7-1.5,0.7c-0.7,0.1-1.5-0.5-1.6-1.3
		C69.8,12.1,69.8,12.1,69.8,12z M72.8,11.6v-0.4l-1.2,0.1c-0.6,0-0.9,0.3-0.9,0.6c0,0.4,0.4,0.6,0.8,0.6
		C72.2,12.7,72.7,12.3,72.8,11.6C72.8,11.7,72.8,11.7,72.8,11.6z M74.9,10.9c0-1.5,0.7-2.4,2-2.4c0.6,0,1.2,0.3,1.5,0.8h0.1V6.7h0.9
		v6.6h-0.9v-0.7h-0.1c-0.3,0.5-0.8,0.8-1.5,0.8C75.8,13.5,74.9,12.5,74.9,10.9z M76,10.9c0,1.1,0.4,1.6,1.3,1.6
		c0.8,0,1.3-0.6,1.3-1.6c0-0.9-0.5-1.6-1.3-1.6C76.4,9.4,76,10,76,10.9z M83.2,10.9c-0.1-1.3,0.7-2.3,2-2.4c1.3-0.1,2.3,0.7,2.4,2
		v0.4c0.1,1.3-0.7,2.3-2,2.4c-1.3,0.1-2.3-0.7-2.4-2V10.9z M86.8,10.9c0-1.1-0.4-1.6-1.3-1.6c-0.8,0-1.3,0.6-1.3,1.6
		c0,1.1,0.4,1.7,1.3,1.7C86.3,12.6,86.8,12,86.8,10.9z M89,8.6H90v0.7h0.1c0.2-0.5,0.8-0.8,1.4-0.8c0.8-0.1,1.6,0.5,1.7,1.5v3.4
		h-0.9v-2.8c0-0.7-0.3-1.2-1.1-1.2c-0.6,0-1.2,0.4-1.2,1.1v2.9H89V8.6z M98.3,7.5v1.2h1.1v0.8h-1.1v2.4c0,0.5,0.2,0.7,0.6,0.7h0.3
		v0.7h-0.5c-1.1,0-1.5-0.3-1.5-1.3V9.5h-0.7V8.7h0.7V7.5C97.2,7.5,98.3,7.5,98.3,7.5z M100.6,6.7h0.9v2.6h0.1
		c0.2-0.5,0.8-0.9,1.5-0.8c0.8,0,1.6,0.6,1.7,1.5v3.4h-0.9v-2.8c0-0.7-0.3-1.2-1.1-1.2c-0.6,0-1.2,0.4-1.2,1.1v2.9h-0.9V6.7H100.6z
		 M110.2,12.1c-0.2,0.8-1.2,1.5-2,1.4c-1.2,0-2.2-0.9-2.2-2.1v-0.3c-0.2-1.2,0.6-2.3,1.9-2.4h0.3c1.4,0,2.1,0.9,2.1,2.4v0.3h-3.4
		v0.1c-0.1,0.7,0.4,1.3,1.2,1.4h0.1c0.4,0.1,0.9-0.2,1.2-0.5h0.8L110.2,12.1z M106.8,10.5h2.4c0-0.6-0.4-1.2-1.1-1.3h-0.1
		C107.4,9.4,106.8,9.9,106.8,10.5z"/>
</g>
</svg>
