<svg width="15" height="20" viewBox="0 0 15 20" fill="none" xmlns="http://www.w3.org/2000/svg">
<path fill-rule="evenodd" clip-rule="evenodd" d="M11.6573 12.4781C11.0285 13.141 10.7756 14.0024 10.6752 14.6111L10.6134 14.9803L3.60802 14.9763L3.54625 14.6084C3.44538 14.0055 3.19385 13.149 2.57037 12.4896L2.54148 12.4563C0.918559 11.0946 0 9.13398 0 7.0543C0 3.16462 3.18896 0 7.1085 0C11.0307 0 14.2214 3.16462 14.2214 7.0543C14.2214 9.14242 13.2873 11.1177 11.6573 12.4781ZM7.10763 0.88136C3.67781 0.88136 0.887465 3.65057 0.887465 7.05421C0.887465 8.88642 1.70248 10.6138 3.12409 11.7929C3.16587 11.8227 3.20408 11.8658 3.23386 11.9044C3.87467 12.5904 4.19152 13.4216 4.34795 14.0956L9.87086 14.0983C10.0304 13.4057 10.3588 12.5495 11.0312 11.8516L11.0672 11.8178C12.5066 10.6253 13.3322 8.88909 13.3322 7.05421C13.3322 3.65057 10.5401 0.88136 7.10763 0.88136ZM4.00161 16.5485H10.2195C10.4649 16.5485 10.6635 16.7458 10.6635 16.9893C10.6635 17.2323 10.4649 17.4295 10.2195 17.4295H4.00161C3.75675 17.4295 3.55766 17.2323 3.55766 16.9893C3.55766 16.7458 3.75675 16.5485 4.00161 16.5485ZM5.05219 19.1186H9.16726C9.41256 19.1186 9.61121 19.3158 9.61121 19.5593C9.61121 19.8027 9.41256 20 9.16726 20H5.05219C4.80732 20 4.60824 19.8027 4.60824 19.5593C4.60824 19.3158 4.80732 19.1186 5.05219 19.1186Z" fill="black"/>
</svg>
