<?xml version="1.0" encoding="UTF-8"?>
<svg width="167px" height="344px" viewBox="0 0 167 344" version="1.1" xmlns="http://www.w3.org/2000/svg" xmlns:xlink="http://www.w3.org/1999/xlink">
    <!-- Generator: Sketch 52.6 (67491) - http://www.bohemiancoding.com/sketch -->
    <title>Plant Left</title>
    <desc>Created with Sketch.</desc>
    <g id="Health-Unlimited---webpage" stroke="none" stroke-width="1" fill="none" fill-rule="evenodd" opacity="0.5">
        <g id="Plant-Left" transform="translate(-32.000000, -33.000000)">
            <path d="M126.021218,79.6341567 C129.050804,75.3827569 134.672849,64.5855972 138.936935,63.0664445 C141.6834,62.0879696 140.882629,72.209542 140.916546,74.1395038 C141.04863,81.606222 140.310019,89.0255953 139.397895,96.4296237 C137.754613,109.782759 132.381226,121.67474 125.011226,133.039632 C121.21878,138.88756 116.770542,144.806397 110.609525,148.455224 C107.773602,150.135583 104.361276,150.41693 101.560624,151.864696 C98.2988569,153.550085 100.075209,152.187625 98.6052415,155.532716 C96.5638805,160.176927 95.9109369,166.168455 94.9664313,171.123994 C90.6297245,193.87261 80.1306387,314.127726 81.9507776,337.267417 C82.1124351,339.318418 79.2065527,339.808882 79.0614894,337.30504 C78.2904528,324.028964 84.9624082,232.092343 88.3285228,202.026425 C91.6946374,171.960506 95.1009916,145.398771 98.5165367,134.996904 C102.660102,122.37723 110.143618,107.201096 116.373122,95.4327032 C119.26668,89.9653735 122.420715,84.6863901 126.021218,79.6341567 Z" id="Leaf" fill="#69A1AC"></path>
            <path d="M150.092197,226.62338 C157.942992,220.901718 166.440888,231.7002 159.336727,237.422741 C155.409379,240.585815 151.303566,239.460623 148.992104,236.824667 C147.491598,238.640353 146.087174,240.538829 144.737705,242.142381 C140.626219,247.02871 136.740243,252.031665 133.026376,257.151273 C125.311391,267.787135 118.699789,279.023695 111.786888,290.054786 C104.964759,300.941873 98.1971798,311.884722 92.0136937,323.047642 C86.7754032,332.505342 79.7934275,343.631567 78,354 C80.7211051,332.010349 91.0464659,310.874401 103.34217,291.488838 C115.537823,272.262527 129.533751,251.265261 148.417147,236.092277 C146.495279,233.286676 146.441928,229.281895 150.092197,226.62338 Z" id="Leaf" fill="#C1DEE2"></path>
            <path d="M1.37140642,173.021893 C5.75776718,173.873408 12.9250312,183.723009 16.5407005,187.475784 C20.8376804,191.93543 24.7361076,196.688779 28.410834,201.669105 C36.3217676,212.389052 43.3967072,223.786581 49.4128124,235.672207 C59.2206392,255.048157 67.0779839,274.938241 72.780395,296.037564 C76.2710477,308.953223 78.5311008,322.339801 79.87053,335.632896 C80.1234868,338.139895 82.7713912,357.468376 78.9559231,357.989332 C75.5243118,358.45842 76.5842084,343.312819 76.418658,341.252645 C74.5472904,318.01002 68.9412034,295.395142 61.1431877,273.487804 C59.4446681,268.715498 57.8666834,262.870276 55.1503498,258.575661 C53.194209,255.482318 55.1363217,256.561067 51.6986616,255.390386 C48.7468825,254.384568 45.3837504,254.630346 42.3610619,253.399142 C35.7945697,250.726086 30.5366933,245.536889 25.9278046,240.317166 C16.9711185,230.173093 9.87340037,219.198794 6.17365978,206.200662 C4.12129948,198.993623 2.23528513,191.744662 1.18866296,184.314765 C0.917920037,182.394356 -1.45381544,172.473438 1.37140642,173.021893 Z" id="Leaf" fill="#69A1AC"></path>
            <path d="M19.0817319,9.75299807 C35.6080932,38.1774032 49.18878,69.4008671 57.9579273,101.025514 C63.2709839,120.186545 66.9865639,139.848578 70.6782885,159.36858 C76.3942581,189.592869 81.8009097,219.814827 83.3388461,250.575989 C84.8861088,281.515421 87.9457163,317.200421 77.7304095,347 C82.8330065,316.745331 77.9749878,284.541591 77.1148299,254.099155 C76.7037811,239.566429 75.5126379,225.175785 73.9500808,210.72798 C72.4337748,196.712834 69.9565597,182.764424 67.6497142,168.859437 C66.5260071,162.087456 65.3458614,155.325665 64.1443092,148.567572 C63.7856047,146.551287 63.6340803,140.568266 62.3444276,139.190852 C61.0464226,137.80437 54.4238294,137.239148 52.3446419,136.22183 C48.1578725,134.172826 44.2196508,131.262366 40.7342222,128.187091 C34.05261,122.291868 28.2399438,114.589043 23.6521225,106.995809 C13.0370939,89.426259 8.79321073,67.9850109 9.00771374,47.637237 C9.04892773,43.6866188 15.4552665,1.14478096 12.8823778,0.55894466 C13.0372875,0.37901884 13.1838203,0.193240019 13.3219883,0 C15.2698855,3.23448408 17.1813371,6.49088782 19.0817319,9.75299807 Z" id="Leaf" fill="#89C5CC"></path>
            <path d="M196.050529,111.762595 C196.303063,111.398031 197.94666,108.862599 197.118996,109.024636 C198.80415,108.694722 194.801174,111.820948 199,109.90271 C197.006368,111.787198 198.156957,114.235178 198.183567,116.771492 C198.22698,120.88934 197.538599,124.97342 196.763709,129.002915 C195.539262,135.372316 193.715165,141.565236 191.067522,147.489544 C185.296902,160.399959 175.498092,172.828592 163.865085,180.90009 C158.122191,184.885312 152.493899,186.242133 145.944126,188.076779 C141.807011,189.235845 141.478931,191.377766 139.282941,195.395849 C134.711054,203.764656 130.220587,212.103361 126.188589,220.754532 C121.374115,231.084942 116.700422,241.426738 112.291774,251.939001 C97.4398263,287.349 85.3517188,324.034288 79.0034142,362 C78.847981,339.626922 84.0191485,316.584566 90.5420762,295.259301 C95.2936366,279.722197 101.479276,264.744899 108.076864,249.919222 C109.675593,246.327527 112.098322,241.70739 112.777251,237.742004 C113.252637,234.963657 111.799242,232.291703 111.133797,229.36493 C108.539526,217.967535 108.725206,205.198778 111.003362,193.740442 C113.515204,181.105452 120.779333,175.241124 133.067547,173.451459 C137.561592,172.796818 143.27364,173.036748 147.394459,171.118911 C151.884029,169.03045 153.736044,162.165702 156.288978,157.759074 C163.146071,145.921939 171.293291,134.569404 180.648549,124.595637 C183.238931,121.833773 186.024647,119.285767 188.979979,116.924078 C190.84361,115.433984 194.780476,113.598189 196.050529,111.762595 Z" id="Leaf" fill="#89C5CC"></path>
            <path d="M59.7953126,338 L100.204687,338 C102.966111,338 105.204687,340.238576 105.204687,343 C105.204687,343.245241 105.186644,343.49015 105.150705,343.732743 L102.750967,359.930973 C101.298131,369.737612 92.8805703,377 82.9668977,377 L77.0331023,377 C67.1194297,377 58.7018685,369.737612 57.2490331,359.930973 L54.8492953,343.732743 C54.4446124,341.001133 56.3309594,338.458666 59.0625693,338.053983 C59.3051627,338.018043 59.5500715,338 59.7953126,338 Z" id="Base" fill="#C1DEE2"></path>
        </g>
    </g>
</svg>