<?xml version="1.0" encoding="UTF-8"?>
<svg width="23px" height="23px" viewBox="0 0 23 23" version="1.1" xmlns="http://www.w3.org/2000/svg" xmlns:xlink="http://www.w3.org/1999/xlink">
    <!-- Generator: Sketch 52.5 (67469) - http://www.bohemiancoding.com/sketch -->
    <title>send_button</title>
    <desc>Created with Sketch.</desc>
    <g id="Download-App-Page" stroke="none" stroke-width="1" fill="none" fill-rule="evenodd">
        <g id="Desktop" transform="translate(-477.000000, -366.000000)" fill="#B6B6B6" fill-rule="nonzero">
            <g id="send_button" transform="translate(477.000000, 366.000000)">
                <path d="M22.6435878,10.1151151 C22.4084375,9.62959671 22.0164267,9.2375859 21.5309551,9.00248242 L3.44259663,0.249618925 C2.25101861,-0.32767459 0.817126217,0.170345836 0.239832702,1.36192385 C-0.0542690554,1.96904428 -0.0789921453,2.6720135 0.171797381,3.29828495 L3.31715504,11.1601339 L0.171797381,19.0227789 C-0.318122487,20.2561707 0.284596479,21.6532126 1.51798836,22.1430857 C1.7968723,22.2538713 2.09406445,22.3114181 2.39415968,22.312776 C2.75723324,22.312776 3.1156244,22.2308339 3.44259663,22.0730369 L21.5309082,13.3177854 C22.7225799,12.7406323 23.2207408,11.30674 22.6435878,10.1151151 Z M2.74655736,20.6322146 C2.34930226,20.8245209 1.87136934,20.6583892 1.67906303,20.2611341 C1.58106033,20.0587606 1.57291295,19.8244532 1.65654067,19.6157116 L4.71878567,11.9592329 L20.6702357,11.9592329 L2.74655736,20.6322146 Z M4.7188325,10.3609881 L1.6565875,2.70450938 C1.52913248,2.39931033 1.6082651,2.04686582 1.8539508,1.82548179 C2.09177007,1.59374964 2.45086359,1.53938694 2.74655736,1.69044127 L20.6702357,10.3609881 L4.7188325,10.3609881 Z" id="Shape"></path>
            </g>
        </g>
    </g>
</svg>