<?xml version="1.0" encoding="UTF-8"?>
<svg width="110px" height="110px" viewBox="0 0 110 110" version="1.1" xmlns="http://www.w3.org/2000/svg" xmlns:xlink="http://www.w3.org/1999/xlink">
    <!-- Generator: Sketch 52.5 (67469) - http://www.bohemiancoding.com/sketch -->
    <title>dental</title>
    <desc>Created with Sketch.</desc>
    <g id="Atoms" stroke="none" stroke-width="1" fill="none" fill-rule="evenodd">
        <g id="Icons" transform="translate(-2650.000000, -3746.000000)">
            <g id="dental" transform="translate(2650.000000, 3746.000000)">
                <rect id="Rectangle-Copy-6" fill-opacity="0.01" fill="#FFFFFF" x="0" y="0" width="110" height="110"></rect>
                <path d="M23.6,62.7 C4.6,46 1.4,16.4 30.9,12.3 C44.8,10.4 45,19 56.7,20.8 C67.8,22.6 86.1,16.8 94.5,27.2 C108.9,45.2 99.5,83.8 79.8,94.7 C72.3,98.9 62.9,99.9 54.6,98.3 C36.9,95 35.2,78.5 26.6,66.1 L23.6,62.7 Z" id="Path-16" fill="#EFF4FF"></path>
                <g id="Group" transform="translate(31.000000, 30.000000)">
                    <path d="M6.2,3.2 C6.2,3.2 12.3,2.6 16.1,4.2 C19.9,5.8 25.8,6.4 29.3,4.2 C32.8,2 37.7,2.5 39.2,3.7 C40.7,4.9 46.2,6.6 45.2,14.3 C44.2,22 43.5,24.5 42.1,28.7 C40.7,32.9 43.3,34.8 40.7,40.8 C38.1,46.8 38.1,49.6 35.8,48.6 C33.5,47.6 30.3,44.8 29.7,40.7 C29.1,36.6 26.3,31 24.9,30.7 C23.5,30.4 21.4,30.3 19.9,32.5 C18.5,34.7 15.6,43.5 14.6,45.2 C13.6,46.9 11.8,49.8 10.4,47.4 C9,45 7.2,43.2 7,38.5 C6.8,33.8 7.9,31.6 5,25.9 C2.1,20.2 1.9,15.9 1.8,15 C1.7,14.1 1.6,5.5 6.2,3.2 Z" id="Path" fill="#B7CFFF"></path>
                    <path d="M45.8,5.4 C43.1,1.8 40.4,0.2 37,0.2 C34.8,0.2 32.8,0.9 30.7,1.6 L30.6,1.6 C28.4,2.3 26.4,3 24.2,3 C22,3 19.8,2.2 17.7,1.6 C15.6,0.9 13.5,0.2 11.3,0.2 C7.9,0.2 5.2,1.9 2.7,5.6 C-1.2,11.2 1,17.3 2.8,22.3 C3.6,24.5 4.4,26.6 4.4,28.2 C4.4,36.3 6.1,50 12.5,50 C16.9,50 18.2,44.9 19.4,40.4 C20.6,35.6 21.8,32.3 24.3,32.3 C26.5,32.3 27.4,34.5 28.5,39.7 C29.5,44.3 30.8,49.9 36.2,49.9 C43.7,49.9 44.3,33.3 44.3,28.2 C44.3,26.7 45.1,24.6 45.8,22.4 L45.8,22.3 C47.8,17.2 49.9,10.9 45.8,5.4 Z M42.1,20.9 C41.2,23.5 40.3,25.9 40.3,28.1 C40.3,32.9 39.8,37.6 38.9,40.9 C37.8,44.8 36.7,45.7 36.3,45.7 C34.7,45.7 33.9,44.2 32.6,38.7 C31.6,34.3 30.2,28.1 24.4,28.1 C18.5,28.1 16.8,34.5 15.5,39.2 C14.8,41.9 13.7,45.8 12.5,45.8 C12.3,45.8 11.1,45 10,41 C9,37.5 8.5,32.8 8.5,28.1 C8.5,25.8 7.6,23.4 6.7,20.8 C5.1,16.3 3.4,11.7 6.1,7.7 C8.3,4.5 10,4.1 11.3,4.1 C12.8,4.1 14.5,4.7 16.4,5.3 C18.7,6.1 21.3,6.9 24.2,6.9 C27.1,6.9 29.6,6.1 31.9,5.3 L32,5.3 C33.8,4.7 35.5,4.1 37,4.1 C38.4,4.1 40.2,4.5 42.5,7.7 C45.4,11.6 43.7,16.4 42.1,20.9 Z" id="Shape" fill="#2168F3" fill-rule="nonzero"></path>
                </g>
            </g>
        </g>
    </g>
</svg>