<?xml version="1.0" encoding="UTF-8"?>
<svg width="110px" height="110px" viewBox="0 0 110 110" version="1.1" xmlns="http://www.w3.org/2000/svg" xmlns:xlink="http://www.w3.org/1999/xlink">
    <!-- Generator: Sketch 52.5 (67469) - http://www.bohemiancoding.com/sketch -->
    <title>mdpi/doctor_chat</title>
    <desc>Created with Sketch.</desc>
    <g id="Atoms" stroke="none" stroke-width="1" fill="none" fill-rule="evenodd">
        <g id="Icons" transform="translate(-2024.000000, -4518.000000)">
            <g id="doctor_chat" transform="translate(2024.000000, 4518.000000)">
                <rect id="Rectangle-Copy-6" fill-opacity="0.01" fill="#FFFFFF" x="0" y="0" width="110" height="110"></rect>
                <path d="M23.5701549,62.6723623 C4.57015487,45.9723623 1.37015487,16.3723623 30.8701549,12.2723623 C44.7701549,10.3723623 44.9701549,18.9723623 56.6701549,20.7723623 C67.7701549,22.5723623 86.0701549,16.7723623 94.4701549,27.1723623 C108.870155,45.1723623 99.4701549,83.7723623 79.7701549,94.6723623 C72.2701549,98.8723623 62.8701549,99.8723623 54.5701549,98.2723623 C36.8701549,94.9723623 35.1701549,78.4723623 26.5701549,66.0723623 L23.5701549,62.6723623 Z" id="Path-16" fill="#EFF4FF"></path>
                <g id="Group-5" transform="translate(13.000000, 16.000000)">
                    <g id="noun_chat_1440162_000000" opacity="0.584356399" transform="translate(45.207273, 0.000000)" fill="#FFC72D">
                        <path d="M29.0011086,29.5294111 C29.2882483,32.7046165 33.308204,34.3557234 33.308204,34.3557234 C26.7614191,35.4987974 23.6603104,33.3396576 22.2820399,31.815559 C21.1334812,31.9425672 19.9849224,32.0695754 18.8363636,32.0695754 C8.44190687,32.0695754 0,24.893611 0,16.0665398 C0,7.23946852 8.44190687,0 18.8363636,0 C29.2308204,0 37.6727273,7.17596441 37.6727273,16.0030357 C37.6727273,21.7184055 34.227051,26.6717261 29.0011086,29.5294111 Z" id="Path" transform="translate(18.836364, 17.338462) scale(-1, 1) translate(-18.836364, -17.338462) "></path>
                    </g>
                    <g id="Group-3" transform="translate(0.000000, 6.030769)" stroke="#2168F3" stroke-width="3">
                        <rect id="Rectangle" fill="#B7CFFF" x="13.4094428" y="1.5" width="26.773607" height="27.2769231" rx="13.2917889"></rect>
                        <path d="M14,35.9615385 C7.09644063,35.9615385 1.5,41.5579791 1.5,48.4615385 L1.5,65.4666667 C1.5,67.951948 3.51471863,69.9666667 6,69.9666667 L46.7418182,69.9666667 C49.2270996,69.9666667 51.2418182,67.951948 51.2418182,65.4666667 L51.2418182,48.4615385 C51.2418182,41.5579791 45.6453776,35.9615385 38.7418182,35.9615385 L14,35.9615385 Z" id="Rectangle"></path>
                    </g>
                    <path d="M43.7003636,57.2923077 C43.7003636,58.2010537 42.9572304,58.9445732 42.0489564,58.9445732 L39.3241345,58.9445732 L39.3241345,61.6708114 C39.3241345,62.5795574 38.5810012,63.3230769 37.6727273,63.3230769 C36.7644533,63.3230769 36.02132,62.5795574 36.02132,61.6708114 L36.02132,58.9445732 L33.2964981,58.9445732 C32.3882242,58.9445732 31.6450909,58.2010537 31.6450909,57.2923077 C31.6450909,56.3835616 32.3882242,55.6400421 33.2964981,55.6400421 L36.02132,55.6400421 L36.02132,52.913804 C36.02132,52.005058 36.7644533,51.2615385 37.6727273,51.2615385 C38.5810012,51.2615385 39.3241345,52.005058 39.3241345,52.913804 L39.3241345,55.6400421 L42.0489564,55.6400421 C42.9572304,55.6400421 43.7003636,56.3835616 43.7003636,57.2923077 Z" id="Path" fill="#3FCB7F"></path>
                </g>
            </g>
        </g>
    </g>
</svg>