<?xml version="1.0" encoding="UTF-8"?>
<svg width="110px" height="110px" viewBox="0 0 110 110" version="1.1" xmlns="http://www.w3.org/2000/svg" xmlns:xlink="http://www.w3.org/1999/xlink">
    <!-- Generator: Sketch 52.5 (67469) - http://www.bohemiancoding.com/sketch -->
    <title>doctor_consult</title>
    <desc>Created with Sketch.</desc>
    <g id="Atoms" stroke="none" stroke-width="1" fill="none" fill-rule="evenodd">
        <g id="Icons" transform="translate(-2185.000000, -3751.000000)">
            <g id="doctor_consult" transform="translate(2185.000000, 3751.000000)">
                <rect id="Rectangle-Copy-6" fill-opacity="0.01" fill="#FFFFFF" x="0" y="0" width="110" height="110"></rect>
                <path d="M23.6,62.7 C4.6,46 1.4,16.4 30.9,12.3 C44.8,10.4 45,19 56.7,20.8 C67.8,22.6 86.1,16.8 94.5,27.2 C108.9,45.2 99.5,83.8 79.8,94.7 C72.3,98.9 62.9,99.9 54.6,98.3 C36.9,95 35.2,78.5 26.6,66.1 L23.6,62.7 Z" id="Path-16" fill="#EFF4FF"></path>
                <g id="Doctor-consultation" transform="translate(20.000000, 24.000000)">
                    <circle id="Oval" fill="#FFDF85" cx="50.4" cy="20.4" r="20.4"></circle>
                    <polyline id="Path-9" stroke="#2168F3" stroke-width="3.5" stroke-linecap="round" stroke-linejoin="round" points="50.4 8.7 50.4 21.8 59.2 21.8"></polyline>
                    <g id="Group-3" transform="translate(0.000000, 4.829278)" stroke="#2168F3" stroke-width="3.8">
                        <path d="M25.7,0.4 C31.8,0.4 36.8,5.3 36.8,11.5 C36.8,17.7 31.9,22.6 25.7,22.6 C19.5,22.6 14.6,17.7 14.6,11.5 C15,5.1 19.6,0.4 25.7,0.4 Z" id="Rectangle" fill="#B7CFFF"></path>
                        <path d="M12.6,29.5 C5.9,29.5 0.4,35 0.4,41.7 L0.4,53.3 C0.4,55.3 1.9,56.8 3.9,56.8 L44.6,56.8 C46.6,56.8 48.1,55.3 48.1,53.3 L48.1,41.7 C48.1,35 42.6,29.5 35.9,29.5 L12.6,29.5 Z" id="Rectangle_1_"></path>
                    </g>
                    <path d="M41.7,49.5 C41.7,50.4 41.1,51.2 40,51.2 L37.4,51.2 L37.4,53.8 C37.4,54.7 36.8,55.3 35.7,55.3 C34.8,55.3 34.2,54.7 34.2,53.8 L34.2,51.2 L31.6,51.2 C30.7,51.2 29.9,50.6 29.9,49.5 C29.9,48.4 30.5,48 31.6,48 L34.2,48 L34.2,45.4 C34.2,44.5 34.8,43.7 35.7,43.7 C36.6,43.7 37.4,44.3 37.4,45.4 L37.4,48 L40,48 C41.1,48 41.7,48.6 41.7,49.5 Z" id="Path" fill="#3FCB7F"></path>
                </g>
            </g>
        </g>
    </g>
</svg>