<?xml version="1.0" encoding="UTF-8"?>
<svg width="110px" height="110px" viewBox="0 0 110 110" version="1.1" xmlns="http://www.w3.org/2000/svg" xmlns:xlink="http://www.w3.org/1999/xlink">
    <!-- Generator: Sketch 52.5 (67469) - http://www.bohemiancoding.com/sketch -->
    <title>gym</title>
    <desc>Created with Sketch.</desc>
    <g id="Atoms" stroke="none" stroke-width="1" fill="none" fill-rule="evenodd">
        <g id="Icons" transform="translate(-2020.000000, -3750.000000)">
            <g id="gym" transform="translate(2020.000000, 3750.000000)">
                <rect id="Rectangle-Copy-6" fill-opacity="0.01" fill="#FFFFFF" x="0" y="0" width="110" height="110"></rect>
                <path d="M23.6,62.7 C4.6,46 1.4,16.4 30.9,12.3 C44.8,10.4 45,19 56.7,20.8 C67.8,22.6 86.1,16.8 94.5,27.2 C108.9,45.2 99.5,83.8 79.8,94.7 C72.3,98.9 62.9,99.9 54.6,98.3 C36.9,95 35.2,78.5 26.6,66.1 L23.6,62.7 Z" id="Path-16" fill="#EFF4FF"></path>
                <g id="gym-copy" transform="translate(13.000000, 32.000000)">
                    <path d="M3.6,19.3 L80,19.3 C82.2,19.3 83.6,20.4 83.6,22 L83.6,24.7 C83.6,26.3 82.1,27.4 80,27.4 L3.6,27.4 C1.4,27.4 0,26.3 0,24.7 L0,22 C0,20.3 1.5,19.3 3.6,19.3 Z" id="Rectangle" fill="#2168F3"></path>
                    <path d="M20,0.4 C25.5,0.4 29.8,4.8 29.8,10.2 L29.8,35.7 C29.8,41.2 25.4,45.9 19.6,45.9 C14.1,45.9 9.4,41.5 9.4,35.7 L9.4,10.2 C10.2,4.7 14.5,0.4 20,0.4 Z" id="Rectangle_1_" stroke="#2168F3" stroke-width="3.5" fill="#B7CFFF"></path>
                    <path d="M63.6,0.4 C69.1,0.4 73.8,4.8 73.8,10.6 L73.8,36 C73.8,41.5 69.4,46.2 63.6,46.2 C58.1,46.2 53.4,41.8 53.4,36 L53.4,10.5 C53.8,4.7 58.2,0.4 63.6,0.4 Z" id="Rectangle-Copy" stroke="#2168F3" stroke-width="3.5" fill="#B7CFFF"></path>
                </g>
            </g>
        </g>
    </g>
</svg>