<?xml version="1.0" encoding="UTF-8"?>
<svg width="110px" height="110px" viewBox="0 0 110 110" version="1.1" xmlns="http://www.w3.org/2000/svg" xmlns:xlink="http://www.w3.org/1999/xlink">
    <!-- Generator: Sketch 52.5 (67469) - http://www.bohemiancoding.com/sketch -->
    <title>health_check</title>
    <desc>Created with Sketch.</desc>
    <g id="Atoms" stroke="none" stroke-width="1" fill="none" fill-rule="evenodd">
        <g id="Icons" transform="translate(-2492.000000, -3752.000000)">
            <g id="health_check" transform="translate(2492.000000, 3752.000000)">
                <rect id="Rectangle-Copy-6" fill-opacity="0.01" fill="#FFFFFF" x="0" y="0" width="110" height="110"></rect>
                <path d="M23.6,62.7 C4.6,46 1.4,16.4 30.9,12.3 C44.8,10.4 45,19 56.7,20.8 C67.8,22.6 86.1,16.8 94.5,27.2 C108.9,45.2 99.5,83.8 79.8,94.7 C72.3,98.9 62.9,99.9 54.6,98.3 C36.9,95 35.2,78.5 26.6,66.1 L23.6,62.7 Z" id="Path-16" fill="#EFF4FF"></path>
                <g id="basic_health_check" transform="translate(29.000000, 23.000000)">
                    <g id="Health-Checkup">
                        <path d="M50.9,6.1 C49.2,3.3 46.4,1.6 43.1,1.6 L43.1,4.7 C45.3,4.7 47,5.8 48.1,7.5 C49.2,9.4 49.2,11.4 48.1,13.3 L37.8,30.9 C36.7,32.8 34.7,33.7 32.8,33.7 C30.6,33.7 28.9,32.6 27.8,30.9 L17.8,13.4 C16.7,11.7 16.7,9.5 17.8,7.8 C18.9,6.1 20.9,5 22.8,5 L22.8,1.7 C19.7,1.7 16.7,3.4 15,6.2 C13.3,9 13.3,12.3 15,15.1 L25.3,32.6 C26.7,34.8 28.9,36.5 31.4,37.1 L31.4,45.7 C31.4,54 26.4,60.7 20.5,60.7 C14.6,60.7 9.7,54 9.7,45.6 L9.7,35.6 C13.3,34.8 16.1,31.7 16.1,27.8 C16.1,23.3 12.5,20 8.3,20 C4.1,20 0,23.4 0,27.5 C0,31.4 2.8,34.5 6.4,35.3 L6.4,45.3 C6.4,55.3 12.8,63.7 20.6,63.7 C28.4,63.7 34.8,55.6 34.8,45.3 L34.8,36.7 C37.3,36.1 39.5,34.8 40.9,32.2 L51.2,14.7 C52.6,12.2 52.6,8.9 50.9,6.1 Z" id="Path" stroke="#2168F3" fill="#2168F3"></path>
                        <circle id="Oval" stroke="#3FCB7F" stroke-width="4" fill="#3FCB7F" cx="24.5" cy="3.1" r="3.1"></circle>
                        <circle id="Oval_1_" stroke="#3FCB7F" stroke-width="4" fill="#3FCB7F" cx="41.5" cy="3.1" r="3.1"></circle>
                    </g>
                    <circle id="Oval" fill="#B7CFFF" cx="8" cy="27.8" r="5.4"></circle>
                    <circle id="Oval" fill="#FFFFFF" cx="8" cy="27.8" r="2.2"></circle>
                </g>
            </g>
        </g>
    </g>
</svg>