<?xml version="1.0" encoding="UTF-8"?>
<svg width="110px" height="110px" viewBox="0 0 110 110" version="1.1" xmlns="http://www.w3.org/2000/svg" xmlns:xlink="http://www.w3.org/1999/xlink">
    <!-- Generator: Sketch 52.5 (67469) - http://www.bohemiancoding.com/sketch -->
    <title>mdpi/insurance</title>
    <desc>Created with Sketch.</desc>
    <g id="Atoms" stroke="none" stroke-width="1" fill="none" fill-rule="evenodd">
        <g id="Icons" transform="translate(-2024.000000, -4168.000000)">
            <g id="insurance" transform="translate(2024.000000, 4168.000000)">
                <rect id="Rectangle-Copy-6" fill-opacity="0.01" fill="#FFFFFF" x="0" y="0" width="110" height="110"></rect>
                <path d="M23.5701549,62.6723623 C4.57015487,45.9723623 1.37015487,16.3723623 30.8701549,12.2723623 C44.7701549,10.3723623 44.9701549,18.9723623 56.6701549,20.7723623 C67.7701549,22.5723623 86.0701549,16.7723623 94.4701549,27.1723623 C108.870155,45.1723623 99.4701549,83.7723623 79.7701549,94.6723623 C72.2701549,98.8723623 62.8701549,99.8723623 54.5701549,98.2723623 C36.8701549,94.9723623 35.1701549,78.4723623 26.5701549,66.0723623 L23.5701549,62.6723623 Z" id="Path-16" fill="#EFF4FF"></path>
                <g id="Group-6" transform="translate(12.000000, 13.000000)">
                    <g id="umbrella" fill-rule="nonzero">
                        <path d="M83.9205322,37.6786193 C82.7977295,33.067566 80.8283387,28.8025818 78.0642699,24.9983826 C75.2848205,21.1762391 71.9599914,17.9815063 68.181427,15.5026246 C64.4509277,13.0538635 60.2923279,11.1383057 55.820984,9.80850216 C52.1430359,8.71389766 48.3580627,8.06533809 44.5378418,7.86987305 L44.5378418,2.4609375 C44.5378418,1.10165409 43.4361877,0 42.0775451,0 C40.7182617,0 39.6166076,1.10165409 39.6166076,2.4609375 L39.6166076,7.86538692 C34.192932,8.12557987 28.9621582,9.24710079 24.0351562,11.2113648 C18.3198852,13.4909363 13.25766,16.9638062 8.98883048,21.5344848 C4.70910645,26.1160584 1.7643127,31.5448609 0.234558187,37.6728516 C0.101257406,38.0817262 0.08203125,38.4572754 0.08203125,38.7283631 C0.08203125,39.8011779 0.488342203,40.7733765 1.25418087,41.5372926 C2.02130119,42.3037719 2.99221798,42.7094422 4.06311035,42.7094422 C5.00262459,42.7094422 5.90048222,42.3569641 6.73233028,41.6629028 L6.84063712,41.5674133 C8.22235116,40.2702941 9.52523808,39.2974549 10.7146912,38.6764527 C11.7471313,38.1368408 12.9949035,37.8631897 14.4214783,37.8631897 C16.1255492,37.8631897 17.6924744,38.3182068 19.212616,39.2551574 C20.8205566,40.246582 22.2259826,41.5706176 23.3891602,43.190094 C23.5698852,43.4502869 23.810852,43.8367309 24.1030883,44.335968 C24.5664367,45.1319275 24.7586975,45.4350586 24.8625184,45.5914307 C25.6687316,46.8276672 26.8710022,47.5082703 28.2495117,47.5082703 C29.6581422,47.5082703 30.8770752,46.8276672 31.6839295,45.5914307 C31.8447875,45.3485412 32.0934449,44.9371033 32.4401551,44.3417359 C32.7349549,43.8380127 32.9759217,43.4502869 33.1579285,43.1888123 C34.3230285,41.5667725 35.7226867,40.2414551 37.3178101,39.2500305 C38.0663453,38.7847596 38.8289795,38.4386902 39.6166076,38.2079773 L39.6166076,76.2070312 C39.6166076,77.7899781 38.3284607,79.078125 36.7455139,79.078125 C35.1625672,79.078125 33.8744201,77.7899781 33.8744201,76.2070312 L33.8744201,70.546875 C33.8744201,69.1882324 32.772766,68.0865783 31.4134826,68.0865783 C30.0541992,68.0865783 28.9525451,69.1882324 28.9525451,70.546875 L28.9525451,76.2070312 C28.9525451,80.5040588 32.4484863,84 36.7455139,84 C41.0425414,84 44.5378418,80.5040588 44.5378418,76.2070312 L44.5378418,38.2079773 C45.3254699,38.4386902 46.0874633,38.7847596 46.8359985,39.2500305 C48.4330445,40.2427367 49.8333435,41.5686951 50.9978027,43.1920166 C51.1714783,43.4406738 51.4124451,43.827118 51.7104492,44.335968 C52.1737976,45.1312867 52.3686219,45.4369812 52.4737244,45.594635 C53.2792969,46.828949 54.4969482,47.5082703 55.9049377,47.5082703 C57.2828064,47.5082703 58.4831543,46.8283082 59.2887268,45.5939941 C59.3938293,45.4363403 59.5886535,45.1312867 60.0475158,44.3423768 C60.3493652,43.827118 60.590332,43.4406738 60.7633668,43.1926574 C61.9291076,41.5706176 63.3345336,40.2459412 64.9418336,39.2551574 C66.4613342,38.3182068 68.0289002,37.8625488 69.7336121,37.8625488 C71.1608277,37.8625488 72.407959,38.1362 73.4403992,38.6758117 C74.6279297,39.2961731 75.9314574,40.2690125 77.3144531,41.5674133 L77.4208375,41.6616211 C78.2526855,42.3563232 79.151825,42.7088012 80.0919801,42.7088012 C81.1641541,42.7088012 82.1363525,42.3024902 82.9015504,41.5360107 C83.6673889,40.7688904 84.0724182,39.7979736 84.0724182,38.7277222 L84.0724182,38.7104187 C84.0704957,38.4425354 84.0493469,38.0759582 83.9205322,37.6786193 Z M75.7199707,34.3140564 C73.9768066,33.4027404 71.9625549,32.9413147 69.7336121,32.9413147 C67.1265564,32.9413147 64.645752,33.6558838 62.3591309,35.0657959 C60.1904297,36.4026488 58.3062744,38.175293 56.7572937,40.3337402 L56.7438355,40.3529664 C56.5041504,40.6939086 56.2292176,41.128418 55.8805848,41.7180176 C55.5345154,41.1316223 55.2589416,40.6958313 55.0186156,40.3536072 L55.0051574,40.3350219 C53.4606629,38.1791383 51.5861207,36.4077758 49.4353637,35.0709229 C47.1634826,33.6578064 44.6878051,32.9413147 42.0775451,32.9413147 C42.0775451,32.9413147 42.0775451,32.9413147 42.0769043,32.9413147 C42.0769043,32.9413147 42.0769043,32.9413147 42.0762635,32.9413147 C39.4672852,32.9413147 36.9916076,33.6571656 34.7190857,35.070282 C32.5683289,36.407135 30.6937867,38.1778564 29.1480102,40.3343811 L29.1287842,40.3606567 C28.8890992,40.7054443 28.6090393,41.1489258 28.2732238,41.7180176 C27.9380492,41.1502074 27.6567078,40.7041625 27.4151,40.3587342 L27.3977967,40.3343811 C25.8507385,38.1765746 23.9659424,36.4032898 21.7953186,35.0657959 C19.5086975,33.6558838 17.027893,32.9413147 14.4214783,32.9413147 C12.1931762,32.9413147 10.1789246,33.4027404 8.43511955,34.3140564 C7.60583496,34.747284 6.75347892,35.2913818 5.88510136,35.9412231 C7.3321838,31.8185119 9.57843009,28.1130066 12.5853883,24.8939209 C16.3562621,20.8570861 20.8218383,17.791809 25.8584289,15.7833252 C30.9437256,13.7556152 36.4000855,12.7270203 42.0762635,12.7270203 C46.2540894,12.7270203 50.4062805,13.3320008 54.4174805,14.5259399 C58.4293213,15.7192383 62.1514893,17.4316406 65.4814453,19.6170043 C68.7614137,21.7696838 71.6555785,24.5536193 74.083191,27.8919067 C75.8814697,30.3663025 77.2901,33.0682068 78.2904969,35.9559631 C77.4137879,35.2990723 76.5550232,34.7498475 75.7199707,34.3140564 Z" id="Shape" fill="#2168F3"></path>
                        <path d="M75.6279728,34.6215189 C73.8848087,33.7102029 71.870557,33.2487771 69.6416142,33.2487771 C67.0345585,33.2487771 64.553754,33.9633462 62.2671329,35.3732584 C60.0984318,36.7101113 58.2142765,38.4827554 56.6652958,40.6412027 L56.6518376,40.6604288 C56.4121525,41.0013711 56.1372197,41.4358804 55.7885868,42.02548 C55.4425175,41.4390847 55.1669437,41.0032937 54.9266177,40.6610697 L54.9131595,40.6424843 C53.368665,38.4866007 51.4941228,36.7152383 49.3433658,35.3783853 C47.0714847,33.9652689 44.5958072,33.2487771 41.9855472,33.2487771 C39.3752872,33.2487771 36.8996097,33.9646281 34.6270878,35.3777445 C32.476331,36.7145974 30.6017888,38.4853189 29.0560123,40.6418435 L29.0367863,40.6681191 C28.7971013,41.0129068 28.5170414,41.4563882 28.1812259,42.02548 C27.8460513,41.4576699 27.5647099,41.011625 27.3231021,40.6661966 L27.3057988,40.6418435 C25.7587406,38.4840371 23.8739445,36.7107523 21.7033207,35.3732584 C19.4166996,33.9633462 16.9358951,33.2487771 14.3294804,33.2487771 C12.1011783,33.2487771 10.0869267,33.7102029 8.34312164,34.6215189 C7.51383705,35.0547464 6.66148101,35.5988443 5.79310345,36.2486855 C7.24018589,32.1259744 9.48643218,28.4204691 12.4933904,25.2013834 C16.2642642,21.1645486 20.7298404,18.0992715 25.766431,16.0907876 C30.8517277,14.0630777 36.3080876,13.0344828 41.9842656,13.0344828 C46.1620915,13.0344828 50.3142826,13.6394632 54.3254826,14.8334023 C58.3373234,16.0267007 62.0594913,17.7391031 65.3894474,19.9244668 C68.6694157,22.0771463 71.5635806,24.8610818 73.9911931,28.1993691 C75.7894718,30.673765 77.1981021,33.3756693 78.198499,36.2634255 C77.32179,35.6065347 76.4630253,35.0573099 75.6279728,34.6215189 Z" id="Path" fill="#B7CFFF"></path>
                    </g>
                    <g id="insurance-(1)" transform="translate(36.206897, 56.482759)">
                        <path d="M25.2397902,6.62499084 L13.416083,0.132695447 C13.0938841,-0.0442318157 12.7035907,-0.0442318157 12.3813918,0.132695447 L0.557577108,6.62499084 C0.163682846,6.84125916 -0.054090322,7.27976145 0.011585594,7.72428314 L0.661680422,12.1260206 C1.65660068,18.8594681 6.39515564,24.2551584 12.4006861,27.3949186 C12.5566529,27.4764492 12.7276683,27.5172414 12.8986837,27.5172414 C13.069699,27.5172414 13.2407144,27.4764492 13.3966812,27.3949186 C19.4098972,24.2511813 24.1420028,18.8510839 25.1357406,12.1259669 L25.7858355,7.72428314 C25.8515114,7.27976145 25.6337382,6.8413129 25.2397902,6.62499084 Z" id="Path" fill="#3FCB7F" fill-rule="nonzero"></path>
                        <path d="M11.5019756,8.87006106 L11.5019756,12.3618894 L8.01014727,12.3618894 C7.23873256,12.3618894 6.61341595,12.987206 6.61341595,13.7586207 C6.61341595,14.5300354 7.23873256,15.155352 8.01014727,15.155352 L11.5019756,15.155352 L11.5019756,18.6471803 C11.5019756,19.418595 12.1272922,20.0439116 12.8987069,20.0439116 C13.6701216,20.0439116 14.2954382,19.418595 14.2954382,18.6471803 L14.2954382,15.155352 L17.7872665,15.155352 C18.5586812,15.155352 19.1839978,14.5300354 19.1839978,13.7586207 C19.1839978,12.987206 18.5586812,12.3618894 17.7872665,12.3618894 L14.2954382,12.3618894 L14.2954382,8.87006106 C14.2954382,8.09864635 13.6701216,7.47332974 12.8987069,7.47332974 C12.1272922,7.47332974 11.5019756,8.09864635 11.5019756,8.87006106 Z" id="Path" fill="#C4F1D8"></path>
                    </g>
                </g>
            </g>
        </g>
    </g>
</svg>