<?xml version="1.0" encoding="UTF-8"?>
<svg width="110px" height="110px" viewBox="0 0 110 110" version="1.1" xmlns="http://www.w3.org/2000/svg" xmlns:xlink="http://www.w3.org/1999/xlink">
    <!-- Generator: Sketch 52.5 (67469) - http://www.bohemiancoding.com/sketch -->
    <title>mdpi/mind</title>
    <desc>Created with Sketch.</desc>
    <g id="Atoms" stroke="none" stroke-width="1" fill="none" fill-rule="evenodd">
        <g id="Icons" transform="translate(-2024.000000, -4717.000000)">
            <g id="mind" transform="translate(2024.000000, 4717.000000)">
                <rect id="Rectangle-Copy-6" fill-opacity="0.01" fill="#FFFFFF" x="0" y="0" width="110" height="110"></rect>
                <path d="M23.5701549,62.6723623 C4.57015487,45.9723623 1.37015487,16.3723623 30.8701549,12.2723623 C44.7701549,10.3723623 44.9701549,18.9723623 56.6701549,20.7723623 C67.7701549,22.5723623 86.0701549,16.7723623 94.4701549,27.1723623 C108.870155,45.1723623 99.4701549,83.7723623 79.7701549,94.6723623 C72.2701549,98.8723623 62.8701549,99.8723623 54.5701549,98.2723623 C36.8701549,94.9723623 35.1701549,78.4723623 26.5701549,66.0723623 L23.5701549,62.6723623 Z" id="Path-16" fill="#EFF4FF"></path>
                <g id="thinking" transform="translate(15.000000, 13.000000)">
                    <path d="M39.3528916,12.076695 L39.3528916,68.7293831 C39.3528916,74.2564746 34.747054,78.8623122 29.2199625,78.8623122 C23.692871,78.8623122 19.0868174,74.2564746 19.0868174,68.7293831 C19.0868174,67.3476102 19.3171849,65.9658373 19.7777039,64.8144319 C19.0868174,65.0447993 18.6262984,65.0447993 17.935412,65.0447993 C12.8688395,65.0447993 8.72352082,60.8994807 8.72352082,55.8329082 C8.72352082,53.9906163 9.18403981,52.378476 10.1052937,50.9967031 C5.26908862,50.0754492 1.81465642,45.9301305 1.81465642,41.0939255 C1.81465642,36.4880878 4.80856962,32.8032882 8.95388827,31.4215153 C8.03263438,29.809375 7.57211538,27.9670831 7.57211538,25.8944238 C7.57211538,19.6764458 12.6386879,14.3797217 19.0868174,14.3797217 L19.3171849,14.3797217 C19.0868174,13.6888353 19.0868174,12.9979489 19.0868174,12.076695 C19.0868174,6.54960345 23.6926551,1.94376582 29.2197466,1.94376582 C34.747054,1.94376582 39.3528916,6.54960345 39.3528916,12.076695 Z" id="Path" fill="#B7CFFF"></path>
                    <g id="Group" transform="translate(0.058725, 0.158904)" fill="#2168F3">
                        <path d="M29.1612371,80.3155487 C22.7128917,80.3155487 17.4161676,75.0188246 17.4161676,68.5704792 C17.4161676,67.8795927 17.4161676,67.1887063 17.6465351,66.4978199 C11.6589246,66.2674524 7.05287104,61.4312473 7.05287104,55.6740043 C7.05287104,54.2922314 7.28323849,52.9104585 7.74375748,51.7590531 C3.3680714,50.1469128 0.144006642,45.7714426 0.144006642,40.70487 C0.144006642,36.0990324 2.67718496,32.1838653 6.59235205,30.111206 C6.13183306,28.7294331 5.67109816,27.1172928 5.67109816,25.5053684 C5.67109816,18.8268714 10.7376707,13.2997799 17.1858002,12.6088934 C17.1858002,12.378526 17.1858002,12.1483744 17.1858002,11.918007 C17.1858002,5.46966159 22.4825243,0.172937512 28.9308697,0.172937512 C35.3792151,0.172937512 40.6759392,5.46966159 40.6759392,11.918007 L40.6759392,68.5706951 C40.9063066,75.0188246 35.6093666,80.3155487 29.1612371,80.3155487 Z M19.7189785,63.0433877 C20.1794975,63.0433877 20.6402324,63.2737551 20.8703839,63.5039067 C21.3309029,63.9644257 21.3309029,64.6553121 21.1007514,65.116047 C20.6402324,66.2674524 20.409865,67.1887063 20.409865,68.3401117 C20.409865,73.1763168 24.3248161,76.8611165 28.9308697,76.8611165 C33.7670748,76.8611165 37.4518744,72.9461653 37.4518744,68.3401117 L37.4518744,11.9177911 C37.4518744,7.08158601 33.5369232,3.39678636 28.9308697,3.39678636 C24.0946646,3.39678636 20.409865,7.31173756 20.409865,11.9177911 C20.409865,12.6086775 20.409865,13.299564 20.6402324,13.760083 C20.8705998,14.220602 20.6402324,14.9114884 20.1797134,15.1418558 C19.7191944,15.6023748 19.2584595,15.6023748 18.7979405,15.6023748 C13.5012165,15.6023748 8.89516292,19.9780609 8.89516292,25.5051525 C8.89516292,27.1172928 9.35568191,28.7292172 10.0465684,30.1109901 C10.2769358,30.5715091 10.2769358,31.032244 10.0465684,31.492763 C9.8162009,31.953282 9.58604936,32.1836494 9.12531446,32.4140169 C5.67088226,33.5654223 3.13770395,36.7897029 3.13770395,40.4742867 C3.13770395,44.6196053 6.13161716,48.0740375 10.0465684,48.9952914 C10.5070873,48.9952914 10.9678222,49.4558104 11.1979738,49.9165453 C11.4283412,50.3770643 11.4283412,51.0679507 10.9676063,51.5286856 C10.2767199,52.6800911 9.8162009,54.0618639 9.8162009,55.6740043 C9.8162009,59.8193229 13.2706331,63.2737551 17.4159517,63.2737551 C17.8764707,63.2737551 18.5673572,63.2737551 18.7977246,63.0433877 C19.488827,63.0433877 19.488827,63.0433877 19.7189785,63.0433877 Z" id="Shape" fill-rule="nonzero"></path>
                        <path d="M24.785551,19.9780609 C24.325032,19.9780609 23.6341456,19.7476935 23.4037782,19.056807 C22.9432592,18.3659206 23.1734107,17.2145152 24.0946646,16.9841477 C27.7794643,14.9114884 26.8582104,11.9175752 26.8582104,11.9175752 C26.6278429,10.9963213 27.0885778,10.0752833 28.0096158,9.84491587 C28.9308697,9.61454842 29.8519077,10.0752833 30.0822751,10.9963213 C30.5427941,12.8386132 30.5427941,17.2142993 25.9369565,19.7474776 C25.24607,19.9780609 25.0159185,19.9780609 24.785551,19.9780609 Z" id="Path"></path>
                        <path d="M24.325032,54.7527504 C23.8645131,54.7527504 23.4037782,54.5223829 22.9432592,54.0618639 C20.6402324,50.6074317 16.2647622,51.0679507 16.2647622,51.0679507 C15.3435083,51.0679507 14.6526219,50.6074317 14.4224703,49.6861779 C14.4224703,48.764924 14.8829893,48.0740375 15.8042432,47.843886 C16.0346107,47.843886 22.0222212,47.1529995 25.4766534,52.2195721 C25.9371724,52.9104585 25.7070208,53.8317124 25.0161344,54.5225988 C24.785551,54.7527504 24.5551836,54.7527504 24.325032,54.7527504 Z" id="Path"></path>
                        <path d="M11.1981897,52.4497236 C10.7376707,52.4497236 10.2769358,52.4497236 10.0467843,52.4497236 C9.12553037,52.2193562 8.66501137,51.5284697 8.66501137,50.6074317 C8.89537882,49.6861779 9.58626526,49.2256589 10.5073032,49.2256589 C10.7376707,49.2256589 15.3435083,49.6861779 16.9556487,46.2317457 C17.4161676,45.3104918 18.3374215,45.0803402 19.028308,45.3104918 C19.9495619,45.7710108 20.1797134,46.6922646 19.9495619,47.3831511 C17.8766866,51.2983182 13.9617354,52.4497236 11.1981897,52.4497236 Z" id="Path"></path>
                        <path d="M28.9308697,49.9165453 C28.4703507,49.9165453 27.7794643,49.6861779 27.5490968,49.2256589 C24.325032,44.1590863 25.0159185,40.7046541 26.1673239,38.4018433 C27.7794643,35.1777785 31.2338965,33.7960056 32.3853019,33.5656382 C33.3065558,33.5656382 33.9974422,34.2565246 33.9974422,35.1777785 C33.9974422,36.0990324 33.3065558,36.7899188 32.6156693,36.7899188 C32.1551503,36.7899188 29.8521236,37.9413243 28.9308697,40.0139836 C28.0096158,42.0866429 28.4703507,44.3896697 30.3126426,47.383367 C30.7731616,48.0742534 30.54301,49.2256589 29.8521236,49.6863938 C29.3913887,49.9165453 29.1612371,49.9165453 28.9308697,49.9165453 Z" id="Path"></path>
                        <path d="M19.7189785,66.2674524 C19.4886111,66.2674524 19.0280921,66.2674524 18.7977246,66.037085 C18.1068382,65.576566 17.8764707,64.6553121 18.3372056,63.7340582 C19.7189785,61.6613989 23.6339297,58.2069667 29.1610212,60.740145 C30.0822751,61.200664 30.3124267,62.1219179 29.8519077,62.8128043 C29.3913887,63.7340582 28.4701348,63.9642098 27.7792483,63.5036908 C23.4035623,61.6613989 21.1007514,64.8854636 20.8703839,65.3459826 C20.8705998,66.0373009 20.1797134,66.2674524 19.7189785,66.2674524 Z" id="Path"></path>
                        <path d="M20.6402324,65.116047 C20.409865,65.116047 20.1797134,65.116047 19.949346,64.8856795 C19.0280921,64.4251605 18.7979405,63.5039067 19.0280921,62.8130202 C19.0280921,62.5826528 19.949346,60.2798419 17.1858002,58.4373341 C16.4949138,57.9768151 16.2645463,56.8251938 16.7252812,56.1343074 C17.1858002,55.4434209 18.3374215,55.2130535 19.028308,55.6737884 C22.9432592,58.4373341 22.4827402,62.3522853 21.7918537,63.9644257 C21.7916378,64.8856795 21.1007514,65.116047 20.6402324,65.116047 Z" id="Path"></path>
                        <path d="M27.7794643,72.0249114 C27.0885778,72.0249114 26.3976914,72.0249114 25.7068049,71.7945439 C24.785551,71.5641765 24.325032,70.6431385 24.5553995,69.9522521 C24.7857669,69.0309982 25.7068049,68.5704792 26.3976914,68.8008466 C30.3126426,69.7221005 31.4642639,66.7281873 31.6944154,66.4978199 C31.9247829,65.576566 33.0761883,65.3464144 33.7670748,65.576566 C34.6883287,65.8069334 34.9184802,66.9583389 34.6883287,67.6492253 C33.7670748,69.4917331 31.6944154,72.0249114 27.7794643,72.0249114 Z" id="Path"></path>
                        <path d="M32.8458209,24.5841145 C32.6154534,24.5841145 32.1549344,24.5841145 31.924567,24.353747 C26.3974755,20.4387958 26.8579945,13.5299314 26.8579945,13.299564 C26.8579945,12.3783101 27.7792483,11.6874236 28.7002863,11.9177911 C29.6215402,11.9177911 30.3124267,12.839045 30.0820592,13.760083 C30.0820592,13.9904504 29.6215402,19.056807 33.7668589,21.8203528 C34.4577453,22.2808718 34.6881128,23.4324931 34.2273779,24.1233796 C33.7670748,24.353747 33.3065558,24.5841145 32.8458209,24.5841145 Z" id="Path"></path>
                        <path d="M17.4161676,34.7170436 C16.9556487,34.7170436 16.7252812,34.7170436 16.4949138,34.4866762 C14.4222544,32.8745358 11.6587087,32.1836494 8.89516292,32.8745358 C7.97390903,33.1049033 7.05287104,32.6441684 7.05287104,31.7231304 C6.8225036,30.8018765 7.28323849,29.8808385 8.20427648,29.8808385 C11.8890761,28.9595847 15.5736599,29.8808385 18.5675731,32.1838653 C19.2584595,32.6443843 19.488827,33.7960056 18.7979405,34.4868921 C18.3372056,34.4866762 17.8766866,34.7170436 17.4161676,34.7170436 Z" id="Path"></path>
                        <path d="M13.0404816,32.6443843 C12.1192277,32.6443843 11.4283412,31.9534979 11.4283412,31.032244 C11.4283412,30.1109901 12.1192277,29.4201036 13.0404816,29.4201036 C13.270849,29.4201036 16.9554328,29.1897362 18.5675731,23.4324931 C18.7979405,22.5112392 19.7189785,22.0507202 20.409865,22.2810877 C21.3311188,22.5114551 21.7916378,23.4324931 21.5612704,24.1233796 C19.488827,32.4140169 13.5010006,32.6443843 13.0404816,32.6443843 Z" id="Path"></path>
                        <path d="M26.8582104,44.8499728 C26.3976914,44.8499728 25.9369565,44.6196053 25.7068049,44.3894538 C25.4764375,44.1590863 19.949346,38.6319948 12.81033,42.086427 C12.1194436,42.546946 10.9680381,42.086427 10.7376707,41.3955406 C10.2771517,40.7046541 10.7376707,39.5532487 11.4285571,39.3228813 C18.7979405,35.6380816 25.4766534,39.7834002 28.0098317,42.3167945 C28.7007181,43.0076809 28.7007181,43.9289348 28.0098317,44.6198212 C27.5490968,44.6198212 27.3187294,44.8499728 26.8582104,44.8499728 Z" id="Path"></path>
                    </g>
                    <path d="M39.3528916,12.076695 L39.3528916,68.7293831 C39.3528916,74.2564746 43.9587293,78.8623122 49.4858208,78.8623122 C55.0129123,78.8623122 59.6187499,74.2564746 59.6187499,68.7293831 C59.6187499,67.3476102 59.3883825,65.9658373 58.9278635,64.8144319 C59.6187499,65.0447993 60.0792689,65.0447993 60.7701554,65.0447993 C65.8367279,65.0447993 69.9820465,60.8994807 69.9820465,55.8329082 C69.9820465,53.9906163 69.5215276,52.378476 68.6002737,50.9967031 C73.4364787,50.0754492 76.890911,45.9301305 76.890911,41.0939255 C76.890911,36.4880878 73.8969977,32.8032882 69.7516791,31.4215153 C70.672933,29.809375 71.133452,27.9670831 71.133452,25.8944238 C71.133452,19.6764458 66.0668795,14.3797217 59.6187499,14.3797217 L59.3885984,14.3797217 C59.6189658,13.6888353 59.6189658,12.9979489 59.6189658,12.076695 C59.6189658,6.54960345 55.0131282,1.94376582 49.4860367,1.94376582 C43.9587293,1.94376582 39.3528916,6.54960345 39.3528916,12.076695 Z" id="Path" fill="#B7CFFF"></path>
                    <g id="Group" transform="translate(37.625676, 0.158904)" fill="#2168F3">
                        <path d="M11.8601453,80.3155487 C5.41179985,80.3155487 0.115075773,75.0188246 0.115075773,68.5704792 L0.115075773,11.9177911 C0.115075773,5.46944568 5.41179985,0.17272161 11.8601453,0.17272161 C18.3084907,0.17272161 23.6052147,5.46944568 23.6052147,11.9177911 C23.6052147,12.1481585 23.6052147,12.3783101 23.6052147,12.6086775 C30.0535601,13.299564 35.1199168,18.8266555 35.1199168,25.5051525 C35.1199168,27.1172928 34.8895493,28.7292172 34.1986629,30.1109901 C38.1136141,32.1836494 40.6470083,36.0986006 40.6470083,40.7046541 C40.6470083,45.7712267 37.6530951,50.1466968 33.0472575,51.7588372 C33.5077764,52.9102426 33.7381439,54.2920155 33.7381439,55.6737884 C33.7381439,61.4312473 29.1323063,66.2674524 23.3748473,66.497604 C23.6052147,67.1884904 23.6052147,67.8793768 23.6052147,68.5702633 C23.6052147,75.0188246 18.3084907,80.3155487 11.8601453,80.3155487 Z M11.8601453,3.39678636 C7.02394017,3.39678636 3.33914053,7.31173756 3.33914053,11.9177911 L3.33914053,68.5704792 C3.33914053,73.4066843 7.25409172,77.0914839 11.8601453,77.0914839 C16.6963503,77.0914839 20.38115,73.1765327 20.38115,68.5704792 C20.38115,67.4190738 20.1507825,66.2674524 19.6902635,65.3464144 C19.4598961,64.8858954 19.4598961,64.195009 19.920631,63.7342741 C20.38115,63.2737551 20.8418849,63.0433877 21.5327713,63.2737551 C21.9932903,63.2737551 22.4540252,63.5041226 22.9145442,63.5041226 C27.0598628,63.5041226 30.514295,60.0496904 30.514295,55.9043717 C30.514295,54.5225988 30.0537761,53.140826 29.3628896,51.7590531 C29.1325222,51.2985341 29.1325222,50.8377992 29.1325222,50.1469128 C29.3628896,49.6863938 29.8234086,49.2256589 30.2839276,49.2256589 C34.4292462,48.5347724 37.192792,44.8499728 37.192792,40.7046541 C37.192792,37.0198545 34.8897652,33.7957897 31.2051815,32.6443843 C30.7446625,32.4140169 30.2839276,32.1838653 30.2839276,31.7231304 C30.0535601,31.2626114 30.0535601,30.8018765 30.2839276,30.3413575 C30.974814,28.9595847 31.435333,27.3474443 31.435333,25.7355199 C31.435333,20.2084284 27.0596469,15.8327423 21.5325554,15.8327423 C21.0720364,15.8327423 20.38115,15.8327423 20.1507825,15.3722233 C19.6902635,14.9117043 19.6902635,14.4509694 19.6902635,13.9904504 C19.920631,13.5299314 19.920631,12.839045 19.920631,12.1481585 C20.38115,7.31195346 16.6963503,3.39678636 11.8601453,3.39678636 Z" id="Shape" fill-rule="nonzero"></path>
                        <path d="M16.2358313,19.9780609 C16.0054639,19.9780609 15.7753124,19.9780609 15.5449449,19.7476935 C10.9391073,16.9841477 10.7087398,12.8388291 11.3996263,10.9965372 C11.6299937,10.0752833 12.5510317,9.61476433 13.4722856,9.84513177 C14.3935395,10.0754992 14.8540585,10.9965372 14.623691,11.9177911 C14.623691,12.1481585 13.9328046,14.9117043 17.3872368,16.9843636 C18.0781232,17.4448826 18.5386422,18.3661365 18.0781232,19.0570229 C17.3872368,19.7479094 16.6963503,19.9780609 16.2358313,19.9780609 Z" id="Path"></path>
                        <path d="M16.6963503,54.7527504 C16.4659829,54.7527504 16.0054639,54.7527504 15.7750964,54.5223829 C15.08421,54.0618639 14.8538426,52.9102426 15.3145775,52.2193562 C18.7690097,47.3831511 24.7566202,47.8436701 24.9869876,47.8436701 C25.9082415,47.8436701 26.5991279,48.764924 26.3687605,49.685962 C26.3687605,50.6072158 25.4475066,51.0677348 24.5264686,51.0677348 C24.2961012,51.0677348 20.1507825,50.6072158 17.8479717,54.061648 C17.8479717,54.5223829 17.3872368,54.7527504 16.6963503,54.7527504 Z" id="Path"></path>
                        <path d="M29.8231927,52.4497236 C27.0596469,52.4497236 23.1446957,51.5284697 21.302188,47.3831511 C20.841669,46.4618972 21.302188,45.5408592 22.2234419,45.3104918 C23.1446957,44.8499728 24.0657337,45.3104918 24.2961012,46.2317457 C25.9082415,49.9165453 30.5140791,49.4560263 30.7444466,49.2256589 C31.6657005,48.9952914 32.3565869,49.6861779 32.5867385,50.6074317 C32.8171059,51.5286856 32.1262195,52.2195721 31.2049656,52.4497236 C30.7444466,52.4497236 30.2839276,52.4497236 29.8231927,52.4497236 Z" id="Path"></path>
                        <path d="M12.0905127,49.9165453 C11.8601453,49.9165453 11.3996263,49.9165453 11.1692588,49.6861779 C10.4783724,49.2256589 10.2480049,48.304405 10.7087398,47.3831511 C12.5510317,44.6196053 13.0117666,42.086427 12.0905127,40.0137677 C11.1692588,37.9411084 8.86644795,36.7897029 8.40571306,36.7897029 C7.48445917,36.7897029 6.79357273,36.0988165 7.02394017,35.1775626 C7.02394017,34.2563087 7.94519406,33.5654223 8.6360805,33.5654223 C9.78748594,33.5654223 13.2419181,35.1775626 14.8540585,38.4016274 C16.0054639,40.4742867 16.4661988,44.1590863 13.2419181,49.225443 C13.2419181,49.6861779 12.5510317,49.9165453 12.0905127,49.9165453 Z" id="Path"></path>
                        <path d="M21.3024039,66.2674524 C20.8418849,66.2674524 20.1509984,66.037085 19.920631,65.576566 C19.6902635,65.116047 17.3874527,61.8917663 13.0117666,63.7342741 C12.0905127,64.1947931 11.1694747,63.7342741 10.9391073,63.0433877 C10.4785883,62.1221338 10.9391073,61.2010958 11.6299937,60.9707283 C17.1570852,58.43755 21.3024039,61.8919822 22.4538093,63.9646416 C22.9143283,64.655528 22.6841768,65.8069334 21.9932903,66.2676683 C21.9932903,66.0373009 21.5325554,66.2674524 21.3024039,66.2674524 Z" id="Path"></path>
                        <path d="M20.38115,65.116047 C19.6902635,65.116047 19.2297446,64.655528 18.9993771,64.1947931 C18.3084907,62.5826528 18.0781232,58.6677016 21.7629229,55.9041558 C22.4538093,55.4436368 23.3750632,55.4436368 24.0659496,56.3646748 C24.5264686,57.0555613 24.5264686,57.9768151 23.6054306,58.6677016 C20.8418849,60.7403609 21.7631388,63.0433877 21.7631388,63.0433877 C22.2236578,63.9646416 21.7631388,64.8856795 20.8418849,65.116047 C20.841669,65.116047 20.6115174,65.116047 20.38115,65.116047 Z" id="Path"></path>
                        <path d="M13.2419181,72.0249114 C9.32696694,72.0249114 7.02394017,69.2613656 6.33305373,67.6492253 C6.10268629,66.7279714 6.33305373,65.8069334 7.25430762,65.576566 C8.17556151,65.3461985 9.0965995,65.576566 9.32696694,66.4978199 C9.55733439,66.7281873 10.7087398,69.4917331 14.623691,68.8008466 C15.5449449,68.5704792 16.2358313,69.2613656 16.4661988,69.9522521 C16.6965662,70.873506 16.0056798,71.5643924 15.3147934,71.7945439 C14.623691,72.0249114 13.9328046,72.0249114 13.2419181,72.0249114 Z" id="Path"></path>
                        <path d="M8.17556151,24.5841145 C7.71504252,24.5841145 7.25430762,24.353747 6.79378863,23.893228 C6.33326964,23.2023416 6.33326964,22.2810877 7.25430762,21.5902013 C11.3996263,18.596288 10.9391073,13.760083 10.9391073,13.5299314 C10.9391073,12.6086775 11.3996263,11.9177911 12.3208802,11.6876395 C13.242134,11.6876395 13.9330205,12.1481585 14.163172,13.0694124 C14.163172,13.2997799 14.8540585,19.9782768 9.0965995,24.1235955 C8.86644795,24.5841145 8.6360805,24.5841145 8.17556151,24.5841145 Z" id="Path"></path>
                        <path d="M23.6052147,34.7170436 C23.1446957,34.7170436 22.6839609,34.4866762 22.4538093,34.0261572 C21.9932903,33.3352707 21.9932903,32.4140169 22.6841768,31.7231304 C25.67809,29.4201036 29.3626737,28.7292172 33.0474734,29.4201036 C33.9687272,29.6504711 34.4292462,30.5715091 34.1988788,31.2623955 C33.9685113,32.1836494 33.0474734,32.6441684 32.3565869,32.413801 C29.8234086,31.7229145 27.0598628,32.413801 24.7568361,34.0259413 C24.2961012,34.7170436 23.8355822,34.7170436 23.6052147,34.7170436 Z" id="Path"></path>
                        <path d="M27.9809008,32.6443843 C27.5203818,32.6443843 21.5325554,32.4140169 19.4598961,24.353747 C19.2295287,23.4324931 19.6902635,22.5114551 20.6113015,22.5114551 C21.5325554,22.2810877 22.4535934,22.7418226 22.4535934,23.6628606 C24.0657337,29.6504711 27.9806849,29.6504711 27.9806849,29.6504711 C28.9019388,29.6504711 29.5928253,30.3413575 29.5928253,31.2626114 C29.5930412,31.7231304 28.9021547,32.6443843 27.9809008,32.6443843 Z" id="Path"></path>
                        <path d="M14.163172,44.8499728 C13.702653,44.8499728 13.4722856,44.6196053 13.0117666,44.3894538 C12.3208802,43.6985673 12.3208802,42.7773135 13.0117666,42.086427 C15.5449449,39.5532487 22.2234419,35.4079301 29.5930412,39.0927297 C30.2839276,39.5532487 30.7444466,40.4745026 30.2839276,41.165389 C29.8234086,41.8562755 28.9021547,42.3167945 28.2112683,41.8562755 C21.0720364,38.4018433 15.5449449,44.1593022 15.3147934,44.1593022 C15.0844259,44.6198212 14.623691,44.8499728 14.163172,44.8499728 Z" id="Path"></path>
                    </g>
                </g>
            </g>
        </g>
    </g>
</svg>