<?xml version="1.0" encoding="UTF-8"?>
<svg width="110px" height="110px" viewBox="0 0 110 110" version="1.1" xmlns="http://www.w3.org/2000/svg" xmlns:xlink="http://www.w3.org/1999/xlink">
    <!-- Generator: Sketch 52.5 (67469) - http://www.bohemiancoding.com/sketch -->
    <title>mdpi/mobile</title>
    <desc>Created with Sketch.</desc>
    <g id="Atoms" stroke="none" stroke-width="1" fill="none" fill-rule="evenodd">
        <g id="Icons" transform="translate(-2024.000000, -4000.000000)">
            <g id="mobile" transform="translate(2024.000000, 4000.000000)">
                <rect id="Rectangle-Copy-6" fill-opacity="0.01" fill="#FFFFFF" x="0" y="0" width="110" height="110"></rect>
                <path d="M23.5701549,62.6723623 C4.57015487,45.9723623 1.37015487,16.3723623 30.8701549,12.2723623 C44.7701549,10.3723623 44.9701549,18.9723623 56.6701549,20.7723623 C67.7701549,22.5723623 86.0701549,16.7723623 94.4701549,27.1723623 C108.870155,45.1723623 99.4701549,83.7723623 79.7701549,94.6723623 C72.2701549,98.8723623 62.8701549,99.8723623 54.5701549,98.2723623 C36.8701549,94.9723623 35.1701549,78.4723623 26.5701549,66.0723623 L23.5701549,62.6723623 Z" id="Path-16" fill="#EFF4FF"></path>
                <g transform="translate(27.000000, 13.000000)">
                    <g id="noun_App-user_2018817_000000" fill="#2168F3">
                        <path d="M45.0731707,83.0780488 L10.2439024,83.0780488 C4.91707317,83.0780488 0.512195122,78.7756098 0.512195122,73.3463415 L0.512195122,10.6536585 C0.512195122,5.32682927 4.81463415,0.92195122 10.2439024,0.92195122 L45.0731707,0.92195122 C50.4,0.92195122 54.804878,5.22439024 54.804878,10.6536585 L54.804878,73.3463415 C54.702439,78.6731707 50.4,83.0780488 45.0731707,83.0780488 Z M10.2439024,5.0195122 C7.17073171,5.0195122 4.6097561,7.5804878 4.6097561,10.6536585 L4.6097561,73.3463415 C4.6097561,76.4195122 7.17073171,78.9804878 10.2439024,78.9804878 L45.0731707,78.9804878 C48.1463415,78.9804878 50.7073171,76.4195122 50.7073171,73.3463415 L50.7073171,10.6536585 C50.7073171,7.5804878 48.1463415,5.0195122 45.0731707,5.0195122 L10.2439024,5.0195122 Z" id="Shape" fill-rule="nonzero"></path>
                        <circle id="Oval" cx="27.6585366" cy="72.8341463" r="3.7902439"></circle>
                    </g>
                    <rect id="Rectangle" stroke="#2168F3" fill="#E4EDFF" x="11" y="11" width="34" height="51.5" rx="1"></rect>
                </g>
            </g>
        </g>
    </g>
</svg>