<?xml version="1.0" encoding="UTF-8"?>
<svg width="110px" height="110px" viewBox="0 0 110 110" version="1.1" xmlns="http://www.w3.org/2000/svg" xmlns:xlink="http://www.w3.org/1999/xlink">
    <!-- Generator: Sketch 52.5 (67469) - http://www.bohemiancoding.com/sketch -->
    <title>mdpi/network</title>
    <desc>Created with Sketch.</desc>
    <g id="Atoms" stroke="none" stroke-width="1" fill="none" fill-rule="evenodd">
        <g id="Icons" transform="translate(-2024.000000, -4333.000000)">
            <g id="network" transform="translate(2024.000000, 4333.000000)">
                <rect id="Rectangle-Copy-6" fill-opacity="0.01" fill="#FFFFFF" x="0" y="0" width="110" height="110"></rect>
                <path d="M23.5701549,62.6723623 C4.57015487,45.9723623 1.37015487,16.3723623 30.8701549,12.2723623 C44.7701549,10.3723623 44.9701549,18.9723623 56.6701549,20.7723623 C67.7701549,22.5723623 86.0701549,16.7723623 94.4701549,27.1723623 C108.870155,45.1723623 99.4701549,83.7723623 79.7701549,94.6723623 C72.2701549,98.8723623 62.8701549,99.8723623 54.5701549,98.2723623 C36.8701549,94.9723623 35.1701549,78.4723623 26.5701549,66.0723623 L23.5701549,62.6723623 Z" id="Path-16" fill="#EFF4FF"></path>
                <g id="Group-8" transform="translate(23.000000, 25.000000)">
                    <path d="M49.9399375,28.3287198 L33.6551512,28.3287198 L33.6551512,15.3009153 C33.6551512,14.1013306 32.6834556,13.1296351 31.483871,13.1296351 C30.2842863,13.1296351 29.3125907,14.1013306 29.3125907,15.3009153 L29.3125907,28.3287198 L13.0278044,28.3287198 C9.42991129,28.3287198 6.51384073,31.2447903 6.51384073,34.8425605 L6.51384073,45.6990847 C6.51384073,46.8986694 7.48553629,47.8703649 8.68512097,47.8703649 C9.88470565,47.8703649 10.8564012,46.8986694 10.8564012,45.6990847 L10.8564012,34.8425605 C10.8564012,33.6429758 11.8280968,32.6712802 13.0276815,32.6712802 L29.3124677,32.6712802 L29.3124677,45.6990847 C29.3124677,46.8986694 30.2841633,47.8703649 31.483748,47.8703649 C32.6833327,47.8703649 33.6550282,46.8986694 33.6550282,45.6990847 L33.6550282,32.6712802 L49.9398145,32.6712802 C51.1393992,32.6712802 52.1110948,33.6429758 52.1110948,34.8425605 L52.1110948,45.6990847 C52.1110948,46.8986694 53.0827903,47.8703649 54.282375,47.8703649 C55.4819597,47.8703649 56.4536552,46.8986694 56.4536552,45.6990847 L56.4536552,34.8425605 C56.4537782,31.2447903 53.5378306,28.3287198 49.9399375,28.3287198 Z" id="Path" fill="#2168F3"></path>
                    <g id="Group" transform="translate(0.000000, 0.000000)" fill-rule="nonzero">
                        <path d="M31.483871,17.4721956 C26.6875,17.4721956 22.798627,13.5834456 22.798627,8.78695161 C22.798627,3.99045766 26.6875,0.101830645 31.483871,0.101830645 C36.2802419,0.101830645 40.1691149,3.99058065 40.1691149,8.7870746 C40.1691149,13.5835685 36.2802419,17.4721956 31.483871,17.4721956 Z" id="Shape" fill="#2168F3"></path>
                        <path d="M31.483871,60.8981694 C26.6875,60.8981694 22.798627,57.0094194 22.798627,52.2129254 C22.798627,47.4164315 26.6875,43.5278044 31.483871,43.5278044 C36.2802419,43.5278044 40.1691149,47.4165544 40.1691149,52.2130484 C40.1691149,57.0095423 36.2802419,60.8981694 31.483871,60.8981694 Z M31.483871,47.8703649 C29.0856855,47.8703649 27.1413105,49.8147399 27.1413105,52.2129254 C27.1413105,54.6111109 29.0856855,56.5554859 31.483871,56.5554859 C33.8820565,56.5554859 35.8264315,54.6111109 35.8264315,52.2129254 C35.8264315,49.8148629 33.8820565,47.8703649 31.483871,47.8703649 Z" id="Shape" fill="#3FCB7F"></path>
                        <path d="M8.68524395,60.8981694 C3.88887298,60.8981694 0,57.0094194 0,52.2129254 C0,47.4164315 3.88875,43.5276815 8.68524395,43.5276815 C13.4817379,43.5276815 17.3704879,47.4164315 17.3704879,52.2129254 C17.3704879,57.0094194 13.4816149,60.8981694 8.68524395,60.8981694 Z M8.68524395,47.8703649 C6.28705847,47.8703649 4.34268347,49.8147399 4.34268347,52.2129254 C4.34268347,54.6111109 6.28705847,56.5554859 8.68524395,56.5554859 C11.0834294,56.5554859 13.0278044,54.6111109 13.0278044,52.2129254 C13.0278044,49.8148629 11.0834294,47.8703649 8.68524395,47.8703649 Z" id="Shape" fill="#FFC72D"></path>
                        <path d="M54.282498,60.8981694 C49.486127,60.8981694 45.597254,57.0094194 45.597254,52.2129254 C45.597254,47.4164315 49.486004,43.5276815 54.282498,43.5276815 C59.0789919,43.5276815 62.9677419,47.4165544 62.9677419,52.2130484 C62.9677419,57.0095423 59.0789919,60.8981694 54.282498,60.8981694 Z M54.282498,47.8703649 C51.8843125,47.8703649 49.9399375,49.8147399 49.9399375,52.2129254 C49.9399375,54.6111109 51.8843125,56.5554859 54.282498,56.5554859 C56.6806835,56.5554859 58.6250585,54.6111109 58.6250585,52.2129254 C58.6251815,49.8148629 56.6806835,47.8703649 54.282498,47.8703649 Z" id="Shape" fill="#FFC72D"></path>
                    </g>
                </g>
            </g>
        </g>
    </g>
</svg>