<?xml version="1.0" encoding="UTF-8"?>
<svg width="110px" height="110px" viewBox="0 0 110 110" version="1.1" xmlns="http://www.w3.org/2000/svg" xmlns:xlink="http://www.w3.org/1999/xlink">
    <!-- Generator: Sketch 52.5 (67469) - http://www.bohemiancoding.com/sketch -->
    <title>mdpi/security</title>
    <desc>Created with Sketch.</desc>
    <g id="Atoms" stroke="none" stroke-width="1" fill="none" fill-rule="evenodd">
        <g id="Icons" transform="translate(-2025.000000, -4874.000000)">
            <g id="security" transform="translate(2025.000000, 4874.000000)">
                <rect id="Rectangle-Copy-6" fill-opacity="0.01" fill="#FFFFFF" x="0" y="0" width="110" height="110"></rect>
                <path d="M23.5701549,62.6723623 C4.57015487,45.9723623 1.37015487,16.3723623 30.8701549,12.2723623 C44.7701549,10.3723623 44.9701549,18.9723623 56.6701549,20.7723623 C67.7701549,22.5723623 86.0701549,16.7723623 94.4701549,27.1723623 C108.870155,45.1723623 99.4701549,83.7723623 79.7701549,94.6723623 C72.2701549,98.8723623 62.8701549,99.8723623 54.5701549,98.2723623 C36.8701549,94.9723623 35.1701549,78.4723623 26.5701549,66.0723623 L23.5701549,62.6723623 Z" id="Path-16" fill="#EFF4FF"></path>
                <g id="shield" transform="translate(20.000000, 13.000000)">
                    <path d="M67.265625,15.75 L67.265625,37.2733594 C67.265625,47.4403125 63.931875,57.0051562 58.1634375,64.75875 C52.3933594,72.5123437 44.1902344,79.4374219 34.453125,82.359375 C24.7160156,79.4374219 16.5128906,72.5123437 10.7428125,64.75875 C4.974375,57.0051562 1.640625,47.4403125 1.640625,37.2733594 L1.640625,15.75 C11.8863281,15.75 19.8975,12.3407812 25.4428125,8.87414062 C30.988125,5.40585937 34.0692187,1.87851562 34.453125,1.640625 C35.8033594,2.47734375 45.8505469,15.75 67.265625,15.75 Z" id="Path" fill="#E8EFFF"></path>
                    <path d="M67.265625,14.109375 C49.3874062,14.109375 39.7797422,4.55601562 36.6225234,1.41667969 C35.9798906,0.777492187 35.6571797,0.45675 35.3172422,0.24609375 C34.7876484,-0.08203125 34.1181094,-0.08203125 33.5886797,0.24609375 C33.3548906,0.390960937 33.1665469,0.574875 32.7116016,1.01948437 C31.5426562,2.16135937 28.8054375,4.83574219 24.5729531,7.48289062 C17.5397578,11.8799297 9.8240625,14.109375 1.640625,14.109375 C0.734507813,14.109375 0,14.8438828 0,15.75 L0,37.2733594 C0,47.6060156 3.25959375,57.4489453 9.42670312,65.7382031 C16.1145469,74.7250547 24.8349609,81.1858359 33.9816094,83.9307656 C34.1353359,83.9768672 34.2943125,84 34.453125,84 C34.6119375,84 34.7709141,83.9768672 34.9246406,83.9307656 C44.0712891,81.186 52.7917031,74.7250547 59.4797109,65.7380391 C65.6466562,57.4489453 68.90625,47.6060156 68.90625,37.2733594 L68.90625,15.75 C68.90625,14.8438828 68.1717422,14.109375 67.265625,14.109375 Z M65.625,37.2733594 C65.625,46.8949687 62.5896797,56.0608125 56.8473281,63.7792969 C50.694,72.0477187 42.7579687,78.0195937 34.453125,80.6427891 C26.1482812,78.0195937 18.21225,72.0477187 12.0590859,63.7794609 C6.31657031,56.0608125 3.28125,46.8949687 3.28125,37.2733594 L3.28125,17.3627344 C11.4802734,17.0826797 19.2207422,14.6986875 26.3128359,10.2650625 C30.2801953,7.78361719 33.0078984,5.29265625 34.4611641,3.89451562 C37.9018828,7.3119375 47.7156094,16.8127969 65.625,17.3653594 L65.625,37.2733594 Z" id="Shape" stroke="#2168F3" fill="#2168F3" fill-rule="nonzero"></path>
                    <path d="M47.7925465,38.0460322 C47.6419637,37.5615674 47.2416462,37.2083898 46.7597043,37.1351848 L39.4549653,36.0251983 L36.1894799,29.1016338 C35.9740326,28.644738 35.5291927,28.3555312 35.0422613,28.3553974 C34.5553298,28.3553974 34.11049,28.6446041 33.8950426,29.1013661 L30.6284057,36.0251983 L23.3235388,37.1351848 C22.841597,37.2083898 22.4412795,37.5615674 22.2906966,38.0460322 C22.1402417,38.530497 22.2657488,39.0623377 22.6145073,39.4179242 L27.9002592,44.8073946 L26.6527373,52.4180426 C26.5703454,52.9200392 26.7677535,53.4275228 27.161802,53.7269006 C27.3846697,53.8963295 27.6486055,53.982516 27.9138206,53.982516 C28.1174977,53.982516 28.3219423,53.9317944 28.5091154,53.8287453 L35.0422613,50.2350066 L41.5741277,53.8286115 C42.0052783,54.0656245 42.5276485,54.0264123 42.9215691,53.7269006 C43.3156176,53.4275228 43.5130257,52.9200392 43.4306338,52.4179088 L42.1831119,44.8072608 L47.4688638,39.4177903 C47.8174944,39.0624715 47.9430014,38.5306309 47.7925465,38.0460322 Z" id="Path" fill="#FF6969" fill-rule="nonzero"></path>
                </g>
            </g>
        </g>
    </g>
</svg>