<?xml version="1.0" encoding="UTF-8"?>
<svg width="110px" height="110px" viewBox="0 0 110 110" version="1.1" xmlns="http://www.w3.org/2000/svg" xmlns:xlink="http://www.w3.org/1999/xlink">
    <!-- Generator: Sketch 52.5 (67469) - http://www.bohemiancoding.com/sketch -->
    <title>vision</title>
    <desc>Created with Sketch.</desc>
    <g id="Atoms" stroke="none" stroke-width="1" fill="none" fill-rule="evenodd">
        <g id="Icons" transform="translate(-2329.000000, -3753.000000)">
            <g id="vision" transform="translate(2329.000000, 3753.000000)">
                <rect id="Rectangle-Copy-6" fill-opacity="0.01" fill="#FFFFFF" x="0" y="0" width="110" height="110"></rect>
                <path d="M23.6,62.7 C4.6,46 1.4,16.4 30.9,12.3 C44.8,10.4 45,19 56.7,20.8 C67.8,22.6 86.1,16.8 94.5,27.2 C108.9,45.2 99.5,83.8 79.8,94.7 C72.3,98.9 62.9,99.9 54.6,98.3 C36.9,95 35.2,78.5 26.6,66.1 L23.6,62.7 Z" id="Path-16" fill="#EFF4FF"></path>
                <g id="Group" transform="translate(21.000000, 36.000000)" fill="#2168F3">
                    <path d="M66.4,18 C66.2,17.8 63,13.6 57.4,9.4 C49.9,3.7 41.7,0.8 33.8,0.8 C25.9,0.8 17.7,3.8 10.2,9.4 C4.6,13.6 1.3,17.9 1.2,18 L2.88657986e-15,19.5 L1.2,21 C1.4,21.2 4.6,25.4 10.2,29.6 C17.7,35.3 25.9,38.2 33.8,38.2 C41.7,38.2 49.9,35.2 57.4,29.6 C63,25.4 66.3,21.1 66.4,21 L67.6,19.5 L66.4,18 Z M54.5,25.8 C49.9,29.3 42.5,33.4 33.8,33.4 C25.1,33.4 17.8,29.2 13.1,25.8 C9.9,23.4 7.6,21 6.2,19.5 C7.5,18 9.9,15.6 13.1,13.2 C17.7,9.7 25.1,5.6 33.8,5.6 C42.5,5.6 49.8,9.8 54.5,13.2 C57.7,15.6 60,18 61.4,19.5 C60,21 57.6,23.4 54.5,25.8 Z" id="Shape" fill-rule="nonzero"></path>
                    <path d="M33.8,9.2 C31.4,9.2 29.2,10 27.5,11.6 C28.9,12 29.9,13.3 29.9,14.8 C29.9,16.7 28.4,18.2 26.6,18.2 C25.6,18.2 24.8,17.8 24.2,17.1 C24,17.9 23.9,18.6 23.9,19.5 C23.9,25.2 28.4,29.8 33.9,29.8 C39.4,29.8 43.9,25.2 43.9,19.5 C43.9,13.8 39.3,9.2 33.8,9.2 Z" id="Path"></path>
                </g>
            </g>
        </g>
    </g>
</svg>